<?xml version="1.0" encoding="utf-8" standalone="no"?>
<!DOCTYPE svg PUBLIC "-//W3C//DTD SVG 1.1//EN"
  "http://www.w3.org/Graphics/SVG/1.1/DTD/svg11.dtd">
<svg xmlns:xlink="http://www.w3.org/1999/xlink" width="684pt" height="1468.307168pt" viewBox="0 0 684 1468.307168" xmlns="http://www.w3.org/2000/svg" version="1.1">
 <metadata>
  <rdf:RDF xmlns:dc="http://purl.org/dc/elements/1.1/" xmlns:cc="http://creativecommons.org/ns#" xmlns:rdf="http://www.w3.org/1999/02/22-rdf-syntax-ns#">
   <cc:Work>
    <dc:type rdf:resource="http://purl.org/dc/dcmitype/StillImage"/>
    <dc:date>2025-04-20T21:43:23.347055</dc:date>
    <dc:format>image/svg+xml</dc:format>
    <dc:creator>
     <cc:Agent>
      <dc:title>Matplotlib v3.9.3, https://matplotlib.org/</dc:title>
     </cc:Agent>
    </dc:creator>
   </cc:Work>
  </rdf:RDF>
 </metadata>
 <defs>
  <style type="text/css">*{stroke-linejoin: round; stroke-linecap: butt}</style>
 </defs>
 <g id="figure_1">
  <g id="patch_1">
   <path d="M 0 1468.307168 
L 684 1468.307168 
L 684 0 
L 0 0 
z
" style="fill: #ffffff"/>
  </g>
  <g id="axes_1">
   <g id="PatchCollection_1">
    <path d="M 47.918762 94.350544 
L 45.644435 69.697868 
L 39.319859 55.075894 
L 47.277181 37.264614 
L 70.737284 48.697228 
L 47.918762 94.350544 
" clip-path="url(#pc238461a1c)" style="fill: url(#h728746adfd)"/>
   </g>
   <g id="PatchCollection_2"/>
   <g id="LineCollection_1">
    <path d="M 43.268247 124.225653 
L 47.918762 94.350544 
L 53.578173 54.510302 
" clip-path="url(#pc238461a1c)" style="fill: none; stroke: #f2b701; stroke-width: 1.5"/>
   </g>
   <g id="PathCollection_1">
    <defs>
     <path id="mcf59be65ed" d="M 0 2.5 
C 0.663008 2.5 1.29895 2.236584 1.767767 1.767767 
C 2.236584 1.29895 2.5 0.663008 2.5 0 
C 2.5 -0.663008 2.236584 -1.29895 1.767767 -1.767767 
C 1.29895 -2.236584 0.663008 -2.5 0 -2.5 
C -0.663008 -2.5 -1.29895 -2.236584 -1.767767 -1.767767 
C -2.236584 -1.29895 -2.5 -0.663008 -2.5 0 
C -2.5 0.663008 -2.236584 1.29895 -1.767767 1.767767 
C -1.29895 2.236584 -0.663008 2.5 0 2.5 
z
" style="stroke: #000000"/>
    </defs>
    <g clip-path="url(#pc238461a1c)">
     <use xlink:href="#mcf59be65ed" x="53.578173" y="54.510302" style="fill: #d3d3d3; stroke: #000000"/>
    </g>
   </g>
   <g id="text_1">
    <!-- 1E -->
    <g transform="translate(47.419821 16.318125) scale(0.12 -0.12)">
     <defs>
      <path id="DejaVuSans-31" d="M 794 531 
L 1825 531 
L 1825 4091 
L 703 3866 
L 703 4441 
L 1819 4666 
L 2450 4666 
L 2450 531 
L 3481 531 
L 3481 0 
L 794 0 
L 794 531 
z
" transform="scale(0.015625)"/>
      <path id="DejaVuSans-45" d="M 628 4666 
L 3578 4666 
L 3578 4134 
L 1259 4134 
L 1259 2753 
L 3481 2753 
L 3481 2222 
L 1259 2222 
L 1259 531 
L 3634 531 
L 3634 0 
L 628 0 
L 628 4666 
z
" transform="scale(0.015625)"/>
     </defs>
     <use xlink:href="#DejaVuSans-31"/>
     <use xlink:href="#DejaVuSans-45" x="63.623047"/>
    </g>
   </g>
  </g>
  <g id="axes_2">
   <g id="PatchCollection_3">
    <path d="M 151.610816 83.838424 
L 154.481647 78.99428 
L 162.482441 71.658424 
L 169.937019 65.730188 
L 179.104626 61.539267 
L 187.174363 60.673858 
L 194.856546 61.615363 
L 201.603124 66.052901 
L 205.015428 73.837299 
L 205.934815 83.691863 
L 203.2326 92.611091 
L 195.113231 101.094203 
L 181.92232 114.846159 
L 174.628093 121.226405 
L 161.080869 124.225653 
L 151.471067 119.460804 
L 144.390518 109.669641 
L 145.970436 98.272388 
L 149.502559 87.390895 
L 151.610816 83.838424 
" clip-path="url(#pca44650bcf)" style="fill: url(#h728746adfd)"/>
   </g>
   <g id="PatchCollection_4"/>
   <g id="LineCollection_2">
    <path d="M 151.610816 83.838424 
L 170.495133 95.019824 
" clip-path="url(#pca44650bcf)" style="fill: none; stroke: #f2b701; stroke-width: 1.5"/>
    <path d="M 151.610816 83.838424 
L 159.626663 66.828115 
L 175.623077 51.664061 
L 186.136288 41.835239 
L 189.597546 38.607295 
L 191.035477 37.264614 
" clip-path="url(#pca44650bcf)" style="fill: none; stroke: #f2b701; stroke-width: 1.5"/>
    <path d="M 133.699471 67.565573 
L 151.610816 83.838424 
" clip-path="url(#pca44650bcf)" style="fill: none; stroke: #f2b701; stroke-width: 1.5"/>
   </g>
   <g id="PathCollection_2">
    <g clip-path="url(#pca44650bcf)">
     <use xlink:href="#mcf59be65ed" x="170.495133" y="95.019824" style="fill: #d3d3d3; stroke: #000000"/>
     <use xlink:href="#mcf59be65ed" x="151.610816" y="83.838424" style="fill: #d3d3d3; stroke: #000000"/>
    </g>
   </g>
   <g id="text_2">
    <!-- 1S -->
    <g transform="translate(162.19058 16.318125) scale(0.12 -0.12)">
     <defs>
      <path id="DejaVuSans-53" d="M 3425 4513 
L 3425 3897 
Q 3066 4069 2747 4153 
Q 2428 4238 2131 4238 
Q 1616 4238 1336 4038 
Q 1056 3838 1056 3469 
Q 1056 3159 1242 3001 
Q 1428 2844 1947 2747 
L 2328 2669 
Q 3034 2534 3370 2195 
Q 3706 1856 3706 1288 
Q 3706 609 3251 259 
Q 2797 -91 1919 -91 
Q 1588 -91 1214 -16 
Q 841 59 441 206 
L 441 856 
Q 825 641 1194 531 
Q 1563 422 1919 422 
Q 2459 422 2753 634 
Q 3047 847 3047 1241 
Q 3047 1584 2836 1778 
Q 2625 1972 2144 2069 
L 1759 2144 
Q 1053 2284 737 2584 
Q 422 2884 422 3419 
Q 422 4038 858 4394 
Q 1294 4750 2059 4750 
Q 2388 4750 2728 4690 
Q 3069 4631 3425 4513 
z
" transform="scale(0.015625)"/>
     </defs>
     <use xlink:href="#DejaVuSans-31"/>
     <use xlink:href="#DejaVuSans-53" x="63.623047"/>
    </g>
   </g>
  </g>
  <g id="axes_3"/>
  <g id="axes_4"/>
  <g id="axes_5"/>
  <g id="axes_6"/>
  <g id="axes_7">
   <g id="PatchCollection_5">
    <path d="M 11.748527 246.509683 
L 11.548052 235.696037 
L 17.19083 226.738955 
L 31.110615 220.384693 
L 56.435045 214.905511 
L 76.266355 208.213703 
L 73.991972 217.385095 
L 71.303095 224.654893 
L 65.480905 230.563502 
L 27.201213 240.483395 
L 11.748527 246.509683 
" clip-path="url(#p28289a58b5)" style="fill: url(#h728746adfd)"/>
   </g>
   <g id="PatchCollection_6"/>
   <g id="LineCollection_3">
    <path d="M 13.559275 269.690536 
L 11.748527 246.509683 
L 76.266355 208.213703 
" clip-path="url(#p28289a58b5)" style="fill: none; stroke: #f2b701; stroke-width: 1.5"/>
    <path d="M 76.266355 208.213703 
L 98.509091 201.514937 
" clip-path="url(#p28289a58b5)" style="fill: none; stroke: #f2b701; stroke-width: 1.5"/>
    <path d="M 76.266355 208.213703 
L 76.059384 187.149356 
L 75.757119 184.973969 
" clip-path="url(#p28289a58b5)" style="fill: none; stroke: #f2b701; stroke-width: 1.5"/>
   </g>
   <g id="PathCollection_3">
    <g clip-path="url(#p28289a58b5)">
     <use xlink:href="#mcf59be65ed" x="76.266355" y="208.213703" style="fill: #d3d3d3; stroke: #000000"/>
    </g>
   </g>
   <g id="text_3">
    <!-- 2CE -->
    <g transform="translate(43.230134 162.905244) scale(0.12 -0.12)">
     <defs>
      <path id="DejaVuSans-32" d="M 1228 531 
L 3431 531 
L 3431 0 
L 469 0 
L 469 531 
Q 828 903 1448 1529 
Q 2069 2156 2228 2338 
Q 2531 2678 2651 2914 
Q 2772 3150 2772 3378 
Q 2772 3750 2511 3984 
Q 2250 4219 1831 4219 
Q 1534 4219 1204 4116 
Q 875 4013 500 3803 
L 500 4441 
Q 881 4594 1212 4672 
Q 1544 4750 1819 4750 
Q 2544 4750 2975 4387 
Q 3406 4025 3406 3419 
Q 3406 3131 3298 2873 
Q 3191 2616 2906 2266 
Q 2828 2175 2409 1742 
Q 1991 1309 1228 531 
z
" transform="scale(0.015625)"/>
      <path id="DejaVuSans-43" d="M 4122 4306 
L 4122 3641 
Q 3803 3938 3442 4084 
Q 3081 4231 2675 4231 
Q 1875 4231 1450 3742 
Q 1025 3253 1025 2328 
Q 1025 1406 1450 917 
Q 1875 428 2675 428 
Q 3081 428 3442 575 
Q 3803 722 4122 1019 
L 4122 359 
Q 3791 134 3420 21 
Q 3050 -91 2638 -91 
Q 1578 -91 968 557 
Q 359 1206 359 2328 
Q 359 3453 968 4101 
Q 1578 4750 2638 4750 
Q 3056 4750 3426 4639 
Q 3797 4528 4122 4306 
z
" transform="scale(0.015625)"/>
     </defs>
     <use xlink:href="#DejaVuSans-32"/>
     <use xlink:href="#DejaVuSans-43" x="63.623047"/>
     <use xlink:href="#DejaVuSans-45" x="133.447266"/>
    </g>
   </g>
  </g>
  <g id="axes_8">
   <g id="PatchCollection_7">
    <path d="M 187.379618 224.01999 
L 162.367855 254.044619 
L 145.028829 264.055954 
L 135.310711 256.903898 
L 130.199296 244.870456 
L 144.880652 210.003166 
L 187.379618 224.01999 
" clip-path="url(#pf60e179e88)" style="fill: url(#h728746adfd)"/>
   </g>
   <g id="PatchCollection_8"/>
   <g id="LineCollection_4">
    <path d="M 145.890459 248.531817 
L 164.606993 216.509222 
" clip-path="url(#pf60e179e88)" style="fill: none; stroke: #f2b701; stroke-width: 1.5"/>
    <path d="M 164.606993 216.509222 
L 187.379618 224.01999 
L 213.297662 230.899532 
" clip-path="url(#pf60e179e88)" style="fill: none; stroke: #f2b701; stroke-width: 1.5"/>
    <path d="M 164.606993 216.509222 
L 144.880652 210.003166 
L 126.336623 190.608551 
" clip-path="url(#pf60e179e88)" style="fill: none; stroke: #f2b701; stroke-width: 1.5"/>
   </g>
   <g id="PathCollection_4">
    <g clip-path="url(#pf60e179e88)">
     <use xlink:href="#mcf59be65ed" x="145.890459" y="248.531817" style="fill: #d3d3d3; stroke: #000000"/>
     <use xlink:href="#mcf59be65ed" x="164.606993" y="216.509222" style="fill: #d3d3d3; stroke: #000000"/>
    </g>
   </g>
   <g id="text_4">
    <!-- 2CS -->
    <g transform="translate(158.000893 162.905244) scale(0.12 -0.12)">
     <use xlink:href="#DejaVuSans-32"/>
     <use xlink:href="#DejaVuSans-43" x="63.623047"/>
     <use xlink:href="#DejaVuSans-53" x="133.447266"/>
    </g>
   </g>
  </g>
  <g id="axes_9">
   <g id="PatchCollection_9">
    <path d="M 280.814238 249.566278 
L 260.358359 240.504395 
L 289.86022 183.851733 
L 307.41313 191.814485 
L 289.232924 231.979519 
L 280.814238 249.566278 
" clip-path="url(#p8e48966671)" style="fill: url(#h728746adfd)"/>
   </g>
   <g id="PatchCollection_10"/>
   <g id="LineCollection_5">
    <path d="M 270.206989 270.812772 
L 280.814238 249.566278 
L 289.232924 231.979519 
L 308.85307 245.933542 
" clip-path="url(#p8e48966671)" style="fill: none; stroke: #f2b701; stroke-width: 1.5"/>
   </g>
   <g id="text_5">
    <!-- 2E -->
    <g transform="translate(276.996964 162.905244) scale(0.12 -0.12)">
     <use xlink:href="#DejaVuSans-32"/>
     <use xlink:href="#DejaVuSans-45" x="63.623047"/>
    </g>
   </g>
  </g>
  <g id="axes_10">
   <g id="PatchCollection_11">
    <path d="M 375.103011 238.707641 
L 386.891688 228.535327 
L 408.909781 220.20998 
L 410.421045 219.780187 
L 423.504915 216.403384 
L 425.664864 215.666279 
L 423.952182 217.124497 
L 412.969419 229.846003 
L 389.378761 237.667802 
L 375.103011 238.707641 
" clip-path="url(#p41161e137b)" style="fill: url(#h728746adfd)"/>
   </g>
   <g id="PatchCollection_12"/>
   <g id="LineCollection_6">
    <path d="M 355.913766 245.413643 
L 375.103011 238.707641 
L 400.522218 228.501099 
L 425.664864 215.666279 
L 442.874805 209.250862 
" clip-path="url(#p41161e137b)" style="fill: none; stroke: #f2b701; stroke-width: 1.5"/>
   </g>
   <g id="PathCollection_5">
    <g clip-path="url(#p41161e137b)">
     <use xlink:href="#mcf59be65ed" x="442.874805" y="209.250862" style="fill: #d3d3d3; stroke: #000000"/>
    </g>
   </g>
   <g id="text_6">
    <!-- 2EE -->
    <g transform="translate(387.994286 162.905244) scale(0.12 -0.12)">
     <use xlink:href="#DejaVuSans-32"/>
     <use xlink:href="#DejaVuSans-45" x="63.623047"/>
     <use xlink:href="#DejaVuSans-45" x="126.806641"/>
    </g>
   </g>
  </g>
  <g id="axes_11">
   <g id="PatchCollection_13">
    <path d="M 519.314143 239.663589 
L 507.749239 232.50347 
L 502.104183 224.28039 
L 499.586805 214.422482 
L 500.629534 204.506139 
L 505.708926 194.587389 
L 513.171157 187.963528 
L 521.351355 184.543518 
L 531.318863 183.851733 
L 544.718247 188.807575 
L 551.812314 195.842686 
L 556.835705 208.641276 
L 556.388217 218.610149 
L 551.311627 229.627234 
L 544.018016 236.433099 
L 538.989603 239.035529 
L 529.19551 241.077659 
L 519.314143 239.663589 
" clip-path="url(#p6b68613a0f)" style="fill: url(#h728746adfd)"/>
   </g>
   <g id="PatchCollection_14"/>
   <g id="LineCollection_7">
    <path d="M 471.530009 192.476412 
L 500.629534 204.506139 
L 528.25632 212.420286 
L 519.314143 239.663589 
L 514.672759 270.812772 
" clip-path="url(#p6b68613a0f)" style="fill: none; stroke: #f2b701; stroke-width: 1.5"/>
   </g>
   <g id="text_7">
    <!-- 2S -->
    <g transform="translate(506.556295 162.905244) scale(0.12 -0.12)">
     <use xlink:href="#DejaVuSans-32"/>
     <use xlink:href="#DejaVuSans-53" x="63.623047"/>
    </g>
   </g>
  </g>
  <g id="axes_12"/>
  <g id="axes_13">
   <g id="PatchCollection_15">
    <path d="M 40.288259 392.988642 
L 48.041116 381.437107 
L 54.810145 370.743869 
L 57.787381 365.713232 
L 59.261017 361.510736 
L 61.248028 354.116677 
L 63.274412 347.517169 
L 66.311584 343.347497 
L 68.628961 354.535478 
L 69.96591 366.322751 
L 70.921739 379.101152 
L 72.62339 400.302075 
L 71.873245 403.530505 
L 70.507655 406.252581 
L 53.269416 398.326976 
L 40.288259 392.988642 
" clip-path="url(#pde20e08346)" style="fill: url(#h728746adfd)"/>
   </g>
   <g id="PatchCollection_16"/>
   <g id="LineCollection_8">
    <path d="M 40.288259 392.988642 
L 31.848342 398.906064 
L 29.753385 400.451758 
" clip-path="url(#pde20e08346)" style="fill: none; stroke: #f2b701; stroke-width: 1.5"/>
    <path d="M 70.507655 406.252581 
L 68.384723 411.100581 
L 65.561124 415.627333 
L 63.817561 417.399891 
" clip-path="url(#pde20e08346)" style="fill: none; stroke: #f2b701; stroke-width: 1.5"/>
    <path d="M 70.507655 406.252581 
L 82.309563 411.546631 
" clip-path="url(#pde20e08346)" style="fill: none; stroke: #f2b701; stroke-width: 1.5"/>
    <path d="M 27.74758 389.933292 
L 40.288259 392.988642 
" clip-path="url(#pde20e08346)" style="fill: none; stroke: #f2b701; stroke-width: 1.5"/>
    <path d="M 40.288259 392.988642 
L 53.269416 398.326976 
L 70.507655 406.252581 
" clip-path="url(#pde20e08346)" style="fill: none; stroke: #f2b701; stroke-width: 1.5"/>
    <path d="M 66.161182 330.438852 
L 66.52323 336.330596 
L 66.311584 343.347497 
L 68.628961 354.535478 
L 69.96591 366.322751 
L 70.921739 379.101152 
L 72.62339 400.302075 
L 71.873245 403.530505 
L 70.507655 406.252581 
" clip-path="url(#pde20e08346)" style="fill: none; stroke: #f2b701; stroke-width: 1.5"/>
   </g>
   <g id="PathCollection_6">
    <g clip-path="url(#pde20e08346)">
     <use xlink:href="#mcf59be65ed" x="70.507655" y="406.252581" style="fill: #d3d3d3; stroke: #000000"/>
     <use xlink:href="#mcf59be65ed" x="40.288259" y="392.988642" style="fill: #d3d3d3; stroke: #000000"/>
    </g>
   </g>
   <g id="text_8">
    <!-- 3CCE -->
    <g transform="translate(39.040446 309.492362) scale(0.12 -0.12)">
     <defs>
      <path id="DejaVuSans-33" d="M 2597 2516 
Q 3050 2419 3304 2112 
Q 3559 1806 3559 1356 
Q 3559 666 3084 287 
Q 2609 -91 1734 -91 
Q 1441 -91 1130 -33 
Q 819 25 488 141 
L 488 750 
Q 750 597 1062 519 
Q 1375 441 1716 441 
Q 2309 441 2620 675 
Q 2931 909 2931 1356 
Q 2931 1769 2642 2001 
Q 2353 2234 1838 2234 
L 1294 2234 
L 1294 2753 
L 1863 2753 
Q 2328 2753 2575 2939 
Q 2822 3125 2822 3475 
Q 2822 3834 2567 4026 
Q 2313 4219 1838 4219 
Q 1578 4219 1281 4162 
Q 984 4106 628 3988 
L 628 4550 
Q 988 4650 1302 4700 
Q 1616 4750 1894 4750 
Q 2613 4750 3031 4423 
Q 3450 4097 3450 3541 
Q 3450 3153 3228 2886 
Q 3006 2619 2597 2516 
z
" transform="scale(0.015625)"/>
     </defs>
     <use xlink:href="#DejaVuSans-33"/>
     <use xlink:href="#DejaVuSans-43" x="63.623047"/>
     <use xlink:href="#DejaVuSans-43" x="133.447266"/>
     <use xlink:href="#DejaVuSans-45" x="203.271484"/>
    </g>
   </g>
  </g>
  <g id="axes_14">
   <g id="PatchCollection_17">
    <path d="M 151.377724 393.711745 
L 160.5999 380.282868 
L 159.210894 369.371041 
L 157.602913 365.132553 
L 150.693856 360.034575 
L 140.278777 358.581085 
L 164.61901 355.172589 
L 182.237605 354.704026 
L 199.358293 353.989884 
L 182.537134 369.405178 
L 166.818336 381.667092 
L 151.377724 393.711745 
" clip-path="url(#p81786d3a36)" style="fill: url(#h728746adfd)"/>
   </g>
   <g id="PatchCollection_18"/>
   <g id="LineCollection_9">
    <path d="M 140.425774 402.523862 
L 141.927312 401.440834 
L 151.377724 393.711745 
L 166.818336 381.667092 
L 182.537134 369.405178 
L 199.358293 353.989884 
" clip-path="url(#p81786d3a36)" style="fill: none; stroke: #f2b701; stroke-width: 1.5"/>
    <path d="M 213.297662 355.764543 
L 199.358293 353.989884 
" clip-path="url(#p81786d3a36)" style="fill: none; stroke: #f2b701; stroke-width: 1.5"/>
    <path d="M 126.336623 360.313855 
L 129.426231 359.926594 
L 140.278777 358.581085 
L 164.61901 355.172589 
L 182.237605 354.704026 
L 199.358293 353.989884 
" clip-path="url(#p81786d3a36)" style="fill: none; stroke: #f2b701; stroke-width: 1.5"/>
    <path d="M 199.358293 353.989884 
L 210.407876 345.31488 
" clip-path="url(#p81786d3a36)" style="fill: none; stroke: #f2b701; stroke-width: 1.5"/>
   </g>
   <g id="PathCollection_7">
    <g clip-path="url(#p81786d3a36)">
     <use xlink:href="#mcf59be65ed" x="199.358293" y="353.989884" style="fill: #d3d3d3; stroke: #000000"/>
    </g>
   </g>
   <g id="text_9">
    <!-- 3CCS -->
    <g transform="translate(153.811205 309.492362) scale(0.12 -0.12)">
     <use xlink:href="#DejaVuSans-33"/>
     <use xlink:href="#DejaVuSans-43" x="63.623047"/>
     <use xlink:href="#DejaVuSans-43" x="133.447266"/>
     <use xlink:href="#DejaVuSans-53" x="203.271484"/>
    </g>
   </g>
  </g>
  <g id="axes_15">
   <g id="PatchCollection_19">
    <path d="M 269.231321 379.626813 
L 270.426223 352.68638 
L 275.007031 346.060253 
L 300.556492 403.662546 
L 269.231321 379.626813 
" clip-path="url(#pd27986115e)" style="fill: url(#h728746adfd)"/>
   </g>
   <g id="PatchCollection_20"/>
   <g id="LineCollection_10">
    <path d="M 300.556492 403.662546 
L 308.364623 417.399891 
" clip-path="url(#pd27986115e)" style="fill: none; stroke: #f2b701; stroke-width: 1.5"/>
    <path d="M 269.231321 379.626813 
L 300.556492 403.662546 
" clip-path="url(#pd27986115e)" style="fill: none; stroke: #f2b701; stroke-width: 1.5"/>
    <path d="M 255.011975 386.502449 
L 269.231321 379.626813 
" clip-path="url(#pd27986115e)" style="fill: none; stroke: #f2b701; stroke-width: 1.5"/>
    <path d="M 300.556492 403.662546 
L 310.864913 409.990268 
L 314.199454 411.605123 
" clip-path="url(#pd27986115e)" style="fill: none; stroke: #f2b701; stroke-width: 1.5"/>
    <path d="M 269.231321 379.626813 
L 270.426223 352.68638 
L 275.007031 346.060253 
L 277.202995 332.114447 
L 277.276879 330.438852 
" clip-path="url(#pd27986115e)" style="fill: none; stroke: #f2b701; stroke-width: 1.5"/>
   </g>
   <g id="PathCollection_8">
    <g clip-path="url(#pd27986115e)">
     <use xlink:href="#mcf59be65ed" x="300.556492" y="403.662546" style="fill: #d3d3d3; stroke: #000000"/>
     <use xlink:href="#mcf59be65ed" x="269.231321" y="379.626813" style="fill: #d3d3d3; stroke: #000000"/>
    </g>
   </g>
   <g id="text_10">
    <!-- 3CE -->
    <g transform="translate(272.807277 309.492362) scale(0.12 -0.12)">
     <use xlink:href="#DejaVuSans-33"/>
     <use xlink:href="#DejaVuSans-43" x="63.623047"/>
     <use xlink:href="#DejaVuSans-45" x="133.447266"/>
    </g>
   </g>
  </g>
  <g id="axes_16">
   <g id="PatchCollection_21">
    <path d="M 369.359041 358.16308 
L 373.663881 353.464897 
L 416.911923 360.720965 
L 420.998201 361.425871 
L 427.205141 361.982226 
L 416.202557 376.404132 
L 390.02712 384.485488 
L 369.359041 358.16308 
" clip-path="url(#p1e3d7954e6)" style="fill: url(#h728746adfd)"/>
   </g>
   <g id="PatchCollection_22"/>
   <g id="LineCollection_11">
    <path d="M 390.02712 384.485488 
L 391.443372 400.227102 
" clip-path="url(#p1e3d7954e6)" style="fill: none; stroke: #f2b701; stroke-width: 1.5"/>
    <path d="M 427.205141 361.982226 
L 390.02712 384.485488 
" clip-path="url(#p1e3d7954e6)" style="fill: none; stroke: #f2b701; stroke-width: 1.5"/>
    <path d="M 427.205141 361.982226 
L 442.874805 363.955866 
" clip-path="url(#p1e3d7954e6)" style="fill: none; stroke: #f2b701; stroke-width: 1.5"/>
    <path d="M 355.913766 349.859058 
L 369.359041 358.16308 
L 390.02712 384.485488 
" clip-path="url(#p1e3d7954e6)" style="fill: none; stroke: #f2b701; stroke-width: 1.5"/>
    <path d="M 433.755595 347.611641 
L 427.205141 361.982226 
" clip-path="url(#p1e3d7954e6)" style="fill: none; stroke: #f2b701; stroke-width: 1.5"/>
   </g>
   <g id="PathCollection_9">
    <g clip-path="url(#p1e3d7954e6)">
     <use xlink:href="#mcf59be65ed" x="390.02712" y="384.485488" style="fill: #d3d3d3; stroke: #000000"/>
     <use xlink:href="#mcf59be65ed" x="427.205141" y="361.982226" style="fill: #d3d3d3; stroke: #000000"/>
    </g>
   </g>
   <g id="text_11">
    <!-- 3CEE -->
    <g transform="translate(383.804598 309.492362) scale(0.12 -0.12)">
     <use xlink:href="#DejaVuSans-33"/>
     <use xlink:href="#DejaVuSans-43" x="63.623047"/>
     <use xlink:href="#DejaVuSans-45" x="133.447266"/>
     <use xlink:href="#DejaVuSans-45" x="196.630859"/>
    </g>
   </g>
  </g>
  <g id="axes_17">
   <g id="PatchCollection_23">
    <path d="M 494.202619 373.329237 
L 527.621692 376.221144 
L 530.16867 376.447227 
L 527.933457 377.450357 
L 511.669067 388.196784 
L 498.965221 399.436948 
L 498.659932 393.681603 
L 497.443753 386.424592 
L 495.877834 378.464169 
L 494.202619 373.329237 
" clip-path="url(#pa55033eaff)" style="fill: url(#h728746adfd)"/>
   </g>
   <g id="PatchCollection_24"/>
   <g id="LineCollection_12">
    <path d="M 530.16867 376.447227 
L 503.330383 377.806681 
L 484.899096 389.276745 
L 470.702338 393.565289 
" clip-path="url(#pa55033eaff)" style="fill: none; stroke: #f2b701; stroke-width: 1.5"/>
    <path d="M 557.663377 377.771744 
L 532.719364 376.597684 
L 530.16867 376.447227 
" clip-path="url(#pa55033eaff)" style="fill: none; stroke: #f2b701; stroke-width: 1.5"/>
    <path d="M 525.743541 348.401795 
L 530.440709 374.535678 
L 530.16867 376.447227 
" clip-path="url(#pa55033eaff)" style="fill: none; stroke: #f2b701; stroke-width: 1.5"/>
   </g>
   <g id="PathCollection_10">
    <g clip-path="url(#pa55033eaff)">
     <use xlink:href="#mcf59be65ed" x="530.16867" y="376.447227" style="fill: #d3d3d3; stroke: #000000"/>
    </g>
   </g>
   <g id="text_12">
    <!-- 3CES -->
    <g transform="translate(498.575357 309.492362) scale(0.12 -0.12)">
     <use xlink:href="#DejaVuSans-33"/>
     <use xlink:href="#DejaVuSans-43" x="63.623047"/>
     <use xlink:href="#DejaVuSans-45" x="133.447266"/>
     <use xlink:href="#DejaVuSans-53" x="196.630859"/>
    </g>
   </g>
  </g>
  <g id="axes_18">
   <g id="PatchCollection_25">
    <path d="M 632.394303 402.165206 
L 587.852769 350.625644 
L 587.502722 341.950293 
L 600.003135 331.057697 
L 606.8184 330.438852 
L 653.657001 383.342023 
L 644.508524 392.141069 
L 632.394303 402.165206 
" clip-path="url(#pbab67a6006)" style="fill: url(#h728746adfd)"/>
   </g>
   <g id="PatchCollection_26"/>
   <g id="LineCollection_13">
    <path d="M 644.508524 392.141069 
L 632.394303 402.165206 
L 626.468401 407.583666 
L 615.728964 417.399891 
" clip-path="url(#pbab67a6006)" style="fill: none; stroke: #f2b701; stroke-width: 1.5"/>
    <path d="M 644.508524 392.141069 
L 650.705318 399.006398 
L 659.648661 408.900971 
" clip-path="url(#pbab67a6006)" style="fill: none; stroke: #f2b701; stroke-width: 1.5"/>
    <path d="M 598.165846 346.557807 
L 602.913463 346.914211 
L 644.508524 392.141069 
" clip-path="url(#pbab67a6006)" style="fill: none; stroke: #f2b701; stroke-width: 1.5"/>
    <path d="M 670.440135 368.203294 
L 662.140767 375.689356 
L 653.657001 383.342023 
L 644.508524 392.141069 
" clip-path="url(#pbab67a6006)" style="fill: none; stroke: #f2b701; stroke-width: 1.5"/>
   </g>
   <g id="PathCollection_11">
    <g clip-path="url(#pbab67a6006)">
     <use xlink:href="#mcf59be65ed" x="644.508524" y="392.141069" style="fill: #d3d3d3; stroke: #000000"/>
     <use xlink:href="#mcf59be65ed" x="598.165846" y="346.557807" style="fill: #d3d3d3; stroke: #000000"/>
    </g>
   </g>
   <g id="text_13">
    <!-- 3CS -->
    <g transform="translate(617.155179 309.492362) scale(0.12 -0.12)">
     <use xlink:href="#DejaVuSans-33"/>
     <use xlink:href="#DejaVuSans-43" x="63.623047"/>
     <use xlink:href="#DejaVuSans-53" x="133.447266"/>
    </g>
   </g>
  </g>
  <g id="axes_19">
   <g id="PatchCollection_27">
    <path d="M 61.010895 546.699603 
L 22.296518 523.264416 
L 21.970486 513.699667 
L 36.833954 491.995657 
L 43.391903 489.785774 
L 55.719653 495.413423 
L 82.294843 511.56902 
L 70.558503 531.580423 
L 61.010895 546.699603 
" clip-path="url(#p7568d6aa35)" style="fill: url(#h728746adfd)"/>
   </g>
   <g id="PatchCollection_28"/>
   <g id="LineCollection_14">
    <path d="M 51.032135 563.987009 
L 61.010895 546.699603 
L 50.780747 516.740186 
" clip-path="url(#p7568d6aa35)" style="fill: none; stroke: #f2b701; stroke-width: 1.5"/>
    <path d="M 88.086657 541.180955 
L 70.558503 531.580423 
L 50.780747 516.740186 
" clip-path="url(#p7568d6aa35)" style="fill: none; stroke: #f2b701; stroke-width: 1.5"/>
    <path d="M 50.780747 516.740186 
L 55.719653 495.413423 
L 58.790155 488.193549 
L 63.544758 477.02597 
" clip-path="url(#p7568d6aa35)" style="fill: none; stroke: #f2b701; stroke-width: 1.5"/>
   </g>
   <g id="PathCollection_12">
    <g clip-path="url(#p7568d6aa35)">
     <use xlink:href="#mcf59be65ed" x="50.780747" y="516.740186" style="fill: #d3d3d3; stroke: #000000"/>
    </g>
   </g>
   <g id="text_14">
    <!-- 3E -->
    <g transform="translate(47.419821 456.079481) scale(0.12 -0.12)">
     <use xlink:href="#DejaVuSans-33"/>
     <use xlink:href="#DejaVuSans-45" x="63.623047"/>
    </g>
   </g>
  </g>
  <g id="axes_20">
   <g id="PatchCollection_29">
    <path d="M 182.19316 555.490629 
L 179.901518 552.524016 
L 177.99316 547.436019 
L 174.873391 539.368207 
L 158.864056 496.685534 
L 156.588295 489.940922 
L 156.912108 484.549868 
L 160.30548 487.679241 
L 180.295637 537.461504 
L 180.935353 539.260952 
L 182.925823 545.930175 
L 184.325825 551.547631 
L 184.48277 553.053145 
L 183.598629 556.142399 
L 182.19316 555.490629 
" clip-path="url(#p79a9a1e0fb)" style="fill: url(#h728746adfd)"/>
   </g>
   <g id="PatchCollection_30"/>
   <g id="LineCollection_15">
    <path d="M 170.914197 521.407977 
L 183.598629 556.142399 
L 185.107858 558.886425 
L 185.991488 563.987009 
" clip-path="url(#p79a9a1e0fb)" style="fill: none; stroke: #f2b701; stroke-width: 1.5"/>
    <path d="M 172.687722 556.424667 
L 173.847007 557.078629 
L 182.19316 555.490629 
L 170.914197 521.407977 
" clip-path="url(#p79a9a1e0fb)" style="fill: none; stroke: #f2b701; stroke-width: 1.5"/>
    <path d="M 156.912108 484.549868 
L 170.914197 521.407977 
" clip-path="url(#p79a9a1e0fb)" style="fill: none; stroke: #f2b701; stroke-width: 1.5"/>
    <path d="M 165.500848 481.301712 
L 156.912108 484.549868 
" clip-path="url(#p79a9a1e0fb)" style="fill: none; stroke: #f2b701; stroke-width: 1.5"/>
    <path d="M 156.912108 484.549868 
L 153.642798 477.02597 
" clip-path="url(#p79a9a1e0fb)" style="fill: none; stroke: #f2b701; stroke-width: 1.5"/>
   </g>
   <g id="PathCollection_13">
    <g clip-path="url(#p79a9a1e0fb)">
     <use xlink:href="#mcf59be65ed" x="170.914197" y="521.407977" style="fill: #d3d3d3; stroke: #000000"/>
     <use xlink:href="#mcf59be65ed" x="156.912108" y="484.549868" style="fill: #d3d3d3; stroke: #000000"/>
    </g>
   </g>
   <g id="text_15">
    <!-- 3EE -->
    <g transform="translate(158.417143 456.079481) scale(0.12 -0.12)">
     <use xlink:href="#DejaVuSans-33"/>
     <use xlink:href="#DejaVuSans-45" x="63.623047"/>
     <use xlink:href="#DejaVuSans-45" x="126.806641"/>
    </g>
   </g>
  </g>
  <g id="axes_21">
   <g id="PatchCollection_31">
    <path d="M 255.488238 497.155196 
L 270.224579 499.015782 
L 312.487273 504.389724 
L 288.060671 514.662873 
L 252.424432 548.65091 
L 255.488238 497.155196 
" clip-path="url(#p4de2449dc7)" style="fill: url(#h728746adfd)"/>
   </g>
   <g id="PatchCollection_32"/>
   <g id="LineCollection_16">
    <path d="M 241.125195 559.468307 
L 252.424432 548.65091 
L 271.447327 515.642136 
" clip-path="url(#p4de2449dc7)" style="fill: none; stroke: #f2b701; stroke-width: 1.5"/>
    <path d="M 328.086234 505.533502 
L 312.487273 504.389724 
L 271.447327 515.642136 
" clip-path="url(#p4de2449dc7)" style="fill: none; stroke: #f2b701; stroke-width: 1.5"/>
    <path d="M 256.464727 481.544673 
L 255.488238 497.155196 
L 271.447327 515.642136 
" clip-path="url(#p4de2449dc7)" style="fill: none; stroke: #f2b701; stroke-width: 1.5"/>
   </g>
   <g id="PathCollection_14">
    <g clip-path="url(#p4de2449dc7)">
     <use xlink:href="#mcf59be65ed" x="271.447327" y="515.642136" style="fill: #d3d3d3; stroke: #000000"/>
    </g>
   </g>
   <g id="text_16">
    <!-- 3EEE -->
    <g transform="translate(269.414464 456.079481) scale(0.12 -0.12)">
     <use xlink:href="#DejaVuSans-33"/>
     <use xlink:href="#DejaVuSans-45" x="63.623047"/>
     <use xlink:href="#DejaVuSans-45" x="126.806641"/>
     <use xlink:href="#DejaVuSans-45" x="189.990234"/>
    </g>
   </g>
  </g>
  <g id="axes_22">
   <g id="PatchCollection_33">
    <path d="M 380.661204 542.115376 
L 380.436276 534.674924 
L 377.895954 527.353986 
L 368.080957 499.820718 
L 370.912661 488.696407 
L 373.961127 491.666781 
L 396.216541 509.596389 
L 398.708046 511.990667 
L 408.089087 524.865874 
L 415.865252 533.875255 
L 421.355704 538.732659 
L 429.22289 547.416024 
L 409.557217 547.084556 
L 388.664401 542.637912 
L 380.661204 542.115376 
" clip-path="url(#p12b6e49cb2)" style="fill: url(#h728746adfd)"/>
   </g>
   <g id="PatchCollection_34"/>
   <g id="LineCollection_17">
    <path d="M 429.22289 547.416024 
L 427.28933 549.843419 
L 420.960825 561.588598 
L 419.746374 563.987009 
" clip-path="url(#p12b6e49cb2)" style="fill: none; stroke: #f2b701; stroke-width: 1.5"/>
    <path d="M 366.920028 551.63797 
L 380.661204 542.115376 
L 388.664401 542.637912 
L 409.557217 547.084556 
L 429.22289 547.416024 
" clip-path="url(#p12b6e49cb2)" style="fill: none; stroke: #f2b701; stroke-width: 1.5"/>
    <path d="M 429.22289 547.416024 
L 439.290676 534.768258 
L 439.838893 534.218532 
" clip-path="url(#p12b6e49cb2)" style="fill: none; stroke: #f2b701; stroke-width: 1.5"/>
    <path d="M 358.949678 477.02597 
L 358.996873 477.090544 
L 370.912661 488.696407 
L 373.961127 491.666781 
L 396.216541 509.596389 
L 398.708046 511.990667 
L 408.089087 524.865874 
L 415.865252 533.875255 
L 421.355704 538.732659 
L 429.22289 547.416024 
" clip-path="url(#p12b6e49cb2)" style="fill: none; stroke: #f2b701; stroke-width: 1.5"/>
   </g>
   <g id="PathCollection_15">
    <g clip-path="url(#p12b6e49cb2)">
     <use xlink:href="#mcf59be65ed" x="429.22289" y="547.416024" style="fill: #d3d3d3; stroke: #000000"/>
    </g>
   </g>
   <g id="text_17">
    <!-- 3EES -->
    <g transform="translate(384.185223 456.079481) scale(0.12 -0.12)">
     <use xlink:href="#DejaVuSans-33"/>
     <use xlink:href="#DejaVuSans-45" x="63.623047"/>
     <use xlink:href="#DejaVuSans-45" x="126.806641"/>
     <use xlink:href="#DejaVuSans-53" x="189.990234"/>
    </g>
   </g>
  </g>
  <g id="axes_23">
   <g id="PatchCollection_35">
    <path d="M 501.65363 505.965144 
L 511.007584 510.755338 
L 541.907499 532.168854 
L 544.224178 538.854029 
L 484.358416 539.939412 
L 501.65363 505.965144 
" clip-path="url(#p0c7970059a)" style="fill: url(#h728746adfd)"/>
   </g>
   <g id="PatchCollection_36"/>
   <g id="LineCollection_18">
    <path d="M 544.224178 538.854029 
L 557.663377 541.26675 
" clip-path="url(#p0c7970059a)" style="fill: none; stroke: #f2b701; stroke-width: 1.5"/>
    <path d="M 470.702338 540.073294 
L 474.655979 540.219282 
L 484.358416 539.939412 
L 544.224178 538.854029 
" clip-path="url(#p0c7970059a)" style="fill: none; stroke: #f2b701; stroke-width: 1.5"/>
    <path d="M 489.489711 499.74623 
L 501.65363 505.965144 
L 511.007584 510.755338 
L 541.907499 532.168854 
L 544.224178 538.854029 
" clip-path="url(#p0c7970059a)" style="fill: none; stroke: #f2b701; stroke-width: 1.5"/>
   </g>
   <g id="PathCollection_16">
    <g clip-path="url(#p0c7970059a)">
     <use xlink:href="#mcf59be65ed" x="544.224178" y="538.854029" style="fill: #d3d3d3; stroke: #000000"/>
    </g>
   </g>
   <g id="text_18">
    <!-- 3ES -->
    <g transform="translate(502.765045 456.079481) scale(0.12 -0.12)">
     <use xlink:href="#DejaVuSans-33"/>
     <use xlink:href="#DejaVuSans-45" x="63.623047"/>
     <use xlink:href="#DejaVuSans-53" x="126.806641"/>
    </g>
   </g>
  </g>
  <g id="axes_24">
   <g id="PatchCollection_37">
    <path d="M 619.921167 528.498695 
L 616.440159 524.656196 
L 616.325258 513.426585 
L 624.207427 505.368005 
L 635.484132 505.272469 
L 643.536428 513.119932 
L 643.652215 524.37753 
L 640.591222 529.542227 
L 635.751408 532.408683 
L 624.493317 532.531657 
L 619.921167 528.498695 
" clip-path="url(#p037b2ce631)" style="fill: url(#h728746adfd)"/>
   </g>
   <g id="PatchCollection_38"/>
   <g id="LineCollection_19">
    <path d="M 590.417438 552.169682 
L 619.921167 528.498695 
L 630.090594 519.050204 
" clip-path="url(#p037b2ce631)" style="fill: none; stroke: #f2b701; stroke-width: 1.5"/>
    <path d="M 585.490909 491.707198 
L 616.325258 513.426585 
L 630.090594 519.050204 
" clip-path="url(#p037b2ce631)" style="fill: none; stroke: #f2b701; stroke-width: 1.5"/>
    <path d="M 672.451948 488.843297 
L 643.536428 513.119932 
L 630.090594 519.050204 
" clip-path="url(#p037b2ce631)" style="fill: none; stroke: #f2b701; stroke-width: 1.5"/>
   </g>
   <g id="PathCollection_17">
    <g clip-path="url(#p037b2ce631)">
     <use xlink:href="#mcf59be65ed" x="630.090594" y="519.050204" style="fill: #d3d3d3; stroke: #000000"/>
    </g>
   </g>
   <g id="text_19">
    <!-- 3S -->
    <g transform="translate(621.344866 456.079481) scale(0.12 -0.12)">
     <use xlink:href="#DejaVuSans-33"/>
     <use xlink:href="#DejaVuSans-53" x="63.623047"/>
    </g>
   </g>
  </g>
  <g id="axes_25">
   <g id="PatchCollection_39">
    <path d="M 68.860258 686.508856 
L 38.270707 661.085046 
L 25.75119 648.581055 
L 24.49334 640.887071 
L 35.685474 642.082515 
L 46.042556 643.05455 
L 66.498549 644.978086 
L 85.601937 646.974839 
L 78.256213 686.96259 
L 68.860258 686.508856 
" clip-path="url(#p144388ea0b)" style="fill: url(#h728746adfd)"/>
   </g>
   <g id="PatchCollection_40"/>
   <g id="LineCollection_20">
    <path d="M 78.256213 686.96259 
L 79.850399 699.853286 
" clip-path="url(#p144388ea0b)" style="fill: none; stroke: #f2b701; stroke-width: 1.5"/>
    <path d="M 48.945908 686.859906 
L 68.860258 686.508856 
L 78.256213 686.96259 
" clip-path="url(#p144388ea0b)" style="fill: none; stroke: #f2b701; stroke-width: 1.5"/>
    <path d="M 78.256213 686.96259 
L 91.411732 687.293948 
" clip-path="url(#p144388ea0b)" style="fill: none; stroke: #f2b701; stroke-width: 1.5"/>
    <path d="M 85.601937 646.974839 
L 78.256213 686.96259 
" clip-path="url(#p144388ea0b)" style="fill: none; stroke: #f2b701; stroke-width: 1.5"/>
    <path d="M 85.601937 646.974839 
L 98.509091 648.411411 
" clip-path="url(#p144388ea0b)" style="fill: none; stroke: #f2b701; stroke-width: 1.5"/>
    <path d="M 11.548052 639.888849 
L 24.49334 640.887071 
L 35.685474 642.082515 
L 46.042556 643.05455 
L 66.498549 644.978086 
L 85.601937 646.974839 
" clip-path="url(#p144388ea0b)" style="fill: none; stroke: #f2b701; stroke-width: 1.5"/>
    <path d="M 88.575115 634.333931 
L 85.601937 646.974839 
" clip-path="url(#p144388ea0b)" style="fill: none; stroke: #f2b701; stroke-width: 1.5"/>
   </g>
   <g id="PathCollection_18">
    <g clip-path="url(#p144388ea0b)">
     <use xlink:href="#mcf59be65ed" x="78.256213" y="686.96259" style="fill: #d3d3d3; stroke: #000000"/>
     <use xlink:href="#mcf59be65ed" x="85.601937" y="646.974839" style="fill: #d3d3d3; stroke: #000000"/>
    </g>
   </g>
   <g id="text_20">
    <!-- 4CCCS -->
    <g transform="translate(34.832946 602.6666) scale(0.12 -0.12)">
     <defs>
      <path id="DejaVuSans-34" d="M 2419 4116 
L 825 1625 
L 2419 1625 
L 2419 4116 
z
M 2253 4666 
L 3047 4666 
L 3047 1625 
L 3713 1625 
L 3713 1100 
L 3047 1100 
L 3047 0 
L 2419 0 
L 2419 1100 
L 313 1100 
L 313 1709 
L 2253 4666 
z
" transform="scale(0.015625)"/>
     </defs>
     <use xlink:href="#DejaVuSans-34"/>
     <use xlink:href="#DejaVuSans-43" x="63.623047"/>
     <use xlink:href="#DejaVuSans-43" x="133.447266"/>
     <use xlink:href="#DejaVuSans-43" x="203.271484"/>
     <use xlink:href="#DejaVuSans-53" x="273.095703"/>
    </g>
   </g>
  </g>
  <g id="axes_26">
   <g id="PatchCollection_41">
    <path d="M 135.155612 693.924583 
L 141.545036 692.565599 
L 167.469124 664.952263 
L 196.762843 627.199853 
L 202.9227 631.842708 
L 177.967842 664.045288 
L 158.941587 686.367888 
L 137.823098 704.780467 
L 135.155612 693.924583 
" clip-path="url(#pe3b9f77e47)" style="fill: url(#h728746adfd)"/>
   </g>
   <g id="PatchCollection_42"/>
   <g id="LineCollection_21">
    <path d="M 137.823098 704.780467 
L 132.775641 708.518551 
" clip-path="url(#pe3b9f77e47)" style="fill: none; stroke: #f2b701; stroke-width: 1.5"/>
    <path d="M 140.237164 710.574128 
L 137.823098 704.780467 
" clip-path="url(#pe3b9f77e47)" style="fill: none; stroke: #f2b701; stroke-width: 1.5"/>
    <path d="M 133.498037 687.872331 
L 135.155612 693.924583 
L 137.823098 704.780467 
" clip-path="url(#pe3b9f77e47)" style="fill: none; stroke: #f2b701; stroke-width: 1.5"/>
    <path d="M 137.823098 704.780467 
L 140.24901 697.119013 
L 155.710597 683.616579 
L 170.194816 667.462018 
L 197.483782 632.565858 
L 196.762843 627.199853 
L 191.593574 623.613089 
" clip-path="url(#pe3b9f77e47)" style="fill: none; stroke: #f2b701; stroke-width: 1.5"/>
    <path d="M 137.823098 704.780467 
L 158.941587 686.367888 
L 177.967842 664.045288 
L 202.9227 631.842708 
L 206.858645 626.95419 
" clip-path="url(#pe3b9f77e47)" style="fill: none; stroke: #f2b701; stroke-width: 1.5"/>
   </g>
   <g id="PathCollection_19">
    <g clip-path="url(#pe3b9f77e47)">
     <use xlink:href="#mcf59be65ed" x="137.823098" y="704.780467" style="fill: #d3d3d3; stroke: #000000"/>
    </g>
   </g>
   <g id="text_21">
    <!-- 4CCES -->
    <g transform="translate(150.019955 602.6666) scale(0.12 -0.12)">
     <use xlink:href="#DejaVuSans-34"/>
     <use xlink:href="#DejaVuSans-43" x="63.623047"/>
     <use xlink:href="#DejaVuSans-43" x="133.447266"/>
     <use xlink:href="#DejaVuSans-45" x="203.271484"/>
     <use xlink:href="#DejaVuSans-53" x="266.455078"/>
    </g>
   </g>
  </g>
  <g id="axes_27">
   <g id="PatchCollection_43">
    <path d="M 304.839847 679.56262 
L 302.650693 677.973181 
L 301.16495 677.294107 
L 298.264135 677.39702 
L 293.317787 678.185354 
L 290.898252 679.934652 
L 288.252655 681.271726 
L 285.679644 684.65491 
L 284.789066 687.155432 
L 283.321194 682.479769 
L 280.550897 680.301728 
L 277.991773 678.116195 
L 273.932639 674.740653 
L 269.603412 673.475906 
L 277.246928 665.903036 
L 281.005949 661.759866 
L 283.280217 659.052666 
L 286.30947 655.355625 
L 288.331902 645.863427 
L 302.213817 676.118738 
L 303.150707 677.347163 
L 304.839847 679.56262 
" clip-path="url(#p089598bc78)" style="fill: url(#h728746adfd)"/>
   </g>
   <g id="PatchCollection_44"/>
   <g id="LineCollection_22">
    <path d="M 304.839847 679.56262 
L 306.691817 681.638287 
L 313.503125 688.500614 
L 323.093336 694.471146 
" clip-path="url(#p089598bc78)" style="fill: none; stroke: #f2b701; stroke-width: 1.5"/>
    <path d="M 287.561943 710.574128 
L 287.335119 703.402063 
L 285.953873 696.149338 
L 284.789066 687.155432 
L 283.321194 682.479769 
L 280.550897 680.301728 
L 279.284949 679.220588 
" clip-path="url(#p089598bc78)" style="fill: none; stroke: #f2b701; stroke-width: 1.5"/>
    <path d="M 279.284949 679.220588 
L 286.731661 670.500948 
L 304.839847 679.56262 
" clip-path="url(#p089598bc78)" style="fill: none; stroke: #f2b701; stroke-width: 1.5"/>
    <path d="M 279.284949 679.220588 
L 277.991773 678.116195 
L 273.932639 674.740653 
L 269.603412 673.475906 
L 256.879327 673.034247 
L 246.118093 671.225975 
" clip-path="url(#p089598bc78)" style="fill: none; stroke: #f2b701; stroke-width: 1.5"/>
    <path d="M 321.890626 662.423276 
L 306.656122 679.222737 
L 304.839847 679.56262 
" clip-path="url(#p089598bc78)" style="fill: none; stroke: #f2b701; stroke-width: 1.5"/>
    <path d="M 280.542967 623.613089 
L 285.631175 638.745062 
L 288.331902 645.863427 
L 302.213817 676.118738 
L 303.150707 677.347163 
L 304.839847 679.56262 
" clip-path="url(#p089598bc78)" style="fill: none; stroke: #f2b701; stroke-width: 1.5"/>
   </g>
   <g id="PathCollection_20">
    <g clip-path="url(#p089598bc78)">
     <use xlink:href="#mcf59be65ed" x="304.839847" y="679.56262" style="fill: #d3d3d3; stroke: #000000"/>
     <use xlink:href="#mcf59be65ed" x="279.284949" y="679.220588" style="fill: #d3d3d3; stroke: #000000"/>
    </g>
   </g>
   <g id="text_22">
    <!-- 4CCSS -->
    <g transform="translate(264.790714 602.6666) scale(0.12 -0.12)">
     <use xlink:href="#DejaVuSans-34"/>
     <use xlink:href="#DejaVuSans-43" x="63.623047"/>
     <use xlink:href="#DejaVuSans-43" x="133.447266"/>
     <use xlink:href="#DejaVuSans-53" x="203.271484"/>
     <use xlink:href="#DejaVuSans-53" x="266.748047"/>
    </g>
   </g>
  </g>
  <g id="axes_28">
   <g id="PatchCollection_45">
    <path d="M 414.283167 668.715766 
L 403.896365 675.024212 
L 368.744344 696.171831 
L 367.550079 645.08144 
L 427.845281 653.550909 
L 414.283167 668.715766 
" clip-path="url(#pe4464805cb)" style="fill: url(#h728746adfd)"/>
   </g>
   <g id="PatchCollection_46"/>
   <g id="LineCollection_23">
    <path d="M 355.913766 704.270373 
L 368.744344 696.171831 
L 403.896365 675.024212 
L 414.283167 668.715766 
" clip-path="url(#pe4464805cb)" style="fill: none; stroke: #f2b701; stroke-width: 1.5"/>
    <path d="M 419.918823 683.066305 
L 420.864495 675.895718 
L 414.283167 668.715766 
" clip-path="url(#pe4464805cb)" style="fill: none; stroke: #f2b701; stroke-width: 1.5"/>
    <path d="M 427.845281 653.550909 
L 414.283167 668.715766 
" clip-path="url(#pe4464805cb)" style="fill: none; stroke: #f2b701; stroke-width: 1.5"/>
    <path d="M 442.874805 655.739224 
L 427.845281 653.550909 
" clip-path="url(#pe4464805cb)" style="fill: none; stroke: #f2b701; stroke-width: 1.5"/>
    <path d="M 366.694393 629.916844 
L 367.550079 645.08144 
L 385.652355 665.43293 
L 407.773755 660.901307 
L 414.283167 668.715766 
" clip-path="url(#pe4464805cb)" style="fill: none; stroke: #f2b701; stroke-width: 1.5"/>
    <path d="M 427.845281 653.550909 
L 431.274613 638.75887 
" clip-path="url(#pe4464805cb)" style="fill: none; stroke: #f2b701; stroke-width: 1.5"/>
   </g>
   <g id="PathCollection_21">
    <g clip-path="url(#pe4464805cb)">
     <use xlink:href="#mcf59be65ed" x="414.283167" y="668.715766" style="fill: #d3d3d3; stroke: #000000"/>
     <use xlink:href="#mcf59be65ed" x="427.845281" y="653.550909" style="fill: #d3d3d3; stroke: #000000"/>
    </g>
   </g>
   <g id="text_23">
    <!-- 4CEE -->
    <g transform="translate(383.804598 602.6666) scale(0.12 -0.12)">
     <use xlink:href="#DejaVuSans-34"/>
     <use xlink:href="#DejaVuSans-43" x="63.623047"/>
     <use xlink:href="#DejaVuSans-45" x="133.447266"/>
     <use xlink:href="#DejaVuSans-45" x="196.630859"/>
    </g>
   </g>
  </g>
  <g id="axes_29">
   <g id="PatchCollection_47">
    <path d="M 507.265982 680.480168 
L 509.870184 663.611093 
L 512.474609 648.870213 
L 519.287601 661.050628 
L 525.038982 673.380032 
L 514.486582 686.299826 
L 507.265982 680.480168 
" clip-path="url(#pf7bcdc5510)" style="fill: url(#h728746adfd)"/>
   </g>
   <g id="PatchCollection_48"/>
   <g id="LineCollection_24">
    <path d="M 507.102874 710.574128 
L 508.960362 703.94597 
L 514.486582 686.299826 
L 525.038982 673.380032 
" clip-path="url(#pf7bcdc5510)" style="fill: none; stroke: #f2b701; stroke-width: 1.5"/>
    <path d="M 525.038982 673.380032 
L 532.286177 681.044473 
L 539.074599 685.428571 
L 546.354776 687.137896 
" clip-path="url(#pf7bcdc5510)" style="fill: none; stroke: #f2b701; stroke-width: 1.5"/>
    <path d="M 517.320546 677.407863 
L 525.038982 673.380032 
" clip-path="url(#pf7bcdc5510)" style="fill: none; stroke: #f2b701; stroke-width: 1.5"/>
    <path d="M 482.010939 682.707112 
L 507.265982 680.480168 
L 517.320546 677.407863 
" clip-path="url(#pf7bcdc5510)" style="fill: none; stroke: #f2b701; stroke-width: 1.5"/>
    <path d="M 510.244557 623.613089 
L 512.474609 648.870213 
L 517.320546 677.407863 
" clip-path="url(#pf7bcdc5510)" style="fill: none; stroke: #f2b701; stroke-width: 1.5"/>
    <path d="M 545.708405 657.649718 
L 533.035499 666.027472 
L 525.038982 673.380032 
" clip-path="url(#pf7bcdc5510)" style="fill: none; stroke: #f2b701; stroke-width: 1.5"/>
   </g>
   <g id="PathCollection_22">
    <g clip-path="url(#pf7bcdc5510)">
     <use xlink:href="#mcf59be65ed" x="517.320546" y="677.407863" style="fill: #d3d3d3; stroke: #000000"/>
     <use xlink:href="#mcf59be65ed" x="525.038982" y="673.380032" style="fill: #d3d3d3; stroke: #000000"/>
    </g>
   </g>
   <g id="text_24">
    <!-- 4CEEE -->
    <g transform="translate(494.80192 602.6666) scale(0.12 -0.12)">
     <use xlink:href="#DejaVuSans-34"/>
     <use xlink:href="#DejaVuSans-43" x="63.623047"/>
     <use xlink:href="#DejaVuSans-45" x="133.447266"/>
     <use xlink:href="#DejaVuSans-45" x="196.630859"/>
     <use xlink:href="#DejaVuSans-45" x="259.814453"/>
    </g>
   </g>
  </g>
  <g id="axes_30">
   <g id="PatchCollection_49">
    <path d="M 638.675828 688.919024 
L 626.435515 684.18872 
L 621.812797 683.345284 
L 624.904281 642.277611 
L 645.736441 662.715283 
L 643.614232 670.608797 
L 638.675828 688.919024 
" clip-path="url(#p13b611db2c)" style="fill: url(#h728746adfd)"/>
   </g>
   <g id="PatchCollection_50"/>
   <g id="LineCollection_25">
    <path d="M 604.61464 696.591692 
L 613.995061 686.270841 
L 621.812797 683.345284 
L 638.020805 673.950193 
" clip-path="url(#p13b611db2c)" style="fill: none; stroke: #f2b701; stroke-width: 1.5"/>
    <path d="M 636.919296 710.574128 
L 638.675828 688.919024 
L 642.298854 675.485854 
" clip-path="url(#p13b611db2c)" style="fill: none; stroke: #f2b701; stroke-width: 1.5"/>
    <path d="M 638.020805 673.950193 
L 642.298854 675.485854 
" clip-path="url(#p13b611db2c)" style="fill: none; stroke: #f2b701; stroke-width: 1.5"/>
    <path d="M 613.810795 623.613089 
L 618.133373 630.379119 
L 620.628492 633.503986 
L 624.904281 642.277611 
L 638.020805 673.950193 
" clip-path="url(#p13b611db2c)" style="fill: none; stroke: #f2b701; stroke-width: 1.5"/>
    <path d="M 642.298854 675.485854 
L 643.614232 670.608797 
L 645.736441 662.715283 
L 653.328218 639.716323 
" clip-path="url(#p13b611db2c)" style="fill: none; stroke: #f2b701; stroke-width: 1.5"/>
   </g>
   <g id="PathCollection_23">
    <g clip-path="url(#p13b611db2c)">
     <use xlink:href="#mcf59be65ed" x="642.298854" y="675.485854" style="fill: #d3d3d3; stroke: #000000"/>
     <use xlink:href="#mcf59be65ed" x="638.020805" y="673.950193" style="fill: #d3d3d3; stroke: #000000"/>
    </g>
   </g>
   <g id="text_25">
    <!-- 4CEES -->
    <g transform="translate(609.572679 602.6666) scale(0.12 -0.12)">
     <use xlink:href="#DejaVuSans-34"/>
     <use xlink:href="#DejaVuSans-43" x="63.623047"/>
     <use xlink:href="#DejaVuSans-45" x="133.447266"/>
     <use xlink:href="#DejaVuSans-45" x="196.630859"/>
     <use xlink:href="#DejaVuSans-53" x="259.814453"/>
    </g>
   </g>
  </g>
  <g id="axes_31">
   <g id="PatchCollection_51">
    <path d="M 89.921427 811.533434 
L 84.706041 815.878496 
L 78.41026 820.291375 
L 67.472148 824.049682 
L 33.358683 831.267088 
L 28.079271 830.336365 
L 15.946027 819.674266 
L 73.487992 806.35038 
L 78.624049 803.001542 
L 93.749814 806.633631 
L 89.921427 811.533434 
" clip-path="url(#pe422558408)" style="fill: url(#h728746adfd)"/>
   </g>
   <g id="PatchCollection_52"/>
   <g id="LineCollection_26">
    <path d="M 75.933954 828.430276 
L 75.994451 827.472672 
L 79.049309 822.668409 
L 89.728979 815.760878 
L 89.921427 811.533434 
" clip-path="url(#pe422558408)" style="fill: none; stroke: #f2b701; stroke-width: 1.5"/>
    <path d="M 73.602375 796.094366 
L 78.624049 803.001542 
L 79.934285 810.588981 
L 87.215027 808.910682 
L 89.921427 811.533434 
" clip-path="url(#pe422558408)" style="fill: none; stroke: #f2b701; stroke-width: 1.5"/>
    <path d="M 89.921427 811.533434 
L 93.749814 806.633631 
L 98.509091 799.568936 
" clip-path="url(#pe422558408)" style="fill: none; stroke: #f2b701; stroke-width: 1.5"/>
    <path d="M 11.548052 812.373548 
L 15.946027 819.674266 
L 28.079271 830.336365 
L 33.358683 831.267088 
L 67.472148 824.049682 
L 78.41026 820.291375 
L 84.706041 815.878496 
L 89.921427 811.533434 
" clip-path="url(#pe422558408)" style="fill: none; stroke: #f2b701; stroke-width: 1.5"/>
   </g>
   <g id="PathCollection_24">
    <g clip-path="url(#pe422558408)">
     <use xlink:href="#mcf59be65ed" x="75.933954" y="828.430276" style="fill: #d3d3d3; stroke: #000000"/>
     <use xlink:href="#mcf59be65ed" x="89.921427" y="811.533434" style="fill: #d3d3d3; stroke: #000000"/>
    </g>
   </g>
   <g id="text_26">
    <!-- 4CES -->
    <g transform="translate(39.421071 749.253718) scale(0.12 -0.12)">
     <use xlink:href="#DejaVuSans-34"/>
     <use xlink:href="#DejaVuSans-43" x="63.623047"/>
     <use xlink:href="#DejaVuSans-45" x="133.447266"/>
     <use xlink:href="#DejaVuSans-53" x="196.630859"/>
    </g>
   </g>
  </g>
  <g id="axes_32">
   <g id="PatchCollection_53">
    <path d="M 168.758715 827.376319 
L 161.782304 820.38242 
L 156.411339 808.163615 
L 156.970117 798.240009 
L 162.218707 795.472461 
L 169.811052 795.600597 
L 176.257983 803.073907 
L 180.311996 813.464349 
L 180.452242 823.827558 
L 175.805932 827.500107 
L 168.758715 827.376319 
" clip-path="url(#p33dd871832)" style="fill: url(#h728746adfd)"/>
   </g>
   <g id="PatchCollection_54"/>
   <g id="LineCollection_27">
    <path d="M 162.991443 812.756769 
L 180.452242 823.827558 
L 196.821554 835.623828 
L 202.944547 840.862377 
L 203.969921 841.850272 
" clip-path="url(#p33dd871832)" style="fill: none; stroke: #f2b701; stroke-width: 1.5"/>
    <path d="M 175.33044 857.161247 
L 173.507969 849.300643 
L 168.758715 827.376319 
L 161.782304 820.38242 
L 159.166285 814.431045 
" clip-path="url(#p33dd871832)" style="fill: none; stroke: #f2b701; stroke-width: 1.5"/>
    <path d="M 159.166285 814.431045 
L 162.991443 812.756769 
" clip-path="url(#p33dd871832)" style="fill: none; stroke: #f2b701; stroke-width: 1.5"/>
    <path d="M 185.079254 770.200208 
L 175.604357 785.925563 
L 169.811052 795.600597 
L 162.991443 812.756769 
" clip-path="url(#p33dd871832)" style="fill: none; stroke: #f2b701; stroke-width: 1.5"/>
    <path d="M 135.664364 777.610532 
L 139.369513 782.081143 
L 143.652591 787.467401 
L 156.970117 798.240009 
L 156.411339 808.163615 
L 159.166285 814.431045 
" clip-path="url(#p33dd871832)" style="fill: none; stroke: #f2b701; stroke-width: 1.5"/>
   </g>
   <g id="PathCollection_25">
    <g clip-path="url(#p33dd871832)">
     <use xlink:href="#mcf59be65ed" x="159.166285" y="814.431045" style="fill: #d3d3d3; stroke: #000000"/>
     <use xlink:href="#mcf59be65ed" x="162.991443" y="812.756769" style="fill: #d3d3d3; stroke: #000000"/>
    </g>
   </g>
   <g id="text_27">
    <!-- 4CS -->
    <g transform="translate(158.000893 749.253718) scale(0.12 -0.12)">
     <use xlink:href="#DejaVuSans-34"/>
     <use xlink:href="#DejaVuSans-43" x="63.623047"/>
     <use xlink:href="#DejaVuSans-53" x="133.447266"/>
    </g>
   </g>
  </g>
  <g id="axes_33">
   <g id="PatchCollection_55">
    <path d="M 275.03793 837.530295 
L 273.346523 835.334296 
L 270.041953 819.569783 
L 272.190293 803.225664 
L 277.759175 794.955622 
L 287.36953 793.566256 
L 294.129555 799.561245 
L 297.44669 812.663853 
L 297.084083 821.406456 
L 293.621229 832.475028 
L 285.537552 838.259359 
L 275.03793 837.530295 
" clip-path="url(#p7132cea010)" style="fill: url(#h728746adfd)"/>
   </g>
   <g id="PatchCollection_56"/>
   <g id="LineCollection_28">
    <path d="M 308.424781 857.161247 
L 293.621229 832.475028 
L 283.619413 816.278818 
" clip-path="url(#p7132cea010)" style="fill: none; stroke: #f2b701; stroke-width: 1.5"/>
    <path d="M 250.47854 852.644239 
L 275.03793 837.530295 
L 283.619413 816.278818 
" clip-path="url(#p7132cea010)" style="fill: none; stroke: #f2b701; stroke-width: 1.5"/>
    <path d="M 263.289214 770.200208 
L 277.759175 794.955622 
L 283.619413 816.278818 
" clip-path="url(#p7132cea010)" style="fill: none; stroke: #f2b701; stroke-width: 1.5"/>
    <path d="M 318.732889 784.820305 
L 294.129555 799.561245 
L 283.619413 816.278818 
" clip-path="url(#p7132cea010)" style="fill: none; stroke: #f2b701; stroke-width: 1.5"/>
   </g>
   <g id="PathCollection_26">
    <g clip-path="url(#p7132cea010)">
     <use xlink:href="#mcf59be65ed" x="283.619413" y="816.278818" style="fill: #d3d3d3; stroke: #000000"/>
    </g>
   </g>
   <g id="text_28">
    <!-- 4E -->
    <g transform="translate(276.996964 749.253718) scale(0.12 -0.12)">
     <use xlink:href="#DejaVuSans-34"/>
     <use xlink:href="#DejaVuSans-45" x="63.623047"/>
    </g>
   </g>
  </g>
  <g id="axes_34">
   <g id="PatchCollection_57">
    <path d="M 370.069995 801.013567 
L 405.762657 802.230172 
L 428.806061 827.381827 
L 394.744565 825.133866 
L 370.069995 801.013567 
" clip-path="url(#pdf075b7b2e)" style="fill: url(#h728746adfd)"/>
   </g>
   <g id="PatchCollection_58"/>
   <g id="LineCollection_29">
    <path d="M 388.431882 838.995625 
L 394.744565 825.133866 
L 399.826178 813.784071 
" clip-path="url(#pdf075b7b2e)" style="fill: none; stroke: #f2b701; stroke-width: 1.5"/>
    <path d="M 442.874805 833.220068 
L 428.806061 827.381827 
L 399.826178 813.784071 
" clip-path="url(#pdf075b7b2e)" style="fill: none; stroke: #f2b701; stroke-width: 1.5"/>
    <path d="M 355.913766 795.379577 
L 370.069995 801.013567 
L 399.826178 813.784071 
" clip-path="url(#pdf075b7b2e)" style="fill: none; stroke: #f2b701; stroke-width: 1.5"/>
    <path d="M 399.826178 813.784071 
L 405.762657 802.230172 
L 412.111801 788.36583 
" clip-path="url(#pdf075b7b2e)" style="fill: none; stroke: #f2b701; stroke-width: 1.5"/>
   </g>
   <g id="PathCollection_27">
    <g clip-path="url(#pdf075b7b2e)">
     <use xlink:href="#mcf59be65ed" x="399.826178" y="813.784071" style="fill: #d3d3d3; stroke: #000000"/>
    </g>
   </g>
   <g id="text_29">
    <!-- 4EE -->
    <g transform="translate(387.994286 749.253718) scale(0.12 -0.12)">
     <use xlink:href="#DejaVuSans-34"/>
     <use xlink:href="#DejaVuSans-45" x="63.623047"/>
     <use xlink:href="#DejaVuSans-45" x="126.806641"/>
    </g>
   </g>
  </g>
  <g id="axes_35">
   <g id="PatchCollection_59">
    <path d="M 496.308969 821.28427 
L 493.753079 810.696299 
L 494.959175 802.516706 
L 508.431241 798.950748 
L 523.553739 800.838089 
L 531.051294 803.624772 
L 533.780454 812.404294 
L 531.43269 820.29643 
L 496.308969 821.28427 
" clip-path="url(#pe78b4634d7)" style="fill: url(#h728746adfd)"/>
   </g>
   <g id="PatchCollection_60"/>
   <g id="LineCollection_30">
    <path d="M 513.207135 810.721352 
L 496.308969 821.28427 
L 494.074794 833.253591 
L 497.562007 846.841756 
" clip-path="url(#pe78b4634d7)" style="fill: none; stroke: #f2b701; stroke-width: 1.5"/>
    <path d="M 513.207135 810.721352 
L 531.43269 820.29643 
L 542.283813 821.23356 
L 557.663377 821.842409 
" clip-path="url(#pe78b4634d7)" style="fill: none; stroke: #f2b701; stroke-width: 1.5"/>
    <path d="M 470.702338 794.449396 
L 475.12086 794.644134 
L 494.959175 802.516706 
L 513.207135 810.721352 
" clip-path="url(#pe78b4634d7)" style="fill: none; stroke: #f2b701; stroke-width: 1.5"/>
    <path d="M 541.995537 780.519699 
L 531.051294 803.624772 
L 513.207135 810.721352 
" clip-path="url(#pe78b4634d7)" style="fill: none; stroke: #f2b701; stroke-width: 1.5"/>
   </g>
   <g id="PathCollection_28">
    <g clip-path="url(#pe78b4634d7)">
     <use xlink:href="#mcf59be65ed" x="513.207135" y="810.721352" style="fill: #d3d3d3; stroke: #000000"/>
    </g>
   </g>
   <g id="text_30">
    <!-- 4EEEE -->
    <g transform="translate(495.200357 749.253718) scale(0.12 -0.12)">
     <use xlink:href="#DejaVuSans-34"/>
     <use xlink:href="#DejaVuSans-45" x="63.623047"/>
     <use xlink:href="#DejaVuSans-45" x="126.806641"/>
     <use xlink:href="#DejaVuSans-45" x="189.990234"/>
     <use xlink:href="#DejaVuSans-45" x="253.173828"/>
    </g>
   </g>
  </g>
  <g id="axes_36">
   <g id="PatchCollection_61">
    <path d="M 614.438549 827.665996 
L 608.586226 814.430713 
L 614.130781 801.038977 
L 629.6623 795.965088 
L 643.179482 805.126035 
L 645.376839 816.933872 
L 639.835467 827.552634 
L 627.150643 832.650515 
L 614.438549 827.665996 
" clip-path="url(#pca214eb720)" style="fill: url(#h728746adfd)"/>
   </g>
   <g id="PatchCollection_62"/>
   <g id="LineCollection_31">
    <path d="M 627.188805 814.424608 
L 614.438549 827.665996 
L 585.490909 851.867873 
" clip-path="url(#pca214eb720)" style="fill: none; stroke: #f2b701; stroke-width: 1.5"/>
    <path d="M 627.188805 814.424608 
L 639.835467 827.552634 
L 665.174098 855.4732 
" clip-path="url(#pca214eb720)" style="fill: none; stroke: #f2b701; stroke-width: 1.5"/>
    <path d="M 590.16962 771.888254 
L 614.130781 801.038977 
L 627.188805 814.424608 
" clip-path="url(#pca214eb720)" style="fill: none; stroke: #f2b701; stroke-width: 1.5"/>
    <path d="M 627.188805 814.424608 
L 643.179482 805.126035 
L 672.451948 781.298952 
" clip-path="url(#pca214eb720)" style="fill: none; stroke: #f2b701; stroke-width: 1.5"/>
   </g>
   <g id="PathCollection_29">
    <g clip-path="url(#pca214eb720)">
     <use xlink:href="#mcf59be65ed" x="627.188805" y="814.424608" style="fill: #d3d3d3; stroke: #000000"/>
    </g>
   </g>
   <g id="text_31">
    <!-- 4S -->
    <g transform="translate(621.344866 749.253718) scale(0.12 -0.12)">
     <use xlink:href="#DejaVuSans-34"/>
     <use xlink:href="#DejaVuSans-53" x="63.623047"/>
    </g>
   </g>
  </g>
  <g id="axes_37">
   <g id="PatchCollection_63">
    <path d="M 33.326588 940.913106 
L 36.02589 939.913539 
L 45.34628 936.851511 
L 51.602251 943.900821 
L 55.593611 948.457367 
L 86.76203 970.017388 
L 72.163267 981.966476 
L 62.731358 977.442915 
L 23.983043 958.165904 
L 33.326588 940.913106 
" clip-path="url(#p6022253147)" style="fill: url(#h728746adfd)"/>
   </g>
   <g id="PatchCollection_64"/>
   <g id="LineCollection_32">
    <path d="M 72.163267 981.966476 
L 70.814346 994.579274 
L 71.720413 995.974072 
" clip-path="url(#p6022253147)" style="fill: none; stroke: #f2b701; stroke-width: 1.5"/>
    <path d="M 72.163267 981.966476 
L 60.92004 989.894799 
L 59.059666 991.241678 
" clip-path="url(#p6022253147)" style="fill: none; stroke: #f2b701; stroke-width: 1.5"/>
    <path d="M 85.377099 989.280903 
L 81.547406 987.21003 
L 72.163267 981.966476 
" clip-path="url(#p6022253147)" style="fill: none; stroke: #f2b701; stroke-width: 1.5"/>
    <path d="M 72.163267 981.966476 
L 70.808996 970.661855 
L 41.731427 951.545467 
" clip-path="url(#p6022253147)" style="fill: none; stroke: #f2b701; stroke-width: 1.5"/>
    <path d="M 98.509091 962.349611 
L 86.76203 970.017388 
L 72.163267 981.966476 
" clip-path="url(#p6022253147)" style="fill: none; stroke: #f2b701; stroke-width: 1.5"/>
    <path d="M 72.163267 981.966476 
L 62.731358 977.442915 
L 23.983043 958.165904 
L 11.548052 951.690378 
" clip-path="url(#p6022253147)" style="fill: none; stroke: #f2b701; stroke-width: 1.5"/>
    <path d="M 41.731427 951.545467 
L 45.34628 936.851511 
L 52.079173 924.56162 
" clip-path="url(#p6022253147)" style="fill: none; stroke: #f2b701; stroke-width: 1.5"/>
    <path d="M 20.996206 934.221719 
L 33.326588 940.913106 
L 41.731427 951.545467 
" clip-path="url(#p6022253147)" style="fill: none; stroke: #f2b701; stroke-width: 1.5"/>
   </g>
   <g id="PathCollection_30">
    <g clip-path="url(#p6022253147)">
     <use xlink:href="#mcf59be65ed" x="72.163267" y="981.966476" style="fill: #d3d3d3; stroke: #000000"/>
     <use xlink:href="#mcf59be65ed" x="41.731427" y="951.545467" style="fill: #d3d3d3; stroke: #000000"/>
    </g>
   </g>
   <g id="text_32">
    <!-- 5CCES -->
    <g transform="translate(35.231384 895.840837) scale(0.12 -0.12)">
     <defs>
      <path id="DejaVuSans-35" d="M 691 4666 
L 3169 4666 
L 3169 4134 
L 1269 4134 
L 1269 2991 
Q 1406 3038 1543 3061 
Q 1681 3084 1819 3084 
Q 2600 3084 3056 2656 
Q 3513 2228 3513 1497 
Q 3513 744 3044 326 
Q 2575 -91 1722 -91 
Q 1428 -91 1123 -41 
Q 819 9 494 109 
L 494 744 
Q 775 591 1075 516 
Q 1375 441 1709 441 
Q 2250 441 2565 725 
Q 2881 1009 2881 1497 
Q 2881 1984 2565 2268 
Q 2250 2553 1709 2553 
Q 1456 2553 1204 2497 
Q 953 2441 691 2322 
L 691 4666 
z
" transform="scale(0.015625)"/>
     </defs>
     <use xlink:href="#DejaVuSans-35"/>
     <use xlink:href="#DejaVuSans-43" x="63.623047"/>
     <use xlink:href="#DejaVuSans-43" x="133.447266"/>
     <use xlink:href="#DejaVuSans-45" x="203.271484"/>
     <use xlink:href="#DejaVuSans-53" x="266.455078"/>
    </g>
   </g>
  </g>
  <g id="axes_38">
   <g id="PatchCollection_65">
    <path d="M 158.09073 992.774352 
L 148.247773 985.997493 
L 137.471255 978.410647 
L 176.942964 941.27364 
L 176.296091 938.287775 
L 199.281283 933.030331 
L 202.782068 948.648055 
L 194.380841 957.135493 
L 162.290833 988.267894 
L 158.09073 992.774352 
" clip-path="url(#p8659c4f447)" style="fill: url(#h728746adfd)"/>
   </g>
   <g id="PatchCollection_66"/>
   <g id="LineCollection_33">
    <path d="M 149.686714 986.988201 
L 158.09073 992.774352 
L 168.753966 999.244273 
" clip-path="url(#p8659c4f447)" style="fill: none; stroke: #f2b701; stroke-width: 1.5"/>
    <path d="M 204.716367 964.052761 
L 202.782068 948.648055 
" clip-path="url(#p8659c4f447)" style="fill: none; stroke: #f2b701; stroke-width: 1.5"/>
    <path d="M 149.686714 986.988201 
L 156.531035 977.04726 
L 189.068038 946.744368 
" clip-path="url(#p8659c4f447)" style="fill: none; stroke: #f2b701; stroke-width: 1.5"/>
    <path d="M 126.336623 973.397756 
L 137.471255 978.410647 
L 148.247773 985.997493 
L 149.686714 986.988201 
" clip-path="url(#p8659c4f447)" style="fill: none; stroke: #f2b701; stroke-width: 1.5"/>
    <path d="M 202.782068 948.648055 
L 209.842216 950.882852 
L 213.297662 954.826738 
" clip-path="url(#p8659c4f447)" style="fill: none; stroke: #f2b701; stroke-width: 1.5"/>
    <path d="M 202.782068 948.648055 
L 189.068038 946.744368 
" clip-path="url(#p8659c4f447)" style="fill: none; stroke: #f2b701; stroke-width: 1.5"/>
    <path d="M 168.514136 928.889252 
L 176.296091 938.287775 
L 189.068038 946.744368 
" clip-path="url(#p8659c4f447)" style="fill: none; stroke: #f2b701; stroke-width: 1.5"/>
    <path d="M 202.782068 948.648055 
L 199.281283 933.030331 
L 195.835279 921.291419 
" clip-path="url(#p8659c4f447)" style="fill: none; stroke: #f2b701; stroke-width: 1.5"/>
   </g>
   <g id="PathCollection_31">
    <g clip-path="url(#p8659c4f447)">
     <use xlink:href="#mcf59be65ed" x="149.686714" y="986.988201" style="fill: #d3d3d3; stroke: #000000"/>
     <use xlink:href="#mcf59be65ed" x="202.782068" y="948.648055" style="fill: #d3d3d3; stroke: #000000"/>
     <use xlink:href="#mcf59be65ed" x="189.068038" y="946.744368" style="fill: #d3d3d3; stroke: #000000"/>
    </g>
   </g>
   <g id="text_33">
    <!-- 5CCESS -->
    <g transform="translate(146.210893 895.840837) scale(0.12 -0.12)">
     <use xlink:href="#DejaVuSans-35"/>
     <use xlink:href="#DejaVuSans-43" x="63.623047"/>
     <use xlink:href="#DejaVuSans-43" x="133.447266"/>
     <use xlink:href="#DejaVuSans-45" x="203.271484"/>
     <use xlink:href="#DejaVuSans-53" x="266.455078"/>
     <use xlink:href="#DejaVuSans-53" x="329.931641"/>
    </g>
   </g>
  </g>
  <g id="axes_39">
   <g id="PatchCollection_67">
    <path d="M 272.892524 983.672453 
L 269.241521 980.872434 
L 256.767848 958.904591 
L 263.49341 954.397612 
L 296.386203 934.554665 
L 300.468074 942.931319 
L 305.619511 951.366334 
L 309.942904 956.214805 
L 285.45148 974.499283 
L 272.892524 983.672453 
" clip-path="url(#p3051e67301)" style="fill: url(#h728746adfd)"/>
   </g>
   <g id="PatchCollection_68"/>
   <g id="LineCollection_34">
    <path d="M 257.568126 994.865423 
L 259.44594 992.821648 
L 272.892524 983.672453 
L 280.707005 977.964689 
" clip-path="url(#p3051e67301)" style="fill: none; stroke: #f2b701; stroke-width: 1.5"/>
    <path d="M 241.125195 968.306109 
L 256.767848 958.904591 
L 263.49341 954.397612 
" clip-path="url(#p3051e67301)" style="fill: none; stroke: #f2b701; stroke-width: 1.5"/>
    <path d="M 263.49341 954.397612 
L 280.707005 977.964689 
" clip-path="url(#p3051e67301)" style="fill: none; stroke: #f2b701; stroke-width: 1.5"/>
    <path d="M 280.707005 977.964689 
L 285.45148 974.499283 
L 309.942904 956.214805 
L 317.126543 955.807818 
L 328.086234 954.510038 
" clip-path="url(#p3051e67301)" style="fill: none; stroke: #f2b701; stroke-width: 1.5"/>
    <path d="M 247.307164 943.281702 
L 249.634398 943.835533 
L 263.49341 954.397612 
" clip-path="url(#p3051e67301)" style="fill: none; stroke: #f2b701; stroke-width: 1.5"/>
    <path d="M 312.297452 925.670268 
L 296.386203 934.554665 
L 263.49341 954.397612 
" clip-path="url(#p3051e67301)" style="fill: none; stroke: #f2b701; stroke-width: 1.5"/>
   </g>
   <g id="PathCollection_32">
    <g clip-path="url(#p3051e67301)">
     <use xlink:href="#mcf59be65ed" x="280.707005" y="977.964689" style="fill: #d3d3d3; stroke: #000000"/>
     <use xlink:href="#mcf59be65ed" x="263.49341" y="954.397612" style="fill: #d3d3d3; stroke: #000000"/>
    </g>
   </g>
   <g id="text_34">
    <!-- 5CCSS -->
    <g transform="translate(264.790714 895.840837) scale(0.12 -0.12)">
     <use xlink:href="#DejaVuSans-35"/>
     <use xlink:href="#DejaVuSans-43" x="63.623047"/>
     <use xlink:href="#DejaVuSans-43" x="133.447266"/>
     <use xlink:href="#DejaVuSans-53" x="203.271484"/>
     <use xlink:href="#DejaVuSans-53" x="266.748047"/>
    </g>
   </g>
  </g>
  <g id="axes_40">
   <g id="PatchCollection_69">
    <path d="M 366.373284 980.679913 
L 366.339911 977.72031 
L 366.690849 975.216204 
L 368.134585 972.526747 
L 411.730034 944.409557 
L 415.463574 940.987108 
L 431.382315 956.098173 
L 433.512006 957.972963 
L 428.618537 961.500389 
L 415.740574 966.612925 
L 385.423403 976.160732 
L 377.890825 977.794329 
L 366.373284 980.679913 
" clip-path="url(#p292b294bd5)" style="fill: url(#h728746adfd)"/>
   </g>
   <g id="PatchCollection_70"/>
   <g id="LineCollection_35">
    <path d="M 389.411952 987.895469 
L 385.423403 976.160732 
L 383.802242 969.995597 
" clip-path="url(#p292b294bd5)" style="fill: none; stroke: #f2b701; stroke-width: 1.5"/>
    <path d="M 355.913766 987.294105 
L 366.373284 980.679913 
L 371.144196 975.363568 
L 383.802242 969.995597 
" clip-path="url(#p292b294bd5)" style="fill: none; stroke: #f2b701; stroke-width: 1.5"/>
    <path d="M 431.382315 956.098173 
L 433.512006 957.972963 
L 439.373286 963.385927 
L 442.874805 966.068046 
" clip-path="url(#p292b294bd5)" style="fill: none; stroke: #f2b701; stroke-width: 1.5"/>
    <path d="M 431.382315 956.098173 
L 429.836074 957.708542 
L 414.820826 955.315166 
L 383.802242 969.995597 
" clip-path="url(#p292b294bd5)" style="fill: none; stroke: #f2b701; stroke-width: 1.5"/>
    <path d="M 406.232066 932.640222 
L 411.146202 937.083226 
L 415.463574 940.987108 
L 431.382315 956.098173 
" clip-path="url(#p292b294bd5)" style="fill: none; stroke: #f2b701; stroke-width: 1.5"/>
    <path d="M 439.059945 946.301635 
L 434.443764 952.184313 
L 431.382315 956.098173 
" clip-path="url(#p292b294bd5)" style="fill: none; stroke: #f2b701; stroke-width: 1.5"/>
   </g>
   <g id="PathCollection_33">
    <g clip-path="url(#p292b294bd5)">
     <use xlink:href="#mcf59be65ed" x="383.802242" y="969.995597" style="fill: #d3d3d3; stroke: #000000"/>
     <use xlink:href="#mcf59be65ed" x="431.382315" y="956.098173" style="fill: #d3d3d3; stroke: #000000"/>
    </g>
   </g>
   <g id="text_35">
    <!-- 5CEE -->
    <g transform="translate(383.804598 895.840837) scale(0.12 -0.12)">
     <use xlink:href="#DejaVuSans-35"/>
     <use xlink:href="#DejaVuSans-43" x="63.623047"/>
     <use xlink:href="#DejaVuSans-45" x="133.447266"/>
     <use xlink:href="#DejaVuSans-45" x="196.630859"/>
    </g>
   </g>
  </g>
  <g id="axes_41">
   <g id="PatchCollection_71">
    <path d="M 507.703762 990.058638 
L 505.26604 986.304445 
L 503.669784 979.263843 
L 500.142326 944.422171 
L 501.569697 936.509223 
L 505.356361 932.704136 
L 512.851627 931.501556 
L 516.472002 935.785114 
L 518.499722 949.248584 
L 520.609557 967.501922 
L 520.729897 968.561585 
L 521.147123 985.250341 
L 517.207683 987.86529 
L 513.145345 989.74968 
L 507.703762 990.058638 
" clip-path="url(#p3d79b10b2b)" style="fill: url(#h728746adfd)"/>
   </g>
   <g id="PatchCollection_72"/>
   <g id="LineCollection_36">
    <path d="M 502.176389 1003.748365 
L 506.801898 993.412939 
L 507.703762 990.058638 
L 512.640873 980.719278 
L 511.630521 968.314966 
" clip-path="url(#p3d79b10b2b)" style="fill: none; stroke: #f2b701; stroke-width: 1.5"/>
    <path d="M 531.186263 996.072503 
L 525.087119 989.500899 
L 521.147123 985.250341 
L 520.729897 968.561585 
L 520.609557 967.501922 
" clip-path="url(#p3d79b10b2b)" style="fill: none; stroke: #f2b701; stroke-width: 1.5"/>
    <path d="M 535.364233 966.446007 
L 531.081088 966.273082 
L 525.444403 966.786224 
L 520.609557 967.501922 
" clip-path="url(#p3d79b10b2b)" style="fill: none; stroke: #f2b701; stroke-width: 1.5"/>
    <path d="M 511.630521 968.314966 
L 520.609557 967.501922 
" clip-path="url(#p3d79b10b2b)" style="fill: none; stroke: #f2b701; stroke-width: 1.5"/>
    <path d="M 514.041538 916.787326 
L 513.652114 921.592315 
L 512.851627 931.501556 
L 516.472002 935.785114 
L 518.499722 949.248584 
L 520.609557 967.501922 
" clip-path="url(#p3d79b10b2b)" style="fill: none; stroke: #f2b701; stroke-width: 1.5"/>
    <path d="M 493.001482 924.166721 
L 495.034889 929.200829 
L 501.569697 936.509223 
L 509.041735 940.405923 
L 511.630521 968.314966 
" clip-path="url(#p3d79b10b2b)" style="fill: none; stroke: #f2b701; stroke-width: 1.5"/>
   </g>
   <g id="PathCollection_34">
    <g clip-path="url(#p3d79b10b2b)">
     <use xlink:href="#mcf59be65ed" x="511.630521" y="968.314966" style="fill: #d3d3d3; stroke: #000000"/>
     <use xlink:href="#mcf59be65ed" x="520.609557" y="967.501922" style="fill: #d3d3d3; stroke: #000000"/>
    </g>
   </g>
   <g id="text_36">
    <!-- 5CES -->
    <g transform="translate(498.575357 895.840837) scale(0.12 -0.12)">
     <use xlink:href="#DejaVuSans-35"/>
     <use xlink:href="#DejaVuSans-43" x="63.623047"/>
     <use xlink:href="#DejaVuSans-45" x="133.447266"/>
     <use xlink:href="#DejaVuSans-53" x="196.630859"/>
    </g>
   </g>
  </g>
  <g id="axes_42">
   <g id="PatchCollection_73">
    <path d="M 611.081021 967.625904 
L 609.971957 960.1984 
L 612.00624 952.975556 
L 618.469851 944.584401 
L 620.585996 944.944579 
L 627.954314 943.195953 
L 633.05042 944.123137 
L 640.237203 948.223947 
L 644.827568 955.091376 
L 645.184876 966.507056 
L 638.590246 975.814015 
L 627.694245 979.292964 
L 617.576924 976.009833 
L 611.081021 967.625904 
" clip-path="url(#pdd82a8abf8)" style="fill: url(#h728746adfd)"/>
   </g>
   <g id="PatchCollection_74"/>
   <g id="LineCollection_37">
    <path d="M 588.039803 981.039143 
L 595.718018 976.15657 
L 611.081021 967.625904 
L 627.778765 961.043 
" clip-path="url(#pdd82a8abf8)" style="fill: none; stroke: #f2b701; stroke-width: 1.5"/>
    <path d="M 638.850018 1003.748365 
L 632.853452 987.982105 
L 627.694245 979.292964 
L 627.778765 961.043 
" clip-path="url(#pdd82a8abf8)" style="fill: none; stroke: #f2b701; stroke-width: 1.5"/>
    <path d="M 627.778765 961.043 
L 644.827568 955.091376 
L 662.080906 950.47425 
L 669.903054 946.030404 
" clip-path="url(#pdd82a8abf8)" style="fill: none; stroke: #f2b701; stroke-width: 1.5"/>
    <path d="M 624.190718 916.787326 
L 618.072196 929.921871 
L 616.640278 937.083593 
L 618.469851 944.584401 
L 627.778765 961.043 
" clip-path="url(#pdd82a8abf8)" style="fill: none; stroke: #f2b701; stroke-width: 1.5"/>
    <path d="M 641.283324 918.761928 
L 637.898858 924.361207 
L 627.954314 943.195953 
L 627.778765 961.043 
" clip-path="url(#pdd82a8abf8)" style="fill: none; stroke: #f2b701; stroke-width: 1.5"/>
   </g>
   <g id="PathCollection_35">
    <g clip-path="url(#pdd82a8abf8)">
     <use xlink:href="#mcf59be65ed" x="627.778765" y="961.043" style="fill: #d3d3d3; stroke: #000000"/>
    </g>
   </g>
   <g id="text_37">
    <!-- 5E -->
    <g transform="translate(621.362679 895.840837) scale(0.12 -0.12)">
     <use xlink:href="#DejaVuSans-35"/>
     <use xlink:href="#DejaVuSans-45" x="63.623047"/>
    </g>
   </g>
  </g>
  <g id="axes_43">
   <g id="PatchCollection_75">
    <path d="M 33.271506 1104.092069 
L 34.298064 1095.321121 
L 38.36508 1087.482208 
L 44.941917 1081.580215 
L 56.955299 1077.92009 
L 69.205074 1080.609819 
L 78.556474 1088.963255 
L 82.087758 1097.385127 
L 82.315543 1106.50171 
L 79.198063 1115.084905 
L 73.886316 1121.348368 
L 66.799374 1125.536693 
L 60.434843 1127.111992 
L 51.204402 1126.244779 
L 44.309675 1123.097969 
L 38.704622 1118.014504 
L 34.898611 1111.478587 
L 33.271506 1104.092069 
" clip-path="url(#p59fd3f6d80)" style="fill: url(#h728746adfd)"/>
   </g>
   <g id="PatchCollection_76"/>
   <g id="LineCollection_38">
    <path d="M 57.883832 1102.691698 
L 60.434843 1127.111992 
L 62.489203 1143.139149 
L 63.337938 1148.716129 
" clip-path="url(#p59fd3f6d80)" style="fill: none; stroke: #f2b701; stroke-width: 1.5"/>
    <path d="M 57.883832 1102.691698 
L 79.198063 1115.084905 
L 93.821651 1123.259089 
L 98.509091 1125.158329 
" clip-path="url(#p59fd3f6d80)" style="fill: none; stroke: #f2b701; stroke-width: 1.5"/>
    <path d="M 96.672398 1076.854159 
L 90.2226 1082.338153 
L 78.556474 1088.963255 
L 57.883832 1102.691698 
" clip-path="url(#p59fd3f6d80)" style="fill: none; stroke: #f2b701; stroke-width: 1.5"/>
    <path d="M 11.548052 1102.69352 
L 33.271506 1104.092069 
L 57.883832 1102.691698 
" clip-path="url(#p59fd3f6d80)" style="fill: none; stroke: #f2b701; stroke-width: 1.5"/>
    <path d="M 30.828746 1064.9938 
L 31.566623 1066.018757 
L 44.941917 1081.580215 
L 57.883832 1102.691698 
" clip-path="url(#p59fd3f6d80)" style="fill: none; stroke: #f2b701; stroke-width: 1.5"/>
   </g>
   <g id="PathCollection_36">
    <g clip-path="url(#p59fd3f6d80)">
     <use xlink:href="#mcf59be65ed" x="57.883832" y="1102.691698" style="fill: #d3d3d3; stroke: #000000"/>
    </g>
   </g>
   <g id="text_38">
    <!-- 5S -->
    <g transform="translate(47.402009 1042.427956) scale(0.12 -0.12)">
     <use xlink:href="#DejaVuSans-35"/>
     <use xlink:href="#DejaVuSans-53" x="63.623047"/>
    </g>
   </g>
  </g>
  <g id="axes_44"/>
  <g id="axes_45"/>
  <g id="axes_46"/>
  <g id="axes_47"/>
  <g id="axes_48"/>
  <g id="axes_49">
   <g id="PatchCollection_77">
    <path d="M 43.883507 1283.936638 
L 45.322665 1278.173917 
L 46.286937 1274.318559 
L 50.866612 1241.304297 
L 51.665858 1234.756706 
L 51.905243 1232.772382 
L 53.876577 1216.77545 
L 55.757825 1216.413288 
L 66.171951 1212.891949 
L 62.077065 1259.023334 
L 60.018899 1276.447577 
L 58.959307 1285.832774 
L 50.526977 1291.039479 
L 48.087511 1287.233816 
L 43.883507 1283.936638 
" clip-path="url(#p74aba58d5b)" style="fill: url(#h728746adfd)"/>
   </g>
   <g id="PatchCollection_78"/>
   <g id="LineCollection_39">
    <path d="M 44.543249 1294.227287 
L 46.5084 1293.006483 
L 50.526977 1291.039479 
" clip-path="url(#p74aba58d5b)" style="fill: none; stroke: #f2b701; stroke-width: 1.5"/>
    <path d="M 50.526977 1291.039479 
L 53.238107 1295.948888 
L 53.836617 1296.922603 
" clip-path="url(#p74aba58d5b)" style="fill: none; stroke: #f2b701; stroke-width: 1.5"/>
    <path d="M 37.636466 1281.059817 
L 39.621552 1281.709678 
L 43.883507 1283.936638 
L 48.087511 1287.233816 
L 50.526977 1291.039479 
" clip-path="url(#p74aba58d5b)" style="fill: none; stroke: #f2b701; stroke-width: 1.5"/>
    <path d="M 50.526977 1291.039479 
L 58.959307 1285.832774 
L 66.059982 1283.17727 
" clip-path="url(#p74aba58d5b)" style="fill: none; stroke: #f2b701; stroke-width: 1.5"/>
    <path d="M 50.526977 1291.039479 
L 59.087201 1223.790867 
L 55.757825 1216.413288 
" clip-path="url(#p74aba58d5b)" style="fill: none; stroke: #f2b701; stroke-width: 1.5"/>
    <path d="M 47.175259 1215.914863 
L 49.834306 1216.255887 
L 53.876577 1216.77545 
L 55.757825 1216.413288 
" clip-path="url(#p74aba58d5b)" style="fill: none; stroke: #f2b701; stroke-width: 1.5"/>
    <path d="M 72.420677 1210.331972 
L 66.171951 1212.891949 
L 55.757825 1216.413288 
" clip-path="url(#p74aba58d5b)" style="fill: none; stroke: #f2b701; stroke-width: 1.5"/>
    <path d="M 53.522648 1209.961564 
L 55.757825 1216.413288 
" clip-path="url(#p74aba58d5b)" style="fill: none; stroke: #f2b701; stroke-width: 1.5"/>
   </g>
   <g id="PathCollection_37">
    <g clip-path="url(#p74aba58d5b)">
     <use xlink:href="#mcf59be65ed" x="50.526977" y="1291.039479" style="fill: #d3d3d3; stroke: #000000"/>
     <use xlink:href="#mcf59be65ed" x="55.757825" y="1216.413288" style="fill: #d3d3d3; stroke: #000000"/>
    </g>
   </g>
   <g id="text_39">
    <!-- 6CCCSS -->
    <g transform="translate(31.023884 1189.015074) scale(0.12 -0.12)">
     <defs>
      <path id="DejaVuSans-36" d="M 2113 2584 
Q 1688 2584 1439 2293 
Q 1191 2003 1191 1497 
Q 1191 994 1439 701 
Q 1688 409 2113 409 
Q 2538 409 2786 701 
Q 3034 994 3034 1497 
Q 3034 2003 2786 2293 
Q 2538 2584 2113 2584 
z
M 3366 4563 
L 3366 3988 
Q 3128 4100 2886 4159 
Q 2644 4219 2406 4219 
Q 1781 4219 1451 3797 
Q 1122 3375 1075 2522 
Q 1259 2794 1537 2939 
Q 1816 3084 2150 3084 
Q 2853 3084 3261 2657 
Q 3669 2231 3669 1497 
Q 3669 778 3244 343 
Q 2819 -91 2113 -91 
Q 1303 -91 875 529 
Q 447 1150 447 2328 
Q 447 3434 972 4092 
Q 1497 4750 2381 4750 
Q 2619 4750 2861 4703 
Q 3103 4656 3366 4563 
z
" transform="scale(0.015625)"/>
     </defs>
     <use xlink:href="#DejaVuSans-36"/>
     <use xlink:href="#DejaVuSans-43" x="63.623047"/>
     <use xlink:href="#DejaVuSans-43" x="133.447266"/>
     <use xlink:href="#DejaVuSans-43" x="203.271484"/>
     <use xlink:href="#DejaVuSans-53" x="273.095703"/>
     <use xlink:href="#DejaVuSans-53" x="336.572266"/>
    </g>
   </g>
  </g>
  <g id="axes_50">
   <g id="PatchCollection_79">
    <path d="M 152.076615 1256.375738 
L 153.080381 1247.184919 
L 157.754797 1238.697503 
L 166.909858 1236.030483 
L 176.228225 1236.532044 
L 188.022472 1247.411983 
L 187.056048 1259.259242 
L 183.814213 1270.683003 
L 174.436571 1273.98819 
L 164.065492 1273.272125 
L 152.076615 1256.375738 
" clip-path="url(#p18235586bd)" style="fill: url(#h728746adfd)"/>
   </g>
   <g id="PatchCollection_80"/>
   <g id="LineCollection_40">
    <path d="M 170.478257 1254.657786 
L 183.814213 1270.683003 
L 203.430954 1287.348007 
" clip-path="url(#p18235586bd)" style="fill: none; stroke: #f2b701; stroke-width: 1.5"/>
    <path d="M 151.231631 1295.583878 
L 152.561694 1293.547905 
L 164.065492 1273.272125 
L 170.478257 1254.657786 
" clip-path="url(#p18235586bd)" style="fill: none; stroke: #f2b701; stroke-width: 1.5"/>
    <path d="M 126.336623 1256.860966 
L 152.076615 1256.375738 
L 170.478257 1254.657786 
" clip-path="url(#p18235586bd)" style="fill: none; stroke: #f2b701; stroke-width: 1.5"/>
    <path d="M 170.478257 1254.657786 
L 188.022472 1247.411983 
L 213.297662 1242.533785 
" clip-path="url(#p18235586bd)" style="fill: none; stroke: #f2b701; stroke-width: 1.5"/>
    <path d="M 170.478257 1254.657786 
L 176.228225 1236.532044 
L 181.307349 1211.300288 
" clip-path="url(#p18235586bd)" style="fill: none; stroke: #f2b701; stroke-width: 1.5"/>
    <path d="M 140.813899 1219.320015 
L 157.754797 1238.697503 
L 170.478257 1254.657786 
" clip-path="url(#p18235586bd)" style="fill: none; stroke: #f2b701; stroke-width: 1.5"/>
   </g>
   <g id="PathCollection_38">
    <g clip-path="url(#p18235586bd)">
     <use xlink:href="#mcf59be65ed" x="170.478257" y="1254.657786" style="fill: #d3d3d3; stroke: #000000"/>
    </g>
   </g>
   <g id="text_40">
    <!-- 6S -->
    <g transform="translate(162.19058 1189.015074) scale(0.12 -0.12)">
     <use xlink:href="#DejaVuSans-36"/>
     <use xlink:href="#DejaVuSans-53" x="63.623047"/>
    </g>
   </g>
  </g>
  <g id="axes_51"/>
  <g id="axes_52"/>
  <g id="axes_53"/>
  <g id="axes_54"/>
  <g id="axes_55">
   <g id="PatchCollection_81">
    <path d="M 50.738915 1406.015531 
L 43.17532 1398.031255 
L 22.292731 1375.151282 
L 30.564389 1364.875366 
L 49.114591 1384.841244 
L 59.070818 1395.549195 
L 75.513001 1413.391045 
L 87.4628 1426.354861 
L 83.236474 1431.706901 
L 80.079779 1435.5153 
L 70.323731 1427.631218 
L 50.738915 1406.015531 
" clip-path="url(#pfc81c508e2)" style="fill: url(#h728746adfd)"/>
   </g>
   <g id="PatchCollection_82"/>
   <g id="LineCollection_41">
    <path d="M 73.844369 1443.509721 
L 75.599423 1441.260293 
L 80.079779 1435.5153 
L 83.236474 1431.706901 
" clip-path="url(#pfc81c508e2)" style="fill: none; stroke: #f2b701; stroke-width: 1.5"/>
    <path d="M 83.236474 1431.706901 
L 89.468674 1438.834722 
L 90.014529 1439.427802 
" clip-path="url(#pfc81c508e2)" style="fill: none; stroke: #f2b701; stroke-width: 1.5"/>
    <path d="M 44.050266 1413.743604 
L 47.746767 1409.471749 
L 50.738915 1406.015531 
L 54.902114 1400.792144 
" clip-path="url(#pfc81c508e2)" style="fill: none; stroke: #f2b701; stroke-width: 1.5"/>
    <path d="M 54.902114 1400.792144 
L 83.236474 1431.706901 
" clip-path="url(#pfc81c508e2)" style="fill: none; stroke: #f2b701; stroke-width: 1.5"/>
    <path d="M 83.236474 1431.706901 
L 87.4628 1426.354861 
L 90.938001 1422.354491 
L 94.157488 1418.648424 
" clip-path="url(#pfc81c508e2)" style="fill: none; stroke: #f2b701; stroke-width: 1.5"/>
    <path d="M 15.899655 1383.196619 
L 18.143086 1380.372538 
L 22.292731 1375.151282 
L 25.814099 1370.776671 
" clip-path="url(#pfc81c508e2)" style="fill: none; stroke: #f2b701; stroke-width: 1.5"/>
    <path d="M 25.814099 1370.776671 
L 54.902114 1400.792144 
" clip-path="url(#pfc81c508e2)" style="fill: none; stroke: #f2b701; stroke-width: 1.5"/>
    <path d="M 25.814099 1370.776671 
L 30.564389 1364.875366 
L 35.737664 1357.351671 
L 36.35074 1356.548682 
" clip-path="url(#pfc81c508e2)" style="fill: none; stroke: #f2b701; stroke-width: 1.5"/>
    <path d="M 65.67361 1387.750941 
L 62.087888 1391.986679 
L 59.070818 1395.549195 
L 54.902114 1400.792144 
" clip-path="url(#pfc81c508e2)" style="fill: none; stroke: #f2b701; stroke-width: 1.5"/>
   </g>
   <g id="PathCollection_39">
    <g clip-path="url(#pfc81c508e2)">
     <use xlink:href="#mcf59be65ed" x="83.236474" y="1431.706901" style="fill: #d3d3d3; stroke: #000000"/>
     <use xlink:href="#mcf59be65ed" x="54.902114" y="1400.792144" style="fill: #d3d3d3; stroke: #000000"/>
     <use xlink:href="#mcf59be65ed" x="25.814099" y="1370.776671" style="fill: #d3d3d3; stroke: #000000"/>
    </g>
   </g>
   <g id="text_41">
    <!-- 7CCSS -->
    <g transform="translate(35.213571 1335.602193) scale(0.12 -0.12)">
     <defs>
      <path id="DejaVuSans-37" d="M 525 4666 
L 3525 4666 
L 3525 4397 
L 1831 0 
L 1172 0 
L 2766 4134 
L 525 4134 
L 525 4666 
z
" transform="scale(0.015625)"/>
     </defs>
     <use xlink:href="#DejaVuSans-37"/>
     <use xlink:href="#DejaVuSans-43" x="63.623047"/>
     <use xlink:href="#DejaVuSans-43" x="133.447266"/>
     <use xlink:href="#DejaVuSans-53" x="203.271484"/>
     <use xlink:href="#DejaVuSans-53" x="266.748047"/>
    </g>
   </g>
  </g>
  <g id="axes_56"/>
  <g id="axes_57"/>
  <g id="axes_58"/>
  <g id="axes_59"/>
  <g id="axes_60"/>
 </g>
 <defs>
  <clipPath id="pc238461a1c">
   <rect x="7.2" y="32.916563" width="95.657143" height="95.657143"/>
  </clipPath>
  <clipPath id="pca44650bcf">
   <rect x="121.988571" y="32.916563" width="95.657143" height="95.657143"/>
  </clipPath>
  <clipPath id="p28289a58b5">
   <rect x="7.2" y="179.503681" width="95.657143" height="95.657143"/>
  </clipPath>
  <clipPath id="pf60e179e88">
   <rect x="121.988571" y="179.503681" width="95.657143" height="95.657143"/>
  </clipPath>
  <clipPath id="p8e48966671">
   <rect x="236.777143" y="179.503681" width="95.657143" height="95.657143"/>
  </clipPath>
  <clipPath id="p41161e137b">
   <rect x="351.565714" y="179.503681" width="95.657143" height="95.657143"/>
  </clipPath>
  <clipPath id="p6b68613a0f">
   <rect x="466.354286" y="179.503681" width="95.657143" height="95.657143"/>
  </clipPath>
  <clipPath id="pde20e08346">
   <rect x="7.2" y="326.0908" width="95.657143" height="95.657143"/>
  </clipPath>
  <clipPath id="p81786d3a36">
   <rect x="121.988571" y="326.0908" width="95.657143" height="95.657143"/>
  </clipPath>
  <clipPath id="pd27986115e">
   <rect x="236.777143" y="326.0908" width="95.657143" height="95.657143"/>
  </clipPath>
  <clipPath id="p1e3d7954e6">
   <rect x="351.565714" y="326.0908" width="95.657143" height="95.657143"/>
  </clipPath>
  <clipPath id="pa55033eaff">
   <rect x="466.354286" y="326.0908" width="95.657143" height="95.657143"/>
  </clipPath>
  <clipPath id="pbab67a6006">
   <rect x="581.142857" y="326.0908" width="95.657143" height="95.657143"/>
  </clipPath>
  <clipPath id="p7568d6aa35">
   <rect x="7.2" y="472.677918" width="95.657143" height="95.657143"/>
  </clipPath>
  <clipPath id="p79a9a1e0fb">
   <rect x="121.988571" y="472.677918" width="95.657143" height="95.657143"/>
  </clipPath>
  <clipPath id="p4de2449dc7">
   <rect x="236.777143" y="472.677918" width="95.657143" height="95.657143"/>
  </clipPath>
  <clipPath id="p12b6e49cb2">
   <rect x="351.565714" y="472.677918" width="95.657143" height="95.657143"/>
  </clipPath>
  <clipPath id="p0c7970059a">
   <rect x="466.354286" y="472.677918" width="95.657143" height="95.657143"/>
  </clipPath>
  <clipPath id="p037b2ce631">
   <rect x="581.142857" y="472.677918" width="95.657143" height="95.657143"/>
  </clipPath>
  <clipPath id="p144388ea0b">
   <rect x="7.2" y="619.265037" width="95.657143" height="95.657143"/>
  </clipPath>
  <clipPath id="pe3b9f77e47">
   <rect x="121.988571" y="619.265037" width="95.657143" height="95.657143"/>
  </clipPath>
  <clipPath id="p089598bc78">
   <rect x="236.777143" y="619.265037" width="95.657143" height="95.657143"/>
  </clipPath>
  <clipPath id="pe4464805cb">
   <rect x="351.565714" y="619.265037" width="95.657143" height="95.657143"/>
  </clipPath>
  <clipPath id="pf7bcdc5510">
   <rect x="466.354286" y="619.265037" width="95.657143" height="95.657143"/>
  </clipPath>
  <clipPath id="p13b611db2c">
   <rect x="581.142857" y="619.265037" width="95.657143" height="95.657143"/>
  </clipPath>
  <clipPath id="pe422558408">
   <rect x="7.2" y="765.852156" width="95.657143" height="95.657143"/>
  </clipPath>
  <clipPath id="p33dd871832">
   <rect x="121.988571" y="765.852156" width="95.657143" height="95.657143"/>
  </clipPath>
  <clipPath id="p7132cea010">
   <rect x="236.777143" y="765.852156" width="95.657143" height="95.657143"/>
  </clipPath>
  <clipPath id="pdf075b7b2e">
   <rect x="351.565714" y="765.852156" width="95.657143" height="95.657143"/>
  </clipPath>
  <clipPath id="pe78b4634d7">
   <rect x="466.354286" y="765.852156" width="95.657143" height="95.657143"/>
  </clipPath>
  <clipPath id="pca214eb720">
   <rect x="581.142857" y="765.852156" width="95.657143" height="95.657143"/>
  </clipPath>
  <clipPath id="p6022253147">
   <rect x="7.2" y="912.439274" width="95.657143" height="95.657143"/>
  </clipPath>
  <clipPath id="p8659c4f447">
   <rect x="121.988571" y="912.439274" width="95.657143" height="95.657143"/>
  </clipPath>
  <clipPath id="p3051e67301">
   <rect x="236.777143" y="912.439274" width="95.657143" height="95.657143"/>
  </clipPath>
  <clipPath id="p292b294bd5">
   <rect x="351.565714" y="912.439274" width="95.657143" height="95.657143"/>
  </clipPath>
  <clipPath id="p3d79b10b2b">
   <rect x="466.354286" y="912.439274" width="95.657143" height="95.657143"/>
  </clipPath>
  <clipPath id="pdd82a8abf8">
   <rect x="581.142857" y="912.439274" width="95.657143" height="95.657143"/>
  </clipPath>
  <clipPath id="p59fd3f6d80">
   <rect x="7.2" y="1059.026393" width="95.657143" height="95.657143"/>
  </clipPath>
  <clipPath id="p74aba58d5b">
   <rect x="7.2" y="1205.613512" width="95.657143" height="95.657143"/>
  </clipPath>
  <clipPath id="p18235586bd">
   <rect x="121.988571" y="1205.613512" width="95.657143" height="95.657143"/>
  </clipPath>
  <clipPath id="pfc81c508e2">
   <rect x="7.2" y="1352.20063" width="95.657143" height="95.657143"/>
  </clipPath>
 </defs>
 <defs>
  <pattern id="h728746adfd" patternUnits="userSpaceOnUse" x="0" y="0" width="72" height="72">
   <rect x="0" y="0" width="73" height="73" fill="none"/>
   <path d="M -36 36 
L 36 -36 
M -32 40 
L 40 -32 
M -28 44 
L 44 -28 
M -24 48 
L 48 -24 
M -20 52 
L 52 -20 
M -16 56 
L 56 -16 
M -12 60 
L 60 -12 
M -8 64 
L 64 -8 
M -4 68 
L 68 -4 
M 0 72 
L 72 0 
M 4 76 
L 76 4 
M 8 80 
L 80 8 
M 12 84 
L 84 12 
M 16 88 
L 88 16 
M 20 92 
L 92 20 
M 24 96 
L 96 24 
M 28 100 
L 100 28 
M 32 104 
L 104 32 
M 36 108 
L 108 36 
" style="fill: #d3d3d3; stroke: #d3d3d3; stroke-width: 1.0; stroke-linecap: butt; stroke-linejoin: miter"/>
  </pattern>
 </defs>
</svg>
