<?xml version="1.0" encoding="utf-8" standalone="no"?>
<!DOCTYPE svg PUBLIC "-//W3C//DTD SVG 1.1//EN"
  "http://www.w3.org/Graphics/SVG/1.1/DTD/svg11.dtd">
<svg xmlns:xlink="http://www.w3.org/1999/xlink" width="684pt" height="549.961283pt" viewBox="0 0 684 549.961283" xmlns="http://www.w3.org/2000/svg" version="1.1">
 <metadata>
  <rdf:RDF xmlns:dc="http://purl.org/dc/elements/1.1/" xmlns:cc="http://creativecommons.org/ns#" xmlns:rdf="http://www.w3.org/1999/02/22-rdf-syntax-ns#">
   <cc:Work>
    <dc:type rdf:resource="http://purl.org/dc/dcmitype/StillImage"/>
    <dc:date>2025-04-20T21:54:57.074284</dc:date>
    <dc:format>image/svg+xml</dc:format>
    <dc:creator>
     <cc:Agent>
      <dc:title>Matplotlib v3.9.3, https://matplotlib.org/</dc:title>
     </cc:Agent>
    </dc:creator>
   </cc:Work>
  </rdf:RDF>
 </metadata>
 <defs>
  <style type="text/css">*{stroke-linejoin: round; stroke-linecap: butt}</style>
 </defs>
 <g id="figure_1">
  <g id="patch_1">
   <path d="M 0 549.961283 
L 684 549.961283 
L 684 0 
L 0 0 
z
" style="fill: #ffffff"/>
  </g>
  <g id="axes_1">
   <g id="PatchCollection_1">
    <path d="M 11.748527 99.922564 
L 11.548052 89.108918 
L 17.19083 80.151836 
L 31.110615 73.797574 
L 56.435045 68.318393 
L 76.266355 61.626584 
L 73.991972 70.797976 
L 71.303095 78.067774 
L 65.480905 83.976384 
L 27.201213 93.896276 
L 11.748527 99.922564 
" clip-path="url(#pd07a8b5f7c)" style="fill: url(#hd5af8382b3); stroke: #d3d3d3"/>
   </g>
   <g id="PatchCollection_2"/>
   <g id="LineCollection_1">
    <path d="M 13.559275 123.103417 
L 11.748527 99.922564 
" clip-path="url(#pd07a8b5f7c)" style="fill: none; stroke: #11a579; stroke-width: 2"/>
    <path d="M 76.266355 61.626584 
L 56.435045 68.318393 
L 31.110615 73.797574 
L 17.19083 80.151836 
L 11.548052 89.108918 
L 11.748527 99.922564 
" clip-path="url(#pd07a8b5f7c)" style="fill: none; stroke: #11a579; stroke-width: 2"/>
    <path d="M 76.266355 61.626584 
L 98.509091 54.927818 
" clip-path="url(#pd07a8b5f7c)" style="fill: none; stroke: #11a579; stroke-width: 2"/>
   </g>
   <g id="LineCollection_2">
    <path d="M 11.748527 99.922564 
L 27.201213 93.896276 
L 65.480905 83.976384 
L 71.303095 78.067774 
L 73.991972 70.797976 
L 76.266355 61.626584 
" clip-path="url(#pd07a8b5f7c)" style="fill: none; stroke: #e73f74; stroke-width: 2"/>
    <path d="M 76.266355 61.626584 
L 76.059384 40.562237 
L 75.757119 38.386851 
" clip-path="url(#pd07a8b5f7c)" style="fill: none; stroke: #e73f74; stroke-width: 2"/>
   </g>
   <g id="PathCollection_1">
    <defs>
     <path id="mca5cea7be6" d="M 0 2.5 
C 0.663008 2.5 1.29895 2.236584 1.767767 1.767767 
C 2.236584 1.29895 2.5 0.663008 2.5 0 
C 2.5 -0.663008 2.236584 -1.29895 1.767767 -1.767767 
C 1.29895 -2.236584 0.663008 -2.5 0 -2.5 
C -0.663008 -2.5 -1.29895 -2.236584 -1.767767 -1.767767 
C -2.236584 -1.29895 -2.5 -0.663008 -2.5 0 
C -2.5 0.663008 -2.236584 1.29895 -1.767767 1.767767 
C -1.29895 2.236584 -0.663008 2.5 0 2.5 
z
" style="stroke: #000000"/>
    </defs>
    <g clip-path="url(#pd07a8b5f7c)">
     <use xlink:href="#mca5cea7be6" x="76.266355" y="61.626584" style="fill: #d3d3d3; stroke: #000000"/>
     <use xlink:href="#mca5cea7be6" x="11.748527" y="99.922564" style="fill: #d3d3d3; stroke: #000000"/>
    </g>
   </g>
   <g id="text_1">
    <!-- 2CE -->
    <g transform="translate(43.230134 16.318125) scale(0.12 -0.12)">
     <defs>
      <path id="DejaVuSans-32" d="M 1228 531 
L 3431 531 
L 3431 0 
L 469 0 
L 469 531 
Q 828 903 1448 1529 
Q 2069 2156 2228 2338 
Q 2531 2678 2651 2914 
Q 2772 3150 2772 3378 
Q 2772 3750 2511 3984 
Q 2250 4219 1831 4219 
Q 1534 4219 1204 4116 
Q 875 4013 500 3803 
L 500 4441 
Q 881 4594 1212 4672 
Q 1544 4750 1819 4750 
Q 2544 4750 2975 4387 
Q 3406 4025 3406 3419 
Q 3406 3131 3298 2873 
Q 3191 2616 2906 2266 
Q 2828 2175 2409 1742 
Q 1991 1309 1228 531 
z
" transform="scale(0.015625)"/>
      <path id="DejaVuSans-43" d="M 4122 4306 
L 4122 3641 
Q 3803 3938 3442 4084 
Q 3081 4231 2675 4231 
Q 1875 4231 1450 3742 
Q 1025 3253 1025 2328 
Q 1025 1406 1450 917 
Q 1875 428 2675 428 
Q 3081 428 3442 575 
Q 3803 722 4122 1019 
L 4122 359 
Q 3791 134 3420 21 
Q 3050 -91 2638 -91 
Q 1578 -91 968 557 
Q 359 1206 359 2328 
Q 359 3453 968 4101 
Q 1578 4750 2638 4750 
Q 3056 4750 3426 4639 
Q 3797 4528 4122 4306 
z
" transform="scale(0.015625)"/>
      <path id="DejaVuSans-45" d="M 628 4666 
L 3578 4666 
L 3578 4134 
L 1259 4134 
L 1259 2753 
L 3481 2753 
L 3481 2222 
L 1259 2222 
L 1259 531 
L 3634 531 
L 3634 0 
L 628 0 
L 628 4666 
z
" transform="scale(0.015625)"/>
     </defs>
     <use xlink:href="#DejaVuSans-32"/>
     <use xlink:href="#DejaVuSans-43" x="63.623047"/>
     <use xlink:href="#DejaVuSans-45" x="133.447266"/>
    </g>
   </g>
  </g>
  <g id="axes_2">
   <g id="PatchCollection_3">
    <path d="M 126.537099 99.922564 
L 126.336623 89.108918 
L 131.979401 80.151836 
L 145.899186 73.797574 
L 171.223617 68.318393 
L 191.054926 61.626584 
L 188.780544 70.797976 
L 186.091666 78.067774 
L 180.269477 83.976384 
L 141.989784 93.896276 
L 126.537099 99.922564 
" clip-path="url(#pb547b534c4)" style="fill: url(#hd5af8382b3)"/>
   </g>
   <g id="PatchCollection_4"/>
   <g id="LineCollection_3">
    <path d="M 128.347846 123.103417 
L 126.537099 99.922564 
L 191.054926 61.626584 
" clip-path="url(#pb547b534c4)" style="fill: none; stroke: #f2b701; stroke-width: 2"/>
    <path d="M 191.054926 61.626584 
L 213.297662 54.927818 
" clip-path="url(#pb547b534c4)" style="fill: none; stroke: #f2b701; stroke-width: 2"/>
    <path d="M 191.054926 61.626584 
L 190.847956 40.562237 
L 190.545691 38.386851 
" clip-path="url(#pb547b534c4)" style="fill: none; stroke: #f2b701; stroke-width: 2"/>
   </g>
   <g id="PathCollection_2">
    <g clip-path="url(#pb547b534c4)">
     <use xlink:href="#mca5cea7be6" x="191.054926" y="61.626584" style="fill: #d3d3d3; stroke: #000000"/>
    </g>
   </g>
  </g>
  <g id="axes_3">
   <g id="PatchCollection_5">
    <path d="M 302.16819 77.432871 
L 277.156427 107.4575 
L 259.817401 117.468836 
L 250.099283 110.316779 
L 244.987867 98.283338 
L 259.669223 63.416047 
L 302.16819 77.432871 
" clip-path="url(#p23a7d312c1)" style="fill: url(#hd5af8382b3); stroke: #d3d3d3"/>
   </g>
   <g id="PatchCollection_6"/>
   <g id="LineCollection_4">
    <path d="M 302.16819 77.432871 
L 328.086234 84.312414 
" clip-path="url(#p23a7d312c1)" style="fill: none; stroke: #11a579; stroke-width: 2"/>
    <path d="M 302.16819 77.432871 
L 259.669223 63.416047 
" clip-path="url(#p23a7d312c1)" style="fill: none; stroke: #11a579; stroke-width: 2"/>
    <path d="M 259.669223 63.416047 
L 241.125195 44.021432 
" clip-path="url(#p23a7d312c1)" style="fill: none; stroke: #11a579; stroke-width: 2"/>
   </g>
   <g id="LineCollection_5">
    <path d="M 259.669223 63.416047 
L 244.987867 98.283338 
L 250.099283 110.316779 
L 259.817401 117.468836 
L 277.156427 107.4575 
L 302.16819 77.432871 
" clip-path="url(#p23a7d312c1)" style="fill: none; stroke: #3969ac; stroke-width: 2"/>
   </g>
   <g id="PathCollection_3">
    <g clip-path="url(#p23a7d312c1)">
     <use xlink:href="#mca5cea7be6" x="259.669223" y="63.416047" style="fill: #d3d3d3; stroke: #000000"/>
     <use xlink:href="#mca5cea7be6" x="302.16819" y="77.432871" style="fill: #d3d3d3; stroke: #000000"/>
    </g>
   </g>
   <g id="text_2">
    <!-- 2CS -->
    <g transform="translate(272.789464 16.318125) scale(0.12 -0.12)">
     <defs>
      <path id="DejaVuSans-53" d="M 3425 4513 
L 3425 3897 
Q 3066 4069 2747 4153 
Q 2428 4238 2131 4238 
Q 1616 4238 1336 4038 
Q 1056 3838 1056 3469 
Q 1056 3159 1242 3001 
Q 1428 2844 1947 2747 
L 2328 2669 
Q 3034 2534 3370 2195 
Q 3706 1856 3706 1288 
Q 3706 609 3251 259 
Q 2797 -91 1919 -91 
Q 1588 -91 1214 -16 
Q 841 59 441 206 
L 441 856 
Q 825 641 1194 531 
Q 1563 422 1919 422 
Q 2459 422 2753 634 
Q 3047 847 3047 1241 
Q 3047 1584 2836 1778 
Q 2625 1972 2144 2069 
L 1759 2144 
Q 1053 2284 737 2584 
Q 422 2884 422 3419 
Q 422 4038 858 4394 
Q 1294 4750 2059 4750 
Q 2388 4750 2728 4690 
Q 3069 4631 3425 4513 
z
" transform="scale(0.015625)"/>
     </defs>
     <use xlink:href="#DejaVuSans-32"/>
     <use xlink:href="#DejaVuSans-43" x="63.623047"/>
     <use xlink:href="#DejaVuSans-53" x="133.447266"/>
    </g>
   </g>
  </g>
  <g id="axes_4">
   <g id="PatchCollection_7">
    <path d="M 416.956761 77.432871 
L 391.944998 107.4575 
L 374.605972 117.468836 
L 364.887854 110.316779 
L 359.776439 98.283338 
L 374.457795 63.416047 
L 416.956761 77.432871 
" clip-path="url(#p5f17a9eb66)" style="fill: url(#hd5af8382b3)"/>
   </g>
   <g id="PatchCollection_8"/>
   <g id="LineCollection_6">
    <path d="M 375.467601 101.944698 
L 394.184136 69.922103 
" clip-path="url(#p5f17a9eb66)" style="fill: none; stroke: #f2b701; stroke-width: 2"/>
    <path d="M 394.184136 69.922103 
L 416.956761 77.432871 
L 442.874805 84.312414 
" clip-path="url(#p5f17a9eb66)" style="fill: none; stroke: #f2b701; stroke-width: 2"/>
    <path d="M 394.184136 69.922103 
L 374.457795 63.416047 
L 355.913766 44.021432 
" clip-path="url(#p5f17a9eb66)" style="fill: none; stroke: #f2b701; stroke-width: 2"/>
   </g>
   <g id="PathCollection_4">
    <g clip-path="url(#p5f17a9eb66)">
     <use xlink:href="#mca5cea7be6" x="375.467601" y="101.944698" style="fill: #d3d3d3; stroke: #000000"/>
     <use xlink:href="#mca5cea7be6" x="394.184136" y="69.922103" style="fill: #d3d3d3; stroke: #000000"/>
    </g>
   </g>
  </g>
  <g id="axes_5">
   <g id="PatchCollection_9">
    <path d="M 519.314143 93.07647 
L 507.749239 85.916352 
L 502.104183 77.693271 
L 499.586805 67.835364 
L 500.629534 57.91902 
L 505.708926 48.000271 
L 513.171157 41.376409 
L 521.351355 37.9564 
L 531.318863 37.264614 
L 544.718247 42.220456 
L 551.812314 49.255568 
L 556.835705 62.054157 
L 556.388217 72.02303 
L 551.311627 83.040115 
L 544.018016 89.845981 
L 538.989603 92.44841 
L 529.19551 94.49054 
L 519.314143 93.07647 
" clip-path="url(#pa673dfb21b)" style="fill: url(#hd5af8382b3); stroke: #d3d3d3"/>
   </g>
   <g id="PatchCollection_10"/>
   <g id="LineCollection_7">
    <path d="M 500.629534 57.91902 
L 499.586805 67.835364 
L 502.104183 77.693271 
L 507.749239 85.916352 
L 519.314143 93.07647 
" clip-path="url(#pa673dfb21b)" style="fill: none; stroke: #3969ac; stroke-width: 2"/>
    <path d="M 519.314143 93.07647 
L 529.19551 94.49054 
L 538.989603 92.44841 
L 544.018016 89.845981 
L 551.311627 83.040115 
L 556.388217 72.02303 
L 556.835705 62.054157 
L 551.812314 49.255568 
L 544.718247 42.220456 
L 531.318863 37.264614 
L 521.351355 37.9564 
L 513.171157 41.376409 
L 505.708926 48.000271 
L 500.629534 57.91902 
" clip-path="url(#pa673dfb21b)" style="fill: none; stroke: #3969ac; stroke-width: 2"/>
   </g>
   <g id="LineCollection_8">
    <path d="M 514.672759 124.225653 
L 519.314143 93.07647 
" clip-path="url(#pa673dfb21b)" style="fill: none; stroke: #bbbbbb; stroke-width: 2"/>
    <path d="M 471.530009 45.889293 
L 500.629534 57.91902 
" clip-path="url(#pa673dfb21b)" style="fill: none; stroke: #bbbbbb; stroke-width: 2"/>
   </g>
   <g id="PathCollection_5">
    <g clip-path="url(#pa673dfb21b)">
     <use xlink:href="#mca5cea7be6" x="500.629534" y="57.91902" style="fill: #d3d3d3; stroke: #000000"/>
     <use xlink:href="#mca5cea7be6" x="519.314143" y="93.07647" style="fill: #d3d3d3; stroke: #000000"/>
    </g>
   </g>
   <g id="text_3">
    <!-- 2S -->
    <g transform="translate(506.556295 16.318125) scale(0.12 -0.12)">
     <use xlink:href="#DejaVuSans-32"/>
     <use xlink:href="#DejaVuSans-53" x="63.623047"/>
    </g>
   </g>
  </g>
  <g id="axes_6">
   <g id="PatchCollection_11">
    <path d="M 634.102715 93.07647 
L 622.537811 85.916352 
L 616.892754 77.693271 
L 614.375376 67.835364 
L 615.418106 57.91902 
L 620.497498 48.000271 
L 627.959728 41.376409 
L 636.139927 37.9564 
L 646.107435 37.264614 
L 659.506818 42.220456 
L 666.600886 49.255568 
L 671.624277 62.054157 
L 671.176789 72.02303 
L 666.100199 83.040115 
L 658.806587 89.845981 
L 653.778174 92.44841 
L 643.984081 94.49054 
L 634.102715 93.07647 
" clip-path="url(#p7b5e6f3491)" style="fill: url(#hd5af8382b3)"/>
   </g>
   <g id="PatchCollection_12"/>
   <g id="LineCollection_9">
    <path d="M 586.31858 45.889293 
L 615.418106 57.91902 
L 643.044892 65.833167 
L 634.102715 93.07647 
L 629.46133 124.225653 
" clip-path="url(#p7b5e6f3491)" style="fill: none; stroke: #f2b701; stroke-width: 2"/>
   </g>
  </g>
  <g id="axes_7">
   <g id="PatchCollection_13">
    <path d="M 37.799632 202.139085 
L 69.769844 204.905616 
L 72.206399 205.121896 
L 70.068092 206.081537 
L 54.508834 216.36206 
L 42.355754 227.114913 
L 42.063702 221.609088 
L 40.900249 214.6667 
L 39.402219 207.051396 
L 37.799632 202.139085 
" clip-path="url(#p19b2498435)" style="fill: url(#hd5af8382b3); stroke: #d3d3d3"/>
   </g>
   <g id="PatchCollection_14"/>
   <g id="LineCollection_10">
    <path d="M 98.509091 206.38899 
L 74.646509 205.265831 
L 72.206399 205.121896 
" clip-path="url(#p19b2498435)" style="fill: none; stroke: #11a579; stroke-width: 2"/>
    <path d="M 37.799632 202.139085 
L 69.769844 204.905616 
L 72.206399 205.121896 
" clip-path="url(#p19b2498435)" style="fill: none; stroke: #11a579; stroke-width: 2"/>
    <path d="M 37.799632 202.139085 
L 11.548052 199.860152 
" clip-path="url(#p19b2498435)" style="fill: none; stroke: #11a579; stroke-width: 2"/>
   </g>
   <g id="LineCollection_11">
    <path d="M 21.764329 243.524869 
L 42.355754 227.114913 
" clip-path="url(#p19b2498435)" style="fill: none; stroke: #e73f74; stroke-width: 2"/>
    <path d="M 42.355754 227.114913 
L 54.508834 216.36206 
L 70.068092 206.081537 
L 72.206399 205.121896 
" clip-path="url(#p19b2498435)" style="fill: none; stroke: #e73f74; stroke-width: 2"/>
   </g>
   <g id="LineCollection_12">
    <path d="M 42.355754 227.114913 
L 42.063702 221.609088 
L 40.900249 214.6667 
L 39.402219 207.051396 
L 37.799632 202.139085 
" clip-path="url(#p19b2498435)" style="fill: none; stroke: #3969ac; stroke-width: 2"/>
   </g>
   <g id="LineCollection_13">
    <path d="M 67.973118 178.292356 
L 72.466644 203.293222 
L 72.206399 205.121896 
" clip-path="url(#p19b2498435)" style="fill: none; stroke: #bbbbbb; stroke-width: 2"/>
   </g>
   <g id="PathCollection_6">
    <g clip-path="url(#p19b2498435)">
     <use xlink:href="#mca5cea7be6" x="42.355754" y="227.114913" style="fill: #d3d3d3; stroke: #000000"/>
     <use xlink:href="#mca5cea7be6" x="37.799632" y="202.139085" style="fill: #d3d3d3; stroke: #000000"/>
     <use xlink:href="#mca5cea7be6" x="72.206399" y="205.121896" style="fill: #d3d3d3; stroke: #000000"/>
    </g>
   </g>
   <g id="text_4">
    <!-- 3CES -->
    <g transform="translate(39.421071 146.481603) scale(0.12 -0.12)">
     <defs>
      <path id="DejaVuSans-33" d="M 2597 2516 
Q 3050 2419 3304 2112 
Q 3559 1806 3559 1356 
Q 3559 666 3084 287 
Q 2609 -91 1734 -91 
Q 1441 -91 1130 -33 
Q 819 25 488 141 
L 488 750 
Q 750 597 1062 519 
Q 1375 441 1716 441 
Q 2309 441 2620 675 
Q 2931 909 2931 1356 
Q 2931 1769 2642 2001 
Q 2353 2234 1838 2234 
L 1294 2234 
L 1294 2753 
L 1863 2753 
Q 2328 2753 2575 2939 
Q 2822 3125 2822 3475 
Q 2822 3834 2567 4026 
Q 2313 4219 1838 4219 
Q 1578 4219 1281 4162 
Q 984 4106 628 3988 
L 628 4550 
Q 988 4650 1302 4700 
Q 1616 4750 1894 4750 
Q 2613 4750 3031 4423 
Q 3450 4097 3450 3541 
Q 3450 3153 3228 2886 
Q 3006 2619 2597 2516 
z
" transform="scale(0.015625)"/>
     </defs>
     <use xlink:href="#DejaVuSans-33"/>
     <use xlink:href="#DejaVuSans-43" x="63.623047"/>
     <use xlink:href="#DejaVuSans-45" x="133.447266"/>
     <use xlink:href="#DejaVuSans-53" x="196.630859"/>
    </g>
   </g>
  </g>
  <g id="axes_8">
   <g id="PatchCollection_15">
    <path d="M 149.836905 210.318478 
L 183.255978 213.210385 
L 185.802956 213.436468 
L 183.567743 214.439598 
L 167.303352 225.186025 
L 154.599506 236.426189 
L 154.294218 230.670844 
L 153.078039 223.413833 
L 151.512119 215.45341 
L 149.836905 210.318478 
" clip-path="url(#pfc66a9dd7a)" style="fill: url(#hd5af8382b3)"/>
   </g>
   <g id="PatchCollection_16"/>
   <g id="LineCollection_14">
    <path d="M 185.802956 213.436468 
L 158.964668 214.795922 
L 140.533382 226.265986 
L 126.336623 230.55453 
" clip-path="url(#pfc66a9dd7a)" style="fill: none; stroke: #f2b701; stroke-width: 2"/>
    <path d="M 213.297662 214.760985 
L 188.353649 213.586925 
L 185.802956 213.436468 
" clip-path="url(#pfc66a9dd7a)" style="fill: none; stroke: #f2b701; stroke-width: 2"/>
    <path d="M 181.377827 185.391036 
L 186.074994 211.524919 
L 185.802956 213.436468 
" clip-path="url(#pfc66a9dd7a)" style="fill: none; stroke: #f2b701; stroke-width: 2"/>
   </g>
   <g id="PathCollection_7">
    <g clip-path="url(#pfc66a9dd7a)">
     <use xlink:href="#mca5cea7be6" x="185.802956" y="213.436468" style="fill: #d3d3d3; stroke: #000000"/>
    </g>
   </g>
  </g>
  <g id="axes_9">
   <g id="PatchCollection_17">
    <path d="M 254.570469 195.152321 
L 258.87531 190.454138 
L 302.123352 197.710206 
L 306.20963 198.415112 
L 312.41657 198.971467 
L 301.413986 213.393373 
L 275.238549 221.474729 
L 254.570469 195.152321 
" clip-path="url(#p14b9e490f1)" style="fill: url(#hd5af8382b3); stroke: #d3d3d3"/>
   </g>
   <g id="PatchCollection_18"/>
   <g id="LineCollection_15">
    <path d="M 275.238549 221.474729 
L 276.6548 237.216343 
" clip-path="url(#p14b9e490f1)" style="fill: none; stroke: #11a579; stroke-width: 2"/>
    <path d="M 254.570469 195.152321 
L 275.238549 221.474729 
" clip-path="url(#p14b9e490f1)" style="fill: none; stroke: #11a579; stroke-width: 2"/>
    <path d="M 241.125195 186.848299 
L 254.570469 195.152321 
" clip-path="url(#p14b9e490f1)" style="fill: none; stroke: #11a579; stroke-width: 2"/>
   </g>
   <g id="LineCollection_16">
    <path d="M 312.41657 198.971467 
L 301.413986 213.393373 
L 275.238549 221.474729 
" clip-path="url(#p14b9e490f1)" style="fill: none; stroke: #e73f74; stroke-width: 2"/>
    <path d="M 254.570469 195.152321 
L 258.87531 190.454138 
L 302.123352 197.710206 
L 306.20963 198.415112 
L 312.41657 198.971467 
" clip-path="url(#p14b9e490f1)" style="fill: none; stroke: #e73f74; stroke-width: 2"/>
    <path d="M 312.41657 198.971467 
L 328.086234 200.945107 
" clip-path="url(#p14b9e490f1)" style="fill: none; stroke: #e73f74; stroke-width: 2"/>
    <path d="M 318.967023 184.600882 
L 312.41657 198.971467 
" clip-path="url(#p14b9e490f1)" style="fill: none; stroke: #e73f74; stroke-width: 2"/>
   </g>
   <g id="PathCollection_8">
    <g clip-path="url(#p14b9e490f1)">
     <use xlink:href="#mca5cea7be6" x="312.41657" y="198.971467" style="fill: #d3d3d3; stroke: #000000"/>
     <use xlink:href="#mca5cea7be6" x="254.570469" y="195.152321" style="fill: #d3d3d3; stroke: #000000"/>
     <use xlink:href="#mca5cea7be6" x="275.238549" y="221.474729" style="fill: #d3d3d3; stroke: #000000"/>
    </g>
   </g>
   <g id="text_5">
    <!-- 3CEE -->
    <g transform="translate(269.016027 146.481603) scale(0.12 -0.12)">
     <use xlink:href="#DejaVuSans-33"/>
     <use xlink:href="#DejaVuSans-43" x="63.623047"/>
     <use xlink:href="#DejaVuSans-45" x="133.447266"/>
     <use xlink:href="#DejaVuSans-45" x="196.630859"/>
    </g>
   </g>
  </g>
  <g id="axes_10">
   <g id="PatchCollection_19">
    <path d="M 369.359041 195.152321 
L 373.663881 190.454138 
L 416.911923 197.710206 
L 420.998201 198.415112 
L 427.205141 198.971467 
L 416.202557 213.393373 
L 390.02712 221.474729 
L 369.359041 195.152321 
" clip-path="url(#p7e19873fd3)" style="fill: url(#hd5af8382b3)"/>
   </g>
   <g id="PatchCollection_20"/>
   <g id="LineCollection_17">
    <path d="M 390.02712 221.474729 
L 391.443372 237.216343 
" clip-path="url(#p7e19873fd3)" style="fill: none; stroke: #f2b701; stroke-width: 2"/>
    <path d="M 427.205141 198.971467 
L 390.02712 221.474729 
" clip-path="url(#p7e19873fd3)" style="fill: none; stroke: #f2b701; stroke-width: 2"/>
    <path d="M 427.205141 198.971467 
L 442.874805 200.945107 
" clip-path="url(#p7e19873fd3)" style="fill: none; stroke: #f2b701; stroke-width: 2"/>
    <path d="M 355.913766 186.848299 
L 369.359041 195.152321 
L 390.02712 221.474729 
" clip-path="url(#p7e19873fd3)" style="fill: none; stroke: #f2b701; stroke-width: 2"/>
    <path d="M 433.755595 184.600882 
L 427.205141 198.971467 
" clip-path="url(#p7e19873fd3)" style="fill: none; stroke: #f2b701; stroke-width: 2"/>
   </g>
   <g id="PathCollection_9">
    <g clip-path="url(#p7e19873fd3)">
     <use xlink:href="#mca5cea7be6" x="390.02712" y="221.474729" style="fill: #d3d3d3; stroke: #000000"/>
     <use xlink:href="#mca5cea7be6" x="427.205141" y="198.971467" style="fill: #d3d3d3; stroke: #000000"/>
    </g>
   </g>
  </g>
  <g id="axes_11">
   <g id="PatchCollection_21">
    <path d="M 495.743438 230.700986 
L 504.965614 217.272109 
L 503.576608 206.360282 
L 501.968628 202.121794 
L 495.05957 197.023816 
L 484.644491 195.570326 
L 508.984725 192.16183 
L 526.603319 191.693266 
L 543.724008 190.979125 
L 526.902848 206.394419 
L 511.184051 218.656333 
L 495.743438 230.700986 
" clip-path="url(#p9dd63b4678)" style="fill: url(#hd5af8382b3); stroke: #d3d3d3"/>
   </g>
   <g id="PatchCollection_22"/>
   <g id="LineCollection_18">
    <path d="M 484.791488 239.513103 
L 486.293026 238.430075 
L 495.743438 230.700986 
" clip-path="url(#p9dd63b4678)" style="fill: none; stroke: #11a579; stroke-width: 2"/>
    <path d="M 557.663377 192.753784 
L 543.724008 190.979125 
" clip-path="url(#p9dd63b4678)" style="fill: none; stroke: #11a579; stroke-width: 2"/>
    <path d="M 495.743438 230.700986 
L 511.184051 218.656333 
L 526.902848 206.394419 
L 543.724008 190.979125 
" clip-path="url(#p9dd63b4678)" style="fill: none; stroke: #11a579; stroke-width: 2"/>
    <path d="M 484.644491 195.570326 
L 508.984725 192.16183 
L 526.603319 191.693266 
L 543.724008 190.979125 
" clip-path="url(#p9dd63b4678)" style="fill: none; stroke: #11a579; stroke-width: 2"/>
    <path d="M 484.644491 195.570326 
L 473.791946 196.915835 
L 470.702338 197.303096 
" clip-path="url(#p9dd63b4678)" style="fill: none; stroke: #11a579; stroke-width: 2"/>
    <path d="M 554.773591 182.304121 
L 543.724008 190.979125 
" clip-path="url(#p9dd63b4678)" style="fill: none; stroke: #11a579; stroke-width: 2"/>
   </g>
   <g id="LineCollection_19">
    <path d="M 484.644491 195.570326 
L 495.05957 197.023816 
L 501.968628 202.121794 
L 503.576608 206.360282 
L 504.965614 217.272109 
L 495.743438 230.700986 
" clip-path="url(#p9dd63b4678)" style="fill: none; stroke: #3969ac; stroke-width: 2"/>
   </g>
   <g id="PathCollection_10">
    <g clip-path="url(#p9dd63b4678)">
     <use xlink:href="#mca5cea7be6" x="484.644491" y="195.570326" style="fill: #d3d3d3; stroke: #000000"/>
     <use xlink:href="#mca5cea7be6" x="495.743438" y="230.700986" style="fill: #d3d3d3; stroke: #000000"/>
     <use xlink:href="#mca5cea7be6" x="543.724008" y="190.979125" style="fill: #d3d3d3; stroke: #000000"/>
    </g>
   </g>
   <g id="text_6">
    <!-- 3CCS -->
    <g transform="translate(498.17692 146.481603) scale(0.12 -0.12)">
     <use xlink:href="#DejaVuSans-33"/>
     <use xlink:href="#DejaVuSans-43" x="63.623047"/>
     <use xlink:href="#DejaVuSans-43" x="133.447266"/>
     <use xlink:href="#DejaVuSans-53" x="203.271484"/>
    </g>
   </g>
  </g>
  <g id="axes_12">
   <g id="PatchCollection_23">
    <path d="M 610.53201 230.700986 
L 619.754186 217.272109 
L 618.365179 206.360282 
L 616.757199 202.121794 
L 609.848142 197.023816 
L 599.433062 195.570326 
L 623.773296 192.16183 
L 641.391891 191.693266 
L 658.512579 190.979125 
L 641.69142 206.394419 
L 625.972622 218.656333 
L 610.53201 230.700986 
" clip-path="url(#p6d33018241)" style="fill: url(#hd5af8382b3)"/>
   </g>
   <g id="PatchCollection_24"/>
   <g id="LineCollection_20">
    <path d="M 599.580059 239.513103 
L 601.081598 238.430075 
L 610.53201 230.700986 
L 625.972622 218.656333 
L 641.69142 206.394419 
L 658.512579 190.979125 
" clip-path="url(#p6d33018241)" style="fill: none; stroke: #f2b701; stroke-width: 2"/>
    <path d="M 672.451948 192.753784 
L 658.512579 190.979125 
" clip-path="url(#p6d33018241)" style="fill: none; stroke: #f2b701; stroke-width: 2"/>
    <path d="M 585.490909 197.303096 
L 588.580517 196.915835 
L 599.433062 195.570326 
L 623.773296 192.16183 
L 641.391891 191.693266 
L 658.512579 190.979125 
" clip-path="url(#p6d33018241)" style="fill: none; stroke: #f2b701; stroke-width: 2"/>
    <path d="M 658.512579 190.979125 
L 669.562162 182.304121 
" clip-path="url(#p6d33018241)" style="fill: none; stroke: #f2b701; stroke-width: 2"/>
   </g>
   <g id="PathCollection_11">
    <g clip-path="url(#p6d33018241)">
     <use xlink:href="#mca5cea7be6" x="658.512579" y="190.979125" style="fill: #d3d3d3; stroke: #000000"/>
    </g>
   </g>
  </g>
  <g id="axes_13">
   <g id="PatchCollection_25">
    <path d="M 89.921427 338.924797 
L 84.706041 343.269859 
L 78.41026 347.682738 
L 67.472148 351.441045 
L 33.358683 358.658452 
L 28.079271 357.727729 
L 15.946027 347.065629 
L 73.487992 333.741743 
L 78.624049 330.392905 
L 93.749814 334.024994 
L 89.921427 338.924797 
" clip-path="url(#pe103a6fb4d)" style="fill: url(#hd5af8382b3); stroke: #d3d3d3"/>
   </g>
   <g id="PatchCollection_26"/>
   <g id="LineCollection_21">
    <path d="M 15.946027 347.065629 
L 28.079271 357.727729 
L 33.358683 358.658452 
L 67.472148 351.441045 
L 78.41026 347.682738 
L 84.706041 343.269859 
L 89.921427 338.924797 
" clip-path="url(#pe103a6fb4d)" style="fill: none; stroke: #11a579; stroke-width: 2"/>
    <path d="M 89.921427 338.924797 
L 93.749814 334.024994 
" clip-path="url(#pe103a6fb4d)" style="fill: none; stroke: #11a579; stroke-width: 2"/>
    <path d="M 93.749814 334.024994 
L 98.509091 326.9603 
" clip-path="url(#pe103a6fb4d)" style="fill: none; stroke: #11a579; stroke-width: 2"/>
    <path d="M 11.548052 339.764911 
L 15.946027 347.065629 
" clip-path="url(#pe103a6fb4d)" style="fill: none; stroke: #11a579; stroke-width: 2"/>
   </g>
   <g id="LineCollection_22">
    <path d="M 78.624049 330.392905 
L 93.749814 334.024994 
" clip-path="url(#pe103a6fb4d)" style="fill: none; stroke: #e73f74; stroke-width: 2"/>
    <path d="M 73.602375 323.485729 
L 78.624049 330.392905 
" clip-path="url(#pe103a6fb4d)" style="fill: none; stroke: #e73f74; stroke-width: 2"/>
   </g>
   <g id="LineCollection_23">
    <path d="M 78.624049 330.392905 
L 73.487992 333.741743 
L 15.946027 347.065629 
" clip-path="url(#pe103a6fb4d)" style="fill: none; stroke: #3969ac; stroke-width: 2"/>
   </g>
   <g id="LineCollection_24">
    <path d="M 75.933954 355.821639 
L 75.994451 354.864035 
L 79.049309 350.059772 
L 89.728979 343.152241 
L 89.921427 338.924797 
" clip-path="url(#pe103a6fb4d)" style="fill: none; stroke: #bbbbbb; stroke-width: 2"/>
   </g>
   <g id="PathCollection_12">
    <g clip-path="url(#pe103a6fb4d)">
     <use xlink:href="#mca5cea7be6" x="78.624049" y="330.392905" style="fill: #d3d3d3; stroke: #000000"/>
     <use xlink:href="#mca5cea7be6" x="89.921427" y="338.924797" style="fill: #d3d3d3; stroke: #000000"/>
     <use xlink:href="#mca5cea7be6" x="15.946027" y="347.065629" style="fill: #d3d3d3; stroke: #000000"/>
     <use xlink:href="#mca5cea7be6" x="93.749814" y="334.024994" style="fill: #d3d3d3; stroke: #000000"/>
    </g>
   </g>
   <g id="text_7">
    <!-- 4CES -->
    <g transform="translate(39.421071 276.645082) scale(0.12 -0.12)">
     <defs>
      <path id="DejaVuSans-34" d="M 2419 4116 
L 825 1625 
L 2419 1625 
L 2419 4116 
z
M 2253 4666 
L 3047 4666 
L 3047 1625 
L 3713 1625 
L 3713 1100 
L 3047 1100 
L 3047 0 
L 2419 0 
L 2419 1100 
L 313 1100 
L 313 1709 
L 2253 4666 
z
" transform="scale(0.015625)"/>
     </defs>
     <use xlink:href="#DejaVuSans-34"/>
     <use xlink:href="#DejaVuSans-43" x="63.623047"/>
     <use xlink:href="#DejaVuSans-45" x="133.447266"/>
     <use xlink:href="#DejaVuSans-53" x="196.630859"/>
    </g>
   </g>
  </g>
  <g id="axes_14">
   <g id="PatchCollection_27">
    <path d="M 204.709998 338.924797 
L 199.494612 343.269859 
L 193.198831 347.682738 
L 182.260719 351.441045 
L 148.147254 358.658452 
L 142.867843 357.727729 
L 130.734598 347.065629 
L 188.276563 333.741743 
L 193.412621 330.392905 
L 208.538385 334.024994 
L 204.709998 338.924797 
" clip-path="url(#p670e5ddfad)" style="fill: url(#hd5af8382b3)"/>
   </g>
   <g id="PatchCollection_28"/>
   <g id="LineCollection_25">
    <path d="M 190.722525 355.821639 
L 190.783023 354.864035 
L 193.837881 350.059772 
L 204.51755 343.152241 
L 204.709998 338.924797 
" clip-path="url(#p670e5ddfad)" style="fill: none; stroke: #f2b701; stroke-width: 2"/>
    <path d="M 188.390946 323.485729 
L 193.412621 330.392905 
L 194.722856 337.980344 
L 202.003598 336.302045 
L 204.709998 338.924797 
" clip-path="url(#p670e5ddfad)" style="fill: none; stroke: #f2b701; stroke-width: 2"/>
    <path d="M 204.709998 338.924797 
L 208.538385 334.024994 
L 213.297662 326.9603 
" clip-path="url(#p670e5ddfad)" style="fill: none; stroke: #f2b701; stroke-width: 2"/>
    <path d="M 126.336623 339.764911 
L 130.734598 347.065629 
L 142.867843 357.727729 
L 148.147254 358.658452 
L 182.260719 351.441045 
L 193.198831 347.682738 
L 199.494612 343.269859 
L 204.709998 338.924797 
" clip-path="url(#p670e5ddfad)" style="fill: none; stroke: #f2b701; stroke-width: 2"/>
   </g>
   <g id="PathCollection_13">
    <g clip-path="url(#p670e5ddfad)">
     <use xlink:href="#mca5cea7be6" x="190.722525" y="355.821639" style="fill: #d3d3d3; stroke: #000000"/>
     <use xlink:href="#mca5cea7be6" x="204.709998" y="338.924797" style="fill: #d3d3d3; stroke: #000000"/>
    </g>
   </g>
  </g>
  <g id="axes_15">
   <g id="PatchCollection_29">
    <path d="M 304.839847 353.541102 
L 302.650693 351.951663 
L 301.16495 351.272589 
L 298.264135 351.375502 
L 293.317787 352.163836 
L 290.898252 353.913134 
L 288.252655 355.250208 
L 285.679644 358.633392 
L 284.789066 361.133914 
L 283.321194 356.458251 
L 280.550897 354.28021 
L 277.991773 352.094677 
L 273.932639 348.719135 
L 269.603412 347.454388 
L 277.246928 339.881518 
L 281.005949 335.738348 
L 283.280217 333.031148 
L 286.30947 329.334107 
L 288.331902 319.841908 
L 302.213817 350.09722 
L 303.150707 351.325645 
L 304.839847 353.541102 
" clip-path="url(#paeb1c494eb)" style="fill: url(#hd5af8382b3); stroke: #d3d3d3"/>
   </g>
   <g id="PatchCollection_30"/>
   <g id="LineCollection_26">
    <path d="M 304.839847 353.541102 
L 306.691817 355.616769 
L 313.503125 362.479096 
L 323.093336 368.449628 
" clip-path="url(#paeb1c494eb)" style="fill: none; stroke: #11a579; stroke-width: 2"/>
    <path d="M 287.561943 384.55261 
L 287.335119 377.380545 
L 285.953873 370.12782 
L 284.789066 361.133914 
" clip-path="url(#paeb1c494eb)" style="fill: none; stroke: #11a579; stroke-width: 2"/>
    <path d="M 284.789066 361.133914 
L 283.321194 356.458251 
L 280.550897 354.28021 
L 277.991773 352.094677 
L 273.932639 348.719135 
L 269.603412 347.454388 
" clip-path="url(#paeb1c494eb)" style="fill: none; stroke: #11a579; stroke-width: 2"/>
    <path d="M 269.603412 347.454388 
L 256.879327 347.012729 
L 246.118093 345.204457 
" clip-path="url(#paeb1c494eb)" style="fill: none; stroke: #11a579; stroke-width: 2"/>
    <path d="M 288.331902 319.841908 
L 302.213817 350.09722 
L 303.150707 351.325645 
L 304.839847 353.541102 
" clip-path="url(#paeb1c494eb)" style="fill: none; stroke: #11a579; stroke-width: 2"/>
    <path d="M 280.542967 297.591571 
L 285.631175 312.723544 
L 288.331902 319.841908 
" clip-path="url(#paeb1c494eb)" style="fill: none; stroke: #11a579; stroke-width: 2"/>
   </g>
   <g id="LineCollection_27">
    <path d="M 284.789066 361.133914 
L 285.679644 358.633392 
L 288.252655 355.250208 
L 290.898252 353.913134 
L 293.317787 352.163836 
L 298.264135 351.375502 
L 301.16495 351.272589 
L 302.650693 351.951663 
L 304.839847 353.541102 
" clip-path="url(#paeb1c494eb)" style="fill: none; stroke: #3969ac; stroke-width: 2"/>
    <path d="M 288.331902 319.841908 
L 286.30947 329.334107 
L 283.280217 333.031148 
L 281.005949 335.738348 
L 277.246928 339.881518 
L 269.603412 347.454388 
" clip-path="url(#paeb1c494eb)" style="fill: none; stroke: #3969ac; stroke-width: 2"/>
   </g>
   <g id="LineCollection_28">
    <path d="M 321.890626 336.401758 
L 306.656122 353.201219 
L 304.839847 353.541102 
" clip-path="url(#paeb1c494eb)" style="fill: none; stroke: #bbbbbb; stroke-width: 2"/>
   </g>
   <g id="PathCollection_14">
    <g clip-path="url(#paeb1c494eb)">
     <use xlink:href="#mca5cea7be6" x="284.789066" y="361.133914" style="fill: #d3d3d3; stroke: #000000"/>
     <use xlink:href="#mca5cea7be6" x="288.331902" y="319.841908" style="fill: #d3d3d3; stroke: #000000"/>
     <use xlink:href="#mca5cea7be6" x="304.839847" y="353.541102" style="fill: #d3d3d3; stroke: #000000"/>
     <use xlink:href="#mca5cea7be6" x="269.603412" y="347.454388" style="fill: #d3d3d3; stroke: #000000"/>
    </g>
   </g>
   <g id="text_8">
    <!-- 4CCSS -->
    <g transform="translate(264.790714 276.645082) scale(0.12 -0.12)">
     <use xlink:href="#DejaVuSans-34"/>
     <use xlink:href="#DejaVuSans-43" x="63.623047"/>
     <use xlink:href="#DejaVuSans-43" x="133.447266"/>
     <use xlink:href="#DejaVuSans-53" x="203.271484"/>
     <use xlink:href="#DejaVuSans-53" x="266.748047"/>
    </g>
   </g>
  </g>
  <g id="axes_16">
   <g id="PatchCollection_31">
    <path d="M 419.628419 353.541102 
L 417.439264 351.951663 
L 415.953521 351.272589 
L 413.052706 351.375502 
L 408.106359 352.163836 
L 405.686823 353.913134 
L 403.041226 355.250208 
L 400.468215 358.633392 
L 399.577637 361.133914 
L 398.109765 356.458251 
L 395.339469 354.28021 
L 392.780344 352.094677 
L 388.721211 348.719135 
L 384.391983 347.454388 
L 392.0355 339.881518 
L 395.794521 335.738348 
L 398.068789 333.031148 
L 401.098041 329.334107 
L 403.120474 319.841908 
L 417.002388 350.09722 
L 417.939279 351.325645 
L 419.628419 353.541102 
" clip-path="url(#p6b52ee99aa)" style="fill: url(#hd5af8382b3)"/>
   </g>
   <g id="PatchCollection_32"/>
   <g id="LineCollection_29">
    <path d="M 419.628419 353.541102 
L 421.480389 355.616769 
L 428.291697 362.479096 
L 437.881907 368.449628 
" clip-path="url(#p6b52ee99aa)" style="fill: none; stroke: #f2b701; stroke-width: 2"/>
    <path d="M 402.350514 384.55261 
L 402.12369 377.380545 
L 400.742444 370.12782 
L 399.577637 361.133914 
L 398.109765 356.458251 
L 395.339469 354.28021 
L 394.07352 353.19907 
" clip-path="url(#p6b52ee99aa)" style="fill: none; stroke: #f2b701; stroke-width: 2"/>
    <path d="M 394.07352 353.19907 
L 401.520233 344.47943 
L 419.628419 353.541102 
" clip-path="url(#p6b52ee99aa)" style="fill: none; stroke: #f2b701; stroke-width: 2"/>
    <path d="M 394.07352 353.19907 
L 392.780344 352.094677 
L 388.721211 348.719135 
L 384.391983 347.454388 
L 371.667898 347.012729 
L 360.906664 345.204457 
" clip-path="url(#p6b52ee99aa)" style="fill: none; stroke: #f2b701; stroke-width: 2"/>
    <path d="M 436.679197 336.401758 
L 421.444694 353.201219 
L 419.628419 353.541102 
" clip-path="url(#p6b52ee99aa)" style="fill: none; stroke: #f2b701; stroke-width: 2"/>
    <path d="M 395.331538 297.591571 
L 400.419746 312.723544 
L 403.120474 319.841908 
L 417.002388 350.09722 
L 417.939279 351.325645 
L 419.628419 353.541102 
" clip-path="url(#p6b52ee99aa)" style="fill: none; stroke: #f2b701; stroke-width: 2"/>
   </g>
   <g id="PathCollection_15">
    <g clip-path="url(#p6b52ee99aa)">
     <use xlink:href="#mca5cea7be6" x="419.628419" y="353.541102" style="fill: #d3d3d3; stroke: #000000"/>
     <use xlink:href="#mca5cea7be6" x="394.07352" y="353.19907" style="fill: #d3d3d3; stroke: #000000"/>
    </g>
   </g>
  </g>
  <g id="axes_17">
   <g id="PatchCollection_33">
    <path d="M 523.887257 362.897506 
L 511.646943 358.167202 
L 507.024226 357.323766 
L 510.115709 316.256093 
L 530.94787 336.693765 
L 528.825661 344.587279 
L 523.887257 362.897506 
" clip-path="url(#p2714bd6b9f)" style="fill: url(#hd5af8382b3); stroke: #d3d3d3"/>
   </g>
   <g id="PatchCollection_34"/>
   <g id="LineCollection_30">
    <path d="M 523.887257 362.897506 
L 522.130725 384.55261 
" clip-path="url(#p2714bd6b9f)" style="fill: none; stroke: #11a579; stroke-width: 2"/>
    <path d="M 523.887257 362.897506 
L 528.825661 344.587279 
L 530.94787 336.693765 
" clip-path="url(#p2714bd6b9f)" style="fill: none; stroke: #11a579; stroke-width: 2"/>
    <path d="M 530.94787 336.693765 
L 538.539646 313.694805 
" clip-path="url(#p2714bd6b9f)" style="fill: none; stroke: #11a579; stroke-width: 2"/>
   </g>
   <g id="LineCollection_31">
    <path d="M 507.024226 357.323766 
L 499.20649 360.249323 
L 489.826068 370.570174 
" clip-path="url(#p2714bd6b9f)" style="fill: none; stroke: #e73f74; stroke-width: 2"/>
    <path d="M 507.024226 357.323766 
L 511.646943 358.167202 
L 523.887257 362.897506 
" clip-path="url(#p2714bd6b9f)" style="fill: none; stroke: #e73f74; stroke-width: 2"/>
    <path d="M 510.115709 316.256093 
L 530.94787 336.693765 
" clip-path="url(#p2714bd6b9f)" style="fill: none; stroke: #e73f74; stroke-width: 2"/>
    <path d="M 499.022224 297.591571 
L 503.344801 304.357601 
L 505.83992 307.482468 
L 510.115709 316.256093 
" clip-path="url(#p2714bd6b9f)" style="fill: none; stroke: #e73f74; stroke-width: 2"/>
   </g>
   <g id="LineCollection_32">
    <path d="M 507.024226 357.323766 
L 510.115709 316.256093 
" clip-path="url(#p2714bd6b9f)" style="fill: none; stroke: #3969ac; stroke-width: 2"/>
   </g>
   <g id="PathCollection_16">
    <g clip-path="url(#p2714bd6b9f)">
     <use xlink:href="#mca5cea7be6" x="507.024226" y="357.323766" style="fill: #d3d3d3; stroke: #000000"/>
     <use xlink:href="#mca5cea7be6" x="523.887257" y="362.897506" style="fill: #d3d3d3; stroke: #000000"/>
     <use xlink:href="#mca5cea7be6" x="510.115709" y="316.256093" style="fill: #d3d3d3; stroke: #000000"/>
     <use xlink:href="#mca5cea7be6" x="530.94787" y="336.693765" style="fill: #d3d3d3; stroke: #000000"/>
    </g>
   </g>
   <g id="text_9">
    <!-- 4CEES -->
    <g transform="translate(494.784107 276.645082) scale(0.12 -0.12)">
     <use xlink:href="#DejaVuSans-34"/>
     <use xlink:href="#DejaVuSans-43" x="63.623047"/>
     <use xlink:href="#DejaVuSans-45" x="133.447266"/>
     <use xlink:href="#DejaVuSans-45" x="196.630859"/>
     <use xlink:href="#DejaVuSans-53" x="259.814453"/>
    </g>
   </g>
  </g>
  <g id="axes_18">
   <g id="PatchCollection_35">
    <path d="M 638.675828 362.897506 
L 626.435515 358.167202 
L 621.812797 357.323766 
L 624.904281 316.256093 
L 645.736441 336.693765 
L 643.614232 344.587279 
L 638.675828 362.897506 
" clip-path="url(#p5ca2a6868f)" style="fill: url(#hd5af8382b3)"/>
   </g>
   <g id="PatchCollection_36"/>
   <g id="LineCollection_33">
    <path d="M 604.61464 370.570174 
L 613.995061 360.249323 
L 621.812797 357.323766 
L 638.020805 347.928675 
" clip-path="url(#p5ca2a6868f)" style="fill: none; stroke: #f2b701; stroke-width: 2"/>
    <path d="M 636.919296 384.55261 
L 638.675828 362.897506 
L 642.298854 349.464336 
" clip-path="url(#p5ca2a6868f)" style="fill: none; stroke: #f2b701; stroke-width: 2"/>
    <path d="M 638.020805 347.928675 
L 642.298854 349.464336 
" clip-path="url(#p5ca2a6868f)" style="fill: none; stroke: #f2b701; stroke-width: 2"/>
    <path d="M 613.810795 297.591571 
L 618.133373 304.357601 
L 620.628492 307.482468 
L 624.904281 316.256093 
L 638.020805 347.928675 
" clip-path="url(#p5ca2a6868f)" style="fill: none; stroke: #f2b701; stroke-width: 2"/>
    <path d="M 642.298854 349.464336 
L 643.614232 344.587279 
L 645.736441 336.693765 
L 653.328218 313.694805 
" clip-path="url(#p5ca2a6868f)" style="fill: none; stroke: #f2b701; stroke-width: 2"/>
   </g>
   <g id="PathCollection_17">
    <g clip-path="url(#p5ca2a6868f)">
     <use xlink:href="#mca5cea7be6" x="642.298854" y="349.464336" style="fill: #d3d3d3; stroke: #000000"/>
     <use xlink:href="#mca5cea7be6" x="638.020805" y="347.928675" style="fill: #d3d3d3; stroke: #000000"/>
    </g>
   </g>
  </g>
  <g id="axes_19">
   <g id="PatchCollection_37">
    <path d="M 43.315381 494.640175 
L 39.664378 491.840157 
L 27.190706 469.872314 
L 33.916267 465.365335 
L 66.809061 445.522388 
L 70.890931 453.899042 
L 76.042368 462.334057 
L 80.365761 467.182527 
L 55.874338 485.467006 
L 43.315381 494.640175 
" clip-path="url(#pd6b4eb066a)" style="fill: url(#hd5af8382b3); stroke: #d3d3d3"/>
   </g>
   <g id="PatchCollection_38"/>
   <g id="LineCollection_34">
    <path d="M 43.315381 494.640175 
L 29.868797 503.789371 
L 27.990983 505.833146 
" clip-path="url(#pd6b4eb066a)" style="fill: none; stroke: #11a579; stroke-width: 2"/>
    <path d="M 11.548052 479.273832 
L 27.190706 469.872314 
" clip-path="url(#pd6b4eb066a)" style="fill: none; stroke: #11a579; stroke-width: 2"/>
    <path d="M 43.315381 494.640175 
L 55.874338 485.467006 
L 80.365761 467.182527 
" clip-path="url(#pd6b4eb066a)" style="fill: none; stroke: #11a579; stroke-width: 2"/>
    <path d="M 33.916267 465.365335 
L 27.190706 469.872314 
" clip-path="url(#pd6b4eb066a)" style="fill: none; stroke: #11a579; stroke-width: 2"/>
    <path d="M 80.365761 467.182527 
L 87.549401 466.775541 
L 98.509091 465.477761 
" clip-path="url(#pd6b4eb066a)" style="fill: none; stroke: #11a579; stroke-width: 2"/>
    <path d="M 66.809061 445.522388 
L 33.916267 465.365335 
" clip-path="url(#pd6b4eb066a)" style="fill: none; stroke: #11a579; stroke-width: 2"/>
    <path d="M 82.720309 436.637991 
L 66.809061 445.522388 
" clip-path="url(#pd6b4eb066a)" style="fill: none; stroke: #11a579; stroke-width: 2"/>
   </g>
   <g id="LineCollection_35">
    <path d="M 43.315381 494.640175 
L 39.664378 491.840157 
L 27.190706 469.872314 
" clip-path="url(#pd6b4eb066a)" style="fill: none; stroke: #3969ac; stroke-width: 2"/>
    <path d="M 66.809061 445.522388 
L 70.890931 453.899042 
L 76.042368 462.334057 
L 80.365761 467.182527 
" clip-path="url(#pd6b4eb066a)" style="fill: none; stroke: #3969ac; stroke-width: 2"/>
   </g>
   <g id="LineCollection_36">
    <path d="M 17.730021 454.249425 
L 20.057255 454.803256 
L 33.916267 465.365335 
" clip-path="url(#pd6b4eb066a)" style="fill: none; stroke: #bbbbbb; stroke-width: 2"/>
   </g>
   <g id="PathCollection_18">
    <g clip-path="url(#pd6b4eb066a)">
     <use xlink:href="#mca5cea7be6" x="43.315381" y="494.640175" style="fill: #d3d3d3; stroke: #000000"/>
     <use xlink:href="#mca5cea7be6" x="33.916267" y="465.365335" style="fill: #d3d3d3; stroke: #000000"/>
     <use xlink:href="#mca5cea7be6" x="66.809061" y="445.522388" style="fill: #d3d3d3; stroke: #000000"/>
     <use xlink:href="#mca5cea7be6" x="27.190706" y="469.872314" style="fill: #d3d3d3; stroke: #000000"/>
     <use xlink:href="#mca5cea7be6" x="80.365761" y="467.182527" style="fill: #d3d3d3; stroke: #000000"/>
    </g>
   </g>
   <g id="text_10">
    <!-- 5CCSS -->
    <g transform="translate(35.213571 406.80856) scale(0.12 -0.12)">
     <defs>
      <path id="DejaVuSans-35" d="M 691 4666 
L 3169 4666 
L 3169 4134 
L 1269 4134 
L 1269 2991 
Q 1406 3038 1543 3061 
Q 1681 3084 1819 3084 
Q 2600 3084 3056 2656 
Q 3513 2228 3513 1497 
Q 3513 744 3044 326 
Q 2575 -91 1722 -91 
Q 1428 -91 1123 -41 
Q 819 9 494 109 
L 494 744 
Q 775 591 1075 516 
Q 1375 441 1709 441 
Q 2250 441 2565 725 
Q 2881 1009 2881 1497 
Q 2881 1984 2565 2268 
Q 2250 2553 1709 2553 
Q 1456 2553 1204 2497 
Q 953 2441 691 2322 
L 691 4666 
z
" transform="scale(0.015625)"/>
     </defs>
     <use xlink:href="#DejaVuSans-35"/>
     <use xlink:href="#DejaVuSans-43" x="63.623047"/>
     <use xlink:href="#DejaVuSans-43" x="133.447266"/>
     <use xlink:href="#DejaVuSans-53" x="203.271484"/>
     <use xlink:href="#DejaVuSans-53" x="266.748047"/>
    </g>
   </g>
  </g>
  <g id="axes_20">
   <g id="PatchCollection_39">
    <path d="M 158.103953 494.640175 
L 154.452949 491.840157 
L 141.979277 469.872314 
L 148.704839 465.365335 
L 181.597632 445.522388 
L 185.679503 453.899042 
L 190.83094 462.334057 
L 195.154333 467.182527 
L 170.662909 485.467006 
L 158.103953 494.640175 
" clip-path="url(#p708e92603f)" style="fill: url(#hd5af8382b3)"/>
   </g>
   <g id="PatchCollection_40"/>
   <g id="LineCollection_37">
    <path d="M 142.779554 505.833146 
L 144.657369 503.789371 
L 158.103953 494.640175 
L 165.918433 488.932412 
" clip-path="url(#p708e92603f)" style="fill: none; stroke: #f2b701; stroke-width: 2"/>
    <path d="M 126.336623 479.273832 
L 141.979277 469.872314 
L 148.704839 465.365335 
" clip-path="url(#p708e92603f)" style="fill: none; stroke: #f2b701; stroke-width: 2"/>
    <path d="M 148.704839 465.365335 
L 165.918433 488.932412 
" clip-path="url(#p708e92603f)" style="fill: none; stroke: #f2b701; stroke-width: 2"/>
    <path d="M 165.918433 488.932412 
L 170.662909 485.467006 
L 195.154333 467.182527 
L 202.337972 466.775541 
L 213.297662 465.477761 
" clip-path="url(#p708e92603f)" style="fill: none; stroke: #f2b701; stroke-width: 2"/>
    <path d="M 132.518593 454.249425 
L 134.845827 454.803256 
L 148.704839 465.365335 
" clip-path="url(#p708e92603f)" style="fill: none; stroke: #f2b701; stroke-width: 2"/>
    <path d="M 197.508881 436.637991 
L 181.597632 445.522388 
L 148.704839 465.365335 
" clip-path="url(#p708e92603f)" style="fill: none; stroke: #f2b701; stroke-width: 2"/>
   </g>
   <g id="PathCollection_19">
    <g clip-path="url(#p708e92603f)">
     <use xlink:href="#mca5cea7be6" x="165.918433" y="488.932412" style="fill: #d3d3d3; stroke: #000000"/>
     <use xlink:href="#mca5cea7be6" x="148.704839" y="465.365335" style="fill: #d3d3d3; stroke: #000000"/>
    </g>
   </g>
   <g id="legend_1">
    <g id="line2d_1">
     <path d="M 85.059286 533.181595 
L 95.059286 533.181595 
L 105.059286 533.181595 
" style="fill: none; stroke: #11a579; stroke-linecap: square"/>
    </g>
    <g id="text_11">
     <!-- continuous -->
     <g transform="translate(113.059286 536.681595) scale(0.1 -0.1)">
      <defs>
       <path id="DejaVuSans-63" d="M 3122 3366 
L 3122 2828 
Q 2878 2963 2633 3030 
Q 2388 3097 2138 3097 
Q 1578 3097 1268 2742 
Q 959 2388 959 1747 
Q 959 1106 1268 751 
Q 1578 397 2138 397 
Q 2388 397 2633 464 
Q 2878 531 3122 666 
L 3122 134 
Q 2881 22 2623 -34 
Q 2366 -91 2075 -91 
Q 1284 -91 818 406 
Q 353 903 353 1747 
Q 353 2603 823 3093 
Q 1294 3584 2113 3584 
Q 2378 3584 2631 3529 
Q 2884 3475 3122 3366 
z
" transform="scale(0.015625)"/>
       <path id="DejaVuSans-6f" d="M 1959 3097 
Q 1497 3097 1228 2736 
Q 959 2375 959 1747 
Q 959 1119 1226 758 
Q 1494 397 1959 397 
Q 2419 397 2687 759 
Q 2956 1122 2956 1747 
Q 2956 2369 2687 2733 
Q 2419 3097 1959 3097 
z
M 1959 3584 
Q 2709 3584 3137 3096 
Q 3566 2609 3566 1747 
Q 3566 888 3137 398 
Q 2709 -91 1959 -91 
Q 1206 -91 779 398 
Q 353 888 353 1747 
Q 353 2609 779 3096 
Q 1206 3584 1959 3584 
z
" transform="scale(0.015625)"/>
       <path id="DejaVuSans-6e" d="M 3513 2113 
L 3513 0 
L 2938 0 
L 2938 2094 
Q 2938 2591 2744 2837 
Q 2550 3084 2163 3084 
Q 1697 3084 1428 2787 
Q 1159 2491 1159 1978 
L 1159 0 
L 581 0 
L 581 3500 
L 1159 3500 
L 1159 2956 
Q 1366 3272 1645 3428 
Q 1925 3584 2291 3584 
Q 2894 3584 3203 3211 
Q 3513 2838 3513 2113 
z
" transform="scale(0.015625)"/>
       <path id="DejaVuSans-74" d="M 1172 4494 
L 1172 3500 
L 2356 3500 
L 2356 3053 
L 1172 3053 
L 1172 1153 
Q 1172 725 1289 603 
Q 1406 481 1766 481 
L 2356 481 
L 2356 0 
L 1766 0 
Q 1100 0 847 248 
Q 594 497 594 1153 
L 594 3053 
L 172 3053 
L 172 3500 
L 594 3500 
L 594 4494 
L 1172 4494 
z
" transform="scale(0.015625)"/>
       <path id="DejaVuSans-69" d="M 603 3500 
L 1178 3500 
L 1178 0 
L 603 0 
L 603 3500 
z
M 603 4863 
L 1178 4863 
L 1178 4134 
L 603 4134 
L 603 4863 
z
" transform="scale(0.015625)"/>
       <path id="DejaVuSans-75" d="M 544 1381 
L 544 3500 
L 1119 3500 
L 1119 1403 
Q 1119 906 1312 657 
Q 1506 409 1894 409 
Q 2359 409 2629 706 
Q 2900 1003 2900 1516 
L 2900 3500 
L 3475 3500 
L 3475 0 
L 2900 0 
L 2900 538 
Q 2691 219 2414 64 
Q 2138 -91 1772 -91 
Q 1169 -91 856 284 
Q 544 659 544 1381 
z
M 1991 3584 
L 1991 3584 
z
" transform="scale(0.015625)"/>
       <path id="DejaVuSans-73" d="M 2834 3397 
L 2834 2853 
Q 2591 2978 2328 3040 
Q 2066 3103 1784 3103 
Q 1356 3103 1142 2972 
Q 928 2841 928 2578 
Q 928 2378 1081 2264 
Q 1234 2150 1697 2047 
L 1894 2003 
Q 2506 1872 2764 1633 
Q 3022 1394 3022 966 
Q 3022 478 2636 193 
Q 2250 -91 1575 -91 
Q 1294 -91 989 -36 
Q 684 19 347 128 
L 347 722 
Q 666 556 975 473 
Q 1284 391 1588 391 
Q 1994 391 2212 530 
Q 2431 669 2431 922 
Q 2431 1156 2273 1281 
Q 2116 1406 1581 1522 
L 1381 1569 
Q 847 1681 609 1914 
Q 372 2147 372 2553 
Q 372 3047 722 3315 
Q 1072 3584 1716 3584 
Q 2034 3584 2315 3537 
Q 2597 3491 2834 3397 
z
" transform="scale(0.015625)"/>
      </defs>
      <use xlink:href="#DejaVuSans-63"/>
      <use xlink:href="#DejaVuSans-6f" x="54.980469"/>
      <use xlink:href="#DejaVuSans-6e" x="116.162109"/>
      <use xlink:href="#DejaVuSans-74" x="179.541016"/>
      <use xlink:href="#DejaVuSans-69" x="218.75"/>
      <use xlink:href="#DejaVuSans-6e" x="246.533203"/>
      <use xlink:href="#DejaVuSans-75" x="309.912109"/>
      <use xlink:href="#DejaVuSans-6f" x="373.291016"/>
      <use xlink:href="#DejaVuSans-75" x="434.472656"/>
      <use xlink:href="#DejaVuSans-73" x="497.851562"/>
     </g>
    </g>
    <g id="line2d_2">
     <path d="M 188.053036 533.181595 
L 198.053036 533.181595 
L 208.053036 533.181595 
" style="fill: none; stroke: #e73f74; stroke-linecap: square"/>
    </g>
    <g id="text_12">
     <!-- ending -->
     <g transform="translate(216.053036 536.681595) scale(0.1 -0.1)">
      <defs>
       <path id="DejaVuSans-65" d="M 3597 1894 
L 3597 1613 
L 953 1613 
Q 991 1019 1311 708 
Q 1631 397 2203 397 
Q 2534 397 2845 478 
Q 3156 559 3463 722 
L 3463 178 
Q 3153 47 2828 -22 
Q 2503 -91 2169 -91 
Q 1331 -91 842 396 
Q 353 884 353 1716 
Q 353 2575 817 3079 
Q 1281 3584 2069 3584 
Q 2775 3584 3186 3129 
Q 3597 2675 3597 1894 
z
M 3022 2063 
Q 3016 2534 2758 2815 
Q 2500 3097 2075 3097 
Q 1594 3097 1305 2825 
Q 1016 2553 972 2059 
L 3022 2063 
z
" transform="scale(0.015625)"/>
       <path id="DejaVuSans-64" d="M 2906 2969 
L 2906 4863 
L 3481 4863 
L 3481 0 
L 2906 0 
L 2906 525 
Q 2725 213 2448 61 
Q 2172 -91 1784 -91 
Q 1150 -91 751 415 
Q 353 922 353 1747 
Q 353 2572 751 3078 
Q 1150 3584 1784 3584 
Q 2172 3584 2448 3432 
Q 2725 3281 2906 2969 
z
M 947 1747 
Q 947 1113 1208 752 
Q 1469 391 1925 391 
Q 2381 391 2643 752 
Q 2906 1113 2906 1747 
Q 2906 2381 2643 2742 
Q 2381 3103 1925 3103 
Q 1469 3103 1208 2742 
Q 947 2381 947 1747 
z
" transform="scale(0.015625)"/>
       <path id="DejaVuSans-67" d="M 2906 1791 
Q 2906 2416 2648 2759 
Q 2391 3103 1925 3103 
Q 1463 3103 1205 2759 
Q 947 2416 947 1791 
Q 947 1169 1205 825 
Q 1463 481 1925 481 
Q 2391 481 2648 825 
Q 2906 1169 2906 1791 
z
M 3481 434 
Q 3481 -459 3084 -895 
Q 2688 -1331 1869 -1331 
Q 1566 -1331 1297 -1286 
Q 1028 -1241 775 -1147 
L 775 -588 
Q 1028 -725 1275 -790 
Q 1522 -856 1778 -856 
Q 2344 -856 2625 -561 
Q 2906 -266 2906 331 
L 2906 616 
Q 2728 306 2450 153 
Q 2172 0 1784 0 
Q 1141 0 747 490 
Q 353 981 353 1791 
Q 353 2603 747 3093 
Q 1141 3584 1784 3584 
Q 2172 3584 2450 3431 
Q 2728 3278 2906 2969 
L 2906 3500 
L 3481 3500 
L 3481 434 
z
" transform="scale(0.015625)"/>
      </defs>
      <use xlink:href="#DejaVuSans-65"/>
      <use xlink:href="#DejaVuSans-6e" x="61.523438"/>
      <use xlink:href="#DejaVuSans-64" x="124.902344"/>
      <use xlink:href="#DejaVuSans-69" x="188.378906"/>
      <use xlink:href="#DejaVuSans-6e" x="216.162109"/>
      <use xlink:href="#DejaVuSans-67" x="279.541016"/>
     </g>
    </g>
    <g id="line2d_3">
     <path d="M 270.356161 533.181595 
L 280.356161 533.181595 
L 290.356161 533.181595 
" style="fill: none; stroke: #3969ac; stroke-linecap: square"/>
    </g>
    <g id="text_13">
     <!-- single -->
     <g transform="translate(298.356161 536.681595) scale(0.1 -0.1)">
      <defs>
       <path id="DejaVuSans-6c" d="M 603 4863 
L 1178 4863 
L 1178 0 
L 603 0 
L 603 4863 
z
" transform="scale(0.015625)"/>
      </defs>
      <use xlink:href="#DejaVuSans-73"/>
      <use xlink:href="#DejaVuSans-69" x="52.099609"/>
      <use xlink:href="#DejaVuSans-6e" x="79.882812"/>
      <use xlink:href="#DejaVuSans-67" x="143.261719"/>
      <use xlink:href="#DejaVuSans-6c" x="206.738281"/>
      <use xlink:href="#DejaVuSans-65" x="234.521484"/>
     </g>
    </g>
    <g id="line2d_4">
     <path d="M 347.960848 533.181595 
L 357.960848 533.181595 
L 367.960848 533.181595 
" style="fill: none; stroke: #bbbbbb; stroke-linecap: square"/>
    </g>
    <g id="text_14">
     <!-- adjacent -->
     <g transform="translate(375.960848 536.681595) scale(0.1 -0.1)">
      <defs>
       <path id="DejaVuSans-61" d="M 2194 1759 
Q 1497 1759 1228 1600 
Q 959 1441 959 1056 
Q 959 750 1161 570 
Q 1363 391 1709 391 
Q 2188 391 2477 730 
Q 2766 1069 2766 1631 
L 2766 1759 
L 2194 1759 
z
M 3341 1997 
L 3341 0 
L 2766 0 
L 2766 531 
Q 2569 213 2275 61 
Q 1981 -91 1556 -91 
Q 1019 -91 701 211 
Q 384 513 384 1019 
Q 384 1609 779 1909 
Q 1175 2209 1959 2209 
L 2766 2209 
L 2766 2266 
Q 2766 2663 2505 2880 
Q 2244 3097 1772 3097 
Q 1472 3097 1187 3025 
Q 903 2953 641 2809 
L 641 3341 
Q 956 3463 1253 3523 
Q 1550 3584 1831 3584 
Q 2591 3584 2966 3190 
Q 3341 2797 3341 1997 
z
" transform="scale(0.015625)"/>
       <path id="DejaVuSans-6a" d="M 603 3500 
L 1178 3500 
L 1178 -63 
Q 1178 -731 923 -1031 
Q 669 -1331 103 -1331 
L -116 -1331 
L -116 -844 
L 38 -844 
Q 366 -844 484 -692 
Q 603 -541 603 -63 
L 603 3500 
z
M 603 4863 
L 1178 4863 
L 1178 4134 
L 603 4134 
L 603 4863 
z
" transform="scale(0.015625)"/>
      </defs>
      <use xlink:href="#DejaVuSans-61"/>
      <use xlink:href="#DejaVuSans-64" x="61.279297"/>
      <use xlink:href="#DejaVuSans-6a" x="124.755859"/>
      <use xlink:href="#DejaVuSans-61" x="152.539062"/>
      <use xlink:href="#DejaVuSans-63" x="213.818359"/>
      <use xlink:href="#DejaVuSans-65" x="268.798828"/>
      <use xlink:href="#DejaVuSans-6e" x="330.322266"/>
      <use xlink:href="#DejaVuSans-74" x="393.701172"/>
     </g>
    </g>
    <g id="line2d_5">
     <path d="M 439.253036 533.181595 
L 449.253036 533.181595 
L 459.253036 533.181595 
" style="fill: none; stroke: #f2b701; stroke-linecap: square"/>
    </g>
    <g id="text_15">
     <!-- solution -->
     <g transform="translate(467.253036 536.681595) scale(0.1 -0.1)">
      <use xlink:href="#DejaVuSans-73"/>
      <use xlink:href="#DejaVuSans-6f" x="52.099609"/>
      <use xlink:href="#DejaVuSans-6c" x="113.28125"/>
      <use xlink:href="#DejaVuSans-75" x="141.064453"/>
      <use xlink:href="#DejaVuSans-74" x="204.443359"/>
      <use xlink:href="#DejaVuSans-69" x="243.652344"/>
      <use xlink:href="#DejaVuSans-6f" x="271.435547"/>
      <use xlink:href="#DejaVuSans-6e" x="332.617188"/>
     </g>
    </g>
    <g id="line2d_6">
     <path d="M 526.851473 533.181595 
L 536.851473 533.181595 
L 546.851473 533.181595 
" style="fill: none; stroke: #d3d3d3; stroke-width: 1.5; stroke-linecap: square"/>
     <g>
      <use xlink:href="#mca5cea7be6" x="536.851473" y="533.181595" style="fill: #d3d3d3; stroke: #000000"/>
     </g>
    </g>
    <g id="text_16">
     <!-- node -->
     <g transform="translate(554.851473 536.681595) scale(0.1 -0.1)">
      <use xlink:href="#DejaVuSans-6e"/>
      <use xlink:href="#DejaVuSans-6f" x="63.378906"/>
      <use xlink:href="#DejaVuSans-64" x="124.560547"/>
      <use xlink:href="#DejaVuSans-65" x="188.037109"/>
     </g>
    </g>
   </g>
  </g>
  <g id="axes_21">
   <g id="PatchCollection_41">
    <path d="M 262.903731 451.880829 
L 265.603032 450.881261 
L 274.923423 447.819234 
L 281.179394 454.868544 
L 285.170754 459.42509 
L 316.339172 480.985111 
L 301.740409 492.934199 
L 292.308501 488.410638 
L 253.560185 469.133627 
L 262.903731 451.880829 
" clip-path="url(#p26fb3de456)" style="fill: url(#hd5af8382b3); stroke: #d3d3d3"/>
   </g>
   <g id="PatchCollection_42"/>
   <g id="LineCollection_38">
    <path d="M 301.740409 492.934199 
L 290.497183 500.862522 
L 288.636809 502.209401 
" clip-path="url(#p26fb3de456)" style="fill: none; stroke: #11a579; stroke-width: 2"/>
    <path d="M 314.954242 500.248626 
L 311.124549 498.177753 
L 301.740409 492.934199 
" clip-path="url(#p26fb3de456)" style="fill: none; stroke: #11a579; stroke-width: 2"/>
    <path d="M 316.339172 480.985111 
L 301.740409 492.934199 
" clip-path="url(#p26fb3de456)" style="fill: none; stroke: #11a579; stroke-width: 2"/>
    <path d="M 301.740409 492.934199 
L 292.308501 488.410638 
L 253.560185 469.133627 
" clip-path="url(#p26fb3de456)" style="fill: none; stroke: #11a579; stroke-width: 2"/>
    <path d="M 328.086234 473.317334 
L 316.339172 480.985111 
" clip-path="url(#p26fb3de456)" style="fill: none; stroke: #11a579; stroke-width: 2"/>
    <path d="M 253.560185 469.133627 
L 241.125195 462.658101 
" clip-path="url(#p26fb3de456)" style="fill: none; stroke: #11a579; stroke-width: 2"/>
   </g>
   <g id="LineCollection_39">
    <path d="M 253.560185 469.133627 
L 262.903731 451.880829 
" clip-path="url(#p26fb3de456)" style="fill: none; stroke: #e73f74; stroke-width: 2"/>
    <path d="M 262.903731 451.880829 
L 265.603032 450.881261 
L 274.923423 447.819234 
" clip-path="url(#p26fb3de456)" style="fill: none; stroke: #e73f74; stroke-width: 2"/>
    <path d="M 274.923423 447.819234 
L 281.656316 435.529343 
" clip-path="url(#p26fb3de456)" style="fill: none; stroke: #e73f74; stroke-width: 2"/>
   </g>
   <g id="LineCollection_40">
    <path d="M 316.339172 480.985111 
L 285.170754 459.42509 
L 281.179394 454.868544 
L 274.923423 447.819234 
" clip-path="url(#p26fb3de456)" style="fill: none; stroke: #3969ac; stroke-width: 2"/>
   </g>
   <g id="LineCollection_41">
    <path d="M 301.740409 492.934199 
L 300.391489 505.546997 
L 301.297556 506.941795 
" clip-path="url(#p26fb3de456)" style="fill: none; stroke: #bbbbbb; stroke-width: 2"/>
    <path d="M 250.573349 445.189441 
L 262.903731 451.880829 
" clip-path="url(#p26fb3de456)" style="fill: none; stroke: #bbbbbb; stroke-width: 2"/>
   </g>
   <g id="PathCollection_20">
    <g clip-path="url(#p26fb3de456)">
     <use xlink:href="#mca5cea7be6" x="316.339172" y="480.985111" style="fill: #d3d3d3; stroke: #000000"/>
     <use xlink:href="#mca5cea7be6" x="301.740409" y="492.934199" style="fill: #d3d3d3; stroke: #000000"/>
     <use xlink:href="#mca5cea7be6" x="253.560185" y="469.133627" style="fill: #d3d3d3; stroke: #000000"/>
     <use xlink:href="#mca5cea7be6" x="262.903731" y="451.880829" style="fill: #d3d3d3; stroke: #000000"/>
     <use xlink:href="#mca5cea7be6" x="274.923423" y="447.819234" style="fill: #d3d3d3; stroke: #000000"/>
    </g>
   </g>
   <g id="text_17">
    <!-- 5CCES -->
    <g transform="translate(264.808527 406.80856) scale(0.12 -0.12)">
     <use xlink:href="#DejaVuSans-35"/>
     <use xlink:href="#DejaVuSans-43" x="63.623047"/>
     <use xlink:href="#DejaVuSans-43" x="133.447266"/>
     <use xlink:href="#DejaVuSans-45" x="203.271484"/>
     <use xlink:href="#DejaVuSans-53" x="266.455078"/>
    </g>
   </g>
  </g>
  <g id="axes_22">
   <g id="PatchCollection_43">
    <path d="M 377.692302 451.880829 
L 380.391604 450.881261 
L 389.711994 447.819234 
L 395.967965 454.868544 
L 399.959326 459.42509 
L 431.127744 480.985111 
L 416.528981 492.934199 
L 407.097072 488.410638 
L 368.348757 469.133627 
L 377.692302 451.880829 
" clip-path="url(#pfeb58f051f)" style="fill: url(#hd5af8382b3)"/>
   </g>
   <g id="PatchCollection_44"/>
   <g id="LineCollection_42">
    <path d="M 416.528981 492.934199 
L 415.180061 505.546997 
L 416.086127 506.941795 
" clip-path="url(#pfeb58f051f)" style="fill: none; stroke: #f2b701; stroke-width: 2"/>
    <path d="M 416.528981 492.934199 
L 405.285754 500.862522 
L 403.425381 502.209401 
" clip-path="url(#pfeb58f051f)" style="fill: none; stroke: #f2b701; stroke-width: 2"/>
    <path d="M 429.742813 500.248626 
L 425.91312 498.177753 
L 416.528981 492.934199 
" clip-path="url(#pfeb58f051f)" style="fill: none; stroke: #f2b701; stroke-width: 2"/>
    <path d="M 416.528981 492.934199 
L 415.17471 481.629578 
L 386.097141 462.51319 
" clip-path="url(#pfeb58f051f)" style="fill: none; stroke: #f2b701; stroke-width: 2"/>
    <path d="M 442.874805 473.317334 
L 431.127744 480.985111 
L 416.528981 492.934199 
" clip-path="url(#pfeb58f051f)" style="fill: none; stroke: #f2b701; stroke-width: 2"/>
    <path d="M 416.528981 492.934199 
L 407.097072 488.410638 
L 368.348757 469.133627 
L 355.913766 462.658101 
" clip-path="url(#pfeb58f051f)" style="fill: none; stroke: #f2b701; stroke-width: 2"/>
    <path d="M 386.097141 462.51319 
L 389.711994 447.819234 
L 396.444887 435.529343 
" clip-path="url(#pfeb58f051f)" style="fill: none; stroke: #f2b701; stroke-width: 2"/>
    <path d="M 365.36192 445.189441 
L 377.692302 451.880829 
L 386.097141 462.51319 
" clip-path="url(#pfeb58f051f)" style="fill: none; stroke: #f2b701; stroke-width: 2"/>
   </g>
   <g id="PathCollection_21">
    <g clip-path="url(#pfeb58f051f)">
     <use xlink:href="#mca5cea7be6" x="416.528981" y="492.934199" style="fill: #d3d3d3; stroke: #000000"/>
     <use xlink:href="#mca5cea7be6" x="386.097141" y="462.51319" style="fill: #d3d3d3; stroke: #000000"/>
    </g>
   </g>
  </g>
  <g id="axes_23">
   <g id="PatchCollection_45">
    <path d="M 492.425792 468.472673 
L 493.45235 459.701725 
L 497.519366 451.862813 
L 504.096203 445.960819 
L 516.109585 442.300695 
L 528.35936 444.990423 
L 537.71076 453.34386 
L 541.242044 461.765731 
L 541.469828 470.882314 
L 538.352349 479.465509 
L 533.040602 485.728972 
L 525.95366 489.917297 
L 519.589129 491.492597 
L 510.358688 490.625384 
L 503.463961 487.478573 
L 497.858908 482.395108 
L 494.052896 475.859191 
L 492.425792 468.472673 
" clip-path="url(#pa6dc9539de)" style="fill: url(#hd5af8382b3); stroke: #d3d3d3"/>
   </g>
   <g id="PatchCollection_46"/>
   <g id="LineCollection_43">
    <path d="M 519.589129 491.492597 
L 525.95366 489.917297 
L 533.040602 485.728972 
L 538.352349 479.465509 
" clip-path="url(#pa6dc9539de)" style="fill: none; stroke: #3969ac; stroke-width: 2"/>
    <path d="M 492.425792 468.472673 
L 494.052896 475.859191 
L 497.858908 482.395108 
L 503.463961 487.478573 
L 510.358688 490.625384 
L 519.589129 491.492597 
" clip-path="url(#pa6dc9539de)" style="fill: none; stroke: #3969ac; stroke-width: 2"/>
    <path d="M 538.352349 479.465509 
L 541.469828 470.882314 
L 541.242044 461.765731 
L 537.71076 453.34386 
" clip-path="url(#pa6dc9539de)" style="fill: none; stroke: #3969ac; stroke-width: 2"/>
    <path d="M 504.096203 445.960819 
L 497.519366 451.862813 
L 493.45235 459.701725 
L 492.425792 468.472673 
" clip-path="url(#pa6dc9539de)" style="fill: none; stroke: #3969ac; stroke-width: 2"/>
    <path d="M 537.71076 453.34386 
L 528.35936 444.990423 
L 516.109585 442.300695 
L 504.096203 445.960819 
" clip-path="url(#pa6dc9539de)" style="fill: none; stroke: #3969ac; stroke-width: 2"/>
   </g>
   <g id="LineCollection_44">
    <path d="M 519.589129 491.492597 
L 521.643489 507.519753 
L 522.492224 513.096733 
" clip-path="url(#pa6dc9539de)" style="fill: none; stroke: #bbbbbb; stroke-width: 2"/>
    <path d="M 538.352349 479.465509 
L 552.975936 487.639693 
L 557.663377 489.538934 
" clip-path="url(#pa6dc9539de)" style="fill: none; stroke: #bbbbbb; stroke-width: 2"/>
    <path d="M 555.826683 441.234763 
L 549.376886 446.718757 
L 537.71076 453.34386 
" clip-path="url(#pa6dc9539de)" style="fill: none; stroke: #bbbbbb; stroke-width: 2"/>
    <path d="M 470.702338 467.074124 
L 492.425792 468.472673 
" clip-path="url(#pa6dc9539de)" style="fill: none; stroke: #bbbbbb; stroke-width: 2"/>
    <path d="M 504.096203 445.960819 
L 490.720909 430.399361 
L 489.983032 429.374404 
" clip-path="url(#pa6dc9539de)" style="fill: none; stroke: #bbbbbb; stroke-width: 2"/>
   </g>
   <g id="PathCollection_22">
    <g clip-path="url(#pa6dc9539de)">
     <use xlink:href="#mca5cea7be6" x="519.589129" y="491.492597" style="fill: #d3d3d3; stroke: #000000"/>
     <use xlink:href="#mca5cea7be6" x="492.425792" y="468.472673" style="fill: #d3d3d3; stroke: #000000"/>
     <use xlink:href="#mca5cea7be6" x="538.352349" y="479.465509" style="fill: #d3d3d3; stroke: #000000"/>
     <use xlink:href="#mca5cea7be6" x="504.096203" y="445.960819" style="fill: #d3d3d3; stroke: #000000"/>
     <use xlink:href="#mca5cea7be6" x="537.71076" y="453.34386" style="fill: #d3d3d3; stroke: #000000"/>
    </g>
   </g>
   <g id="text_18">
    <!-- 5S -->
    <g transform="translate(506.556295 406.80856) scale(0.12 -0.12)">
     <use xlink:href="#DejaVuSans-35"/>
     <use xlink:href="#DejaVuSans-53" x="63.623047"/>
    </g>
   </g>
  </g>
  <g id="axes_24">
   <g id="PatchCollection_47">
    <path d="M 607.214364 468.472673 
L 608.240921 459.701725 
L 612.307937 451.862813 
L 618.884774 445.960819 
L 630.898156 442.300695 
L 643.147931 444.990423 
L 652.499331 453.34386 
L 656.030616 461.765731 
L 656.2584 470.882314 
L 653.140921 479.465509 
L 647.829173 485.728972 
L 640.742231 489.917297 
L 634.3777 491.492597 
L 625.147259 490.625384 
L 618.252532 487.478573 
L 612.647479 482.395108 
L 608.841468 475.859191 
L 607.214364 468.472673 
" clip-path="url(#p689501ee29)" style="fill: url(#hd5af8382b3)"/>
   </g>
   <g id="PatchCollection_48"/>
   <g id="LineCollection_45">
    <path d="M 631.826689 467.072303 
L 634.3777 491.492597 
L 636.43206 507.519753 
L 637.280795 513.096733 
" clip-path="url(#p689501ee29)" style="fill: none; stroke: #f2b701; stroke-width: 2"/>
    <path d="M 631.826689 467.072303 
L 653.140921 479.465509 
L 667.764508 487.639693 
L 672.451948 489.538934 
" clip-path="url(#p689501ee29)" style="fill: none; stroke: #f2b701; stroke-width: 2"/>
    <path d="M 670.615255 441.234763 
L 664.165457 446.718757 
L 652.499331 453.34386 
L 631.826689 467.072303 
" clip-path="url(#p689501ee29)" style="fill: none; stroke: #f2b701; stroke-width: 2"/>
    <path d="M 585.490909 467.074124 
L 607.214364 468.472673 
L 631.826689 467.072303 
" clip-path="url(#p689501ee29)" style="fill: none; stroke: #f2b701; stroke-width: 2"/>
    <path d="M 604.771603 429.374404 
L 605.50948 430.399361 
L 618.884774 445.960819 
L 631.826689 467.072303 
" clip-path="url(#p689501ee29)" style="fill: none; stroke: #f2b701; stroke-width: 2"/>
   </g>
   <g id="PathCollection_23">
    <g clip-path="url(#p689501ee29)">
     <use xlink:href="#mca5cea7be6" x="631.826689" y="467.072303" style="fill: #d3d3d3; stroke: #000000"/>
    </g>
   </g>
  </g>
 </g>
 <defs>
  <clipPath id="pd07a8b5f7c">
   <rect x="7.2" y="32.916563" width="95.657143" height="95.657143"/>
  </clipPath>
  <clipPath id="pb547b534c4">
   <rect x="121.988571" y="32.916563" width="95.657143" height="95.657143"/>
  </clipPath>
  <clipPath id="p23a7d312c1">
   <rect x="236.777143" y="32.916563" width="95.657143" height="95.657143"/>
  </clipPath>
  <clipPath id="p5f17a9eb66">
   <rect x="351.565714" y="32.916563" width="95.657143" height="95.657143"/>
  </clipPath>
  <clipPath id="pa673dfb21b">
   <rect x="466.354286" y="32.916562" width="95.657143" height="95.657143"/>
  </clipPath>
  <clipPath id="p7b5e6f3491">
   <rect x="581.142857" y="32.916562" width="95.657143" height="95.657143"/>
  </clipPath>
  <clipPath id="p19b2498435">
   <rect x="7.2" y="163.080041" width="95.657143" height="95.657143"/>
  </clipPath>
  <clipPath id="pfc66a9dd7a">
   <rect x="121.988571" y="163.080041" width="95.657143" height="95.657143"/>
  </clipPath>
  <clipPath id="p14b9e490f1">
   <rect x="236.777143" y="163.080041" width="95.657143" height="95.657143"/>
  </clipPath>
  <clipPath id="p7e19873fd3">
   <rect x="351.565714" y="163.080041" width="95.657143" height="95.657143"/>
  </clipPath>
  <clipPath id="p9dd63b4678">
   <rect x="466.354286" y="163.080041" width="95.657143" height="95.657143"/>
  </clipPath>
  <clipPath id="p6d33018241">
   <rect x="581.142857" y="163.080041" width="95.657143" height="95.657143"/>
  </clipPath>
  <clipPath id="pe103a6fb4d">
   <rect x="7.2" y="293.243519" width="95.657143" height="95.657143"/>
  </clipPath>
  <clipPath id="p670e5ddfad">
   <rect x="121.988571" y="293.243519" width="95.657143" height="95.657143"/>
  </clipPath>
  <clipPath id="paeb1c494eb">
   <rect x="236.777143" y="293.243519" width="95.657143" height="95.657143"/>
  </clipPath>
  <clipPath id="p6b52ee99aa">
   <rect x="351.565714" y="293.243519" width="95.657143" height="95.657143"/>
  </clipPath>
  <clipPath id="p2714bd6b9f">
   <rect x="466.354286" y="293.243519" width="95.657143" height="95.657143"/>
  </clipPath>
  <clipPath id="p5ca2a6868f">
   <rect x="581.142857" y="293.243519" width="95.657143" height="95.657143"/>
  </clipPath>
  <clipPath id="pd6b4eb066a">
   <rect x="7.2" y="423.406997" width="95.657143" height="95.657143"/>
  </clipPath>
  <clipPath id="p708e92603f">
   <rect x="121.988571" y="423.406997" width="95.657143" height="95.657143"/>
  </clipPath>
  <clipPath id="p26fb3de456">
   <rect x="236.777143" y="423.406997" width="95.657143" height="95.657143"/>
  </clipPath>
  <clipPath id="pfeb58f051f">
   <rect x="351.565714" y="423.406997" width="95.657143" height="95.657143"/>
  </clipPath>
  <clipPath id="pa6dc9539de">
   <rect x="466.354286" y="423.406997" width="95.657143" height="95.657143"/>
  </clipPath>
  <clipPath id="p689501ee29">
   <rect x="581.142857" y="423.406997" width="95.657143" height="95.657143"/>
  </clipPath>
 </defs>
 <defs>
  <pattern id="hd5af8382b3" patternUnits="userSpaceOnUse" x="0" y="0" width="72" height="72">
   <rect x="0" y="0" width="73" height="73" fill="none"/>
   <path d="M -36 36 
L 36 -36 
M -32 40 
L 40 -32 
M -28 44 
L 44 -28 
M -24 48 
L 48 -24 
M -20 52 
L 52 -20 
M -16 56 
L 56 -16 
M -12 60 
L 60 -12 
M -8 64 
L 64 -8 
M -4 68 
L 68 -4 
M 0 72 
L 72 0 
M 4 76 
L 76 4 
M 8 80 
L 80 8 
M 12 84 
L 84 12 
M 16 88 
L 88 16 
M 20 92 
L 92 20 
M 24 96 
L 96 24 
M 28 100 
L 100 28 
M 32 104 
L 104 32 
M 36 108 
L 108 36 
" style="fill: #d3d3d3; stroke: #d3d3d3; stroke-width: 1.0; stroke-linecap: butt; stroke-linejoin: miter"/>
  </pattern>
 </defs>
</svg>
