<?xml version="1.0" encoding="UTF-8" standalone="no"?>
<!DOCTYPE svg PUBLIC "-//W3C//DTD SVG 1.1//EN" "http://www.w3.org/Graphics/SVG/1.1/DTD/svg11.dtd">
<svg width="100%" height="100%" viewBox="0 0 2083 467" version="1.1" xmlns="http://www.w3.org/2000/svg" xmlns:xlink="http://www.w3.org/1999/xlink" xml:space="preserve" xmlns:serif="http://www.serif.com/" style="fill-rule:evenodd;clip-rule:evenodd;stroke-linejoin:round;stroke-miterlimit:1.5;">
    <g id="Artboard2" transform="matrix(1,0,0,1,-80.4907,0)">
        <rect x="80.491" y="0" width="416.946" height="466.16" style="fill:none;"/>
        <g id="lines" transform="matrix(1,0,0,1,0.490746,0)">
            <circle cx="192.82" cy="339.515" r="27.763" style="fill:none;stroke:rgb(5,109,166);stroke-width:3.75px;"/>
            <g transform="matrix(1,0,0,1,96.253,-208.753)">
                <circle cx="192.82" cy="339.515" r="27.763" style="fill:none;stroke:rgb(5,109,166);stroke-width:3.75px;"/>
            </g>
            <path d="M206.024,315.364L276.266,154.713" style="fill:none;stroke:rgb(5,109,166);stroke-width:3.75px;"/>
            <path d="M220.583,91.532L264.844,116.884" style="fill:none;stroke:rgb(5,109,166);stroke-width:3.75px;"/>
            <path d="M220.583,91.532L264.844,116.884" style="fill:none;stroke:rgb(5,109,166);stroke-width:3.75px;"/>
            <g transform="matrix(1,0,0,1,94.2817,53.1129)">
                <path d="M220.583,91.532L264.844,116.884L347.69,248.278" style="fill:none;stroke:rgb(5,109,166);stroke-width:3.75px;"/>
            </g>
            <path d="M220.583,339.515L391.223,410.364" style="fill:none;stroke:rgb(5,109,166);stroke-width:3.75px;"/>
            <g transform="matrix(1,0,0,1,-5.72417,15.0302)">
                <path d="M220.583,339.515L391.223,410.364" style="fill:none;stroke:rgb(5,109,166);stroke-width:3.75px;"/>
            </g>
            <g transform="matrix(1,0,0,1,-219.707,-90.8956)">
                <path d="M365.287,399.673L391.223,410.364" style="fill:none;stroke:rgb(5,109,166);stroke-width:3.75px;"/>
            </g>
            <g transform="matrix(1,0,0,1,-225.431,-75.8653)">
                <path d="M364.748,399.291L391.223,410.364" style="fill:none;stroke:rgb(5,109,166);stroke-width:3.75px;"/>
            </g>
            <path d="M346.698,429.408L419.233,265.689L406.435,294.575L431.667,284.044" style="fill:none;stroke:rgb(5,109,166);stroke-width:3.75px;stroke-linejoin:miter;"/>
        </g>
        <g id="nodes" transform="matrix(1,0,0,1,0.490746,0)">
            <g transform="matrix(1.82532,0,0,1.82532,-170.036,-260.277)">
                <circle cx="206.024" cy="315.364" r="3.612" style="fill:rgb(228,228,228);stroke:black;stroke-width:1.83px;stroke-linejoin:miter;"/>
            </g>
            <g transform="matrix(1.82532,0,0,1.82532,-135.915,-335.967)">
                <circle cx="206.024" cy="315.364" r="3.612" style="fill:rgb(228,228,228);stroke:black;stroke-width:1.83px;stroke-linejoin:miter;"/>
            </g>
            <g transform="matrix(1.82532,0,0,1.82532,-93.2002,-210.717)">
                <circle cx="206.024" cy="315.364" r="3.612" style="fill:rgb(228,228,228);stroke:black;stroke-width:1.83px;stroke-linejoin:miter;"/>
            </g>
            <g transform="matrix(1.82532,0,0,1.82532,-118.728,-376.079)">
                <circle cx="206.024" cy="315.364" r="3.612" style="fill:rgb(228,228,228);stroke:black;stroke-width:1.83px;stroke-linejoin:miter;"/>
            </g>
            <g transform="matrix(1.82532,0,0,1.82532,-148.131,-309.391)">
                <circle cx="206.024" cy="315.364" r="3.612" style="fill:rgb(228,228,228);stroke:black;stroke-width:1.83px;stroke-linejoin:miter;"/>
            </g>
            <g transform="matrix(1.82532,0,0,1.82532,-100.837,-419.854)">
                <circle cx="206.024" cy="315.364" r="3.612" style="fill:rgb(228,228,228);stroke:black;stroke-width:1.83px;stroke-linejoin:miter;"/>
            </g>
            <g transform="matrix(1.82532,0,0,1.82532,-62.5626,-431.996)">
                <circle cx="206.024" cy="315.364" r="3.612" style="fill:rgb(228,228,228);stroke:black;stroke-width:1.83px;stroke-linejoin:miter;"/>
            </g>
            <g transform="matrix(1.82532,0,0,1.82532,42.4247,-309.391)">
                <circle cx="206.024" cy="315.364" r="3.612" style="fill:rgb(228,228,228);stroke:black;stroke-width:1.83px;stroke-linejoin:miter;"/>
            </g>
            <g transform="matrix(1.82532,0,0,1.82532,-17.6729,-405.817)">
                <circle cx="206.024" cy="315.364" r="3.612" style="fill:rgb(228,228,228);stroke:black;stroke-width:1.83px;stroke-linejoin:miter;"/>
            </g>
            <g transform="matrix(1.82532,0,0,1.82532,54.6075,-290.598)">
                <circle cx="206.024" cy="315.364" r="3.612" style="fill:rgb(228,228,228);stroke:black;stroke-width:1.83px;stroke-linejoin:miter;"/>
            </g>
            <g transform="matrix(1.82532,0,0,1.82532,30.1342,-280.843)">
                <circle cx="206.024" cy="315.364" r="3.612" style="fill:rgb(228,228,228);stroke:black;stroke-width:1.83px;stroke-linejoin:miter;"/>
            </g>
            <g transform="matrix(1.82532,0,0,1.82532,-111.215,-458.756)">
                <circle cx="206.024" cy="315.364" r="3.612" style="fill:rgb(228,228,228);stroke:black;stroke-width:1.83px;stroke-linejoin:miter;"/>
            </g>
            <g transform="matrix(1.82532,0,0,1.82532,-203.412,-255.771)">
                <circle cx="206.024" cy="315.364" r="3.612" style="fill:rgb(228,228,228);stroke:black;stroke-width:1.83px;stroke-linejoin:miter;"/>
            </g>
            <g transform="matrix(1.82532,0,0,1.82532,-211.136,-241.142)">
                <circle cx="206.024" cy="315.364" r="3.612" style="fill:rgb(228,228,228);stroke:black;stroke-width:1.83px;stroke-linejoin:miter;"/>
            </g>
            <g transform="matrix(1.82532,0,0,1.82532,-155.476,-236.125)">
                <circle cx="206.024" cy="315.364" r="3.612" style="fill:rgb(228,228,228);stroke:black;stroke-width:1.83px;stroke-linejoin:miter;"/>
            </g>
            <g transform="matrix(1.82532,0,0,1.82532,-160.308,-219.926)">
                <circle cx="206.024" cy="315.364" r="3.612" style="fill:rgb(228,228,228);stroke:black;stroke-width:1.83px;stroke-linejoin:miter;"/>
            </g>
            <g transform="matrix(1.82532,0,0,1.82532,-15.0966,-178.358)">
                <circle cx="206.024" cy="315.364" r="3.612" style="fill:rgb(228,228,228);stroke:black;stroke-width:1.83px;stroke-linejoin:miter;"/>
            </g>
            <g transform="matrix(1.82532,0,0,1.82532,-21.7682,-163.171)">
                <circle cx="206.024" cy="315.364" r="3.612" style="fill:rgb(228,228,228);stroke:black;stroke-width:1.83px;stroke-linejoin:miter;"/>
            </g>
        </g>
    </g>
    <g id="Artboard3" transform="matrix(1,0,0,1,-80.0863,0)">
        <rect x="512.086" y="0" width="399.79" height="466.16" style="fill:none;"/>
        <g id="lines1" serif:id="lines" transform="matrix(1,0,0,1,417.64,0)">
            <circle cx="192.82" cy="339.515" r="27.763" style="fill:none;stroke:rgb(5,109,166);stroke-width:3.75px;"/>
            <g transform="matrix(1,0,0,1,96.253,-208.753)">
                <circle cx="192.82" cy="339.515" r="27.763" style="fill:none;stroke:rgb(5,109,166);stroke-width:3.75px;"/>
            </g>
            <path d="M206.024,315.364L276.266,154.713" style="fill:none;stroke:rgb(5,109,166);stroke-width:3.75px;"/>
            <path d="M220.583,91.532L264.844,116.884" style="fill:none;stroke:rgb(5,109,166);stroke-width:3.75px;"/>
            <path d="M220.583,91.532L264.844,116.884" style="fill:none;stroke:rgb(5,109,166);stroke-width:3.75px;"/>
            <g transform="matrix(1,0,0,1,94.2817,53.1129)">
                <path d="M220.583,91.532L264.844,116.884L347.69,248.278" style="fill:none;stroke:rgb(5,109,166);stroke-width:3.75px;"/>
            </g>
            <path d="M220.583,339.515L391.223,410.364" style="fill:none;stroke:rgb(5,109,166);stroke-width:3.75px;"/>
            <g transform="matrix(1,0,0,1,-5.72417,15.0302)">
                <path d="M220.583,339.515L391.223,410.364" style="fill:none;stroke:rgb(5,109,166);stroke-width:3.75px;"/>
            </g>
            <g transform="matrix(1,0,0,1,-219.707,-90.8956)">
                <path d="M365.287,399.673L391.223,410.364" style="fill:none;stroke:rgb(5,109,166);stroke-width:3.75px;"/>
            </g>
            <g transform="matrix(1,0,0,1,-225.431,-75.8653)">
                <path d="M364.934,399.291L391.223,410.364" style="fill:none;stroke:rgb(5,109,166);stroke-width:3.75px;"/>
            </g>
            <path d="M346.698,429.408L419.233,265.689L406.435,294.575L431.667,284.044" style="fill:none;stroke:rgb(5,109,166);stroke-width:3.75px;stroke-linejoin:miter;"/>
        </g>
        <g id="nodes1" serif:id="nodes" transform="matrix(1,0,0,1,417.64,0)">
            <g transform="matrix(1.82532,0,0,1.82532,-170.036,-260.277)">
                <circle cx="206.024" cy="315.364" r="3.612" style="fill:rgb(228,228,228);stroke:black;stroke-width:1.83px;stroke-linejoin:miter;"/>
            </g>
            <g transform="matrix(1.82532,0,0,1.82532,-100.837,-419.854)">
                <circle cx="206.024" cy="315.364" r="3.612" style="fill:rgb(228,228,228);stroke:black;stroke-width:1.83px;stroke-linejoin:miter;"/>
            </g>
            <g transform="matrix(1.82532,0,0,1.82532,-62.5626,-431.996)">
                <circle cx="206.024" cy="315.364" r="3.612" style="fill:rgb(228,228,228);stroke:black;stroke-width:1.83px;stroke-linejoin:miter;"/>
            </g>
            <g transform="matrix(1.82532,0,0,1.82532,42.4247,-309.391)">
                <circle cx="206.024" cy="315.364" r="3.612" style="fill:rgb(228,228,228);stroke:black;stroke-width:1.83px;stroke-linejoin:miter;"/>
            </g>
            <g transform="matrix(1.82532,0,0,1.82532,54.6075,-290.598)">
                <circle cx="206.024" cy="315.364" r="3.612" style="fill:rgb(228,228,228);stroke:black;stroke-width:1.83px;stroke-linejoin:miter;"/>
            </g>
            <g transform="matrix(1.82532,0,0,1.82532,30.1342,-280.843)">
                <circle cx="206.024" cy="315.364" r="3.612" style="fill:rgb(228,228,228);stroke:black;stroke-width:1.83px;stroke-linejoin:miter;"/>
            </g>
            <g transform="matrix(1.82532,0,0,1.82532,-111.215,-458.756)">
                <circle cx="206.024" cy="315.364" r="3.612" style="fill:rgb(228,228,228);stroke:black;stroke-width:1.83px;stroke-linejoin:miter;"/>
            </g>
            <g transform="matrix(1.82532,0,0,1.82532,-203.412,-255.771)">
                <circle cx="206.024" cy="315.364" r="3.612" style="fill:rgb(228,228,228);stroke:black;stroke-width:1.83px;stroke-linejoin:miter;"/>
            </g>
            <g transform="matrix(1.82532,0,0,1.82532,-211.136,-241.142)">
                <circle cx="206.024" cy="315.364" r="3.612" style="fill:rgb(228,228,228);stroke:black;stroke-width:1.83px;stroke-linejoin:miter;"/>
            </g>
            <g transform="matrix(1.82532,0,0,1.82532,-155.476,-236.125)">
                <circle cx="206.024" cy="315.364" r="3.612" style="fill:rgb(228,228,228);stroke:black;stroke-width:1.83px;stroke-linejoin:miter;"/>
            </g>
            <g transform="matrix(1.82532,0,0,1.82532,-160.308,-219.926)">
                <circle cx="206.024" cy="315.364" r="3.612" style="fill:rgb(228,228,228);stroke:black;stroke-width:1.83px;stroke-linejoin:miter;"/>
            </g>
            <g transform="matrix(1.82532,0,0,1.82532,-15.0966,-178.358)">
                <circle cx="206.024" cy="315.364" r="3.612" style="fill:rgb(228,228,228);stroke:black;stroke-width:1.83px;stroke-linejoin:miter;"/>
            </g>
            <g transform="matrix(1.82532,0,0,1.82532,-21.7682,-163.171)">
                <circle cx="206.024" cy="315.364" r="3.612" style="fill:rgb(228,228,228);stroke:black;stroke-width:1.83px;stroke-linejoin:miter;"/>
            </g>
        </g>
    </g>
    <g id="Artboard4" transform="matrix(1,0,0,1,-80.9965,0)">
        <rect x="932.996" y="0" width="421.905" height="466.16" style="fill:none;"/>
        <g id="artifacts" transform="matrix(1,0,0,1,0.996458,0)">
            <path d="M1215.87,424.956L1046.04,355.715L1052.63,341.731L1221.51,410.364L1215.87,424.956Z" style="fill:rgb(231,194,35);"/>
            <path d="M969.967,323.218L975.866,308.778L1004.05,319.469L996.079,334.499L969.967,323.218Z" style="fill:rgb(231,194,35);"/>
            <g transform="matrix(1,0,0,1,830.286,0)">
                <circle cx="192.82" cy="339.515" r="27.763" style="fill:rgb(231,194,35);"/>
            </g>
            <g transform="matrix(1,0,0,1,926.539,-208.753)">
                <circle cx="192.82" cy="339.515" r="27.763" style="fill:rgb(231,194,35);"/>
            </g>
            <path d="M1237.45,294.632L1248.85,265.689L1261.95,285.686L1237.45,294.632Z" style="fill:rgb(231,194,35);"/>
        </g>
        <g id="lines2" serif:id="lines" transform="matrix(1,0,0,1,831.283,0)">
            <circle cx="192.82" cy="339.515" r="27.763" style="fill:none;stroke:rgb(5,109,166);stroke-width:3.75px;"/>
            <g transform="matrix(1,0,0,1,96.253,-208.753)">
                <circle cx="192.82" cy="339.515" r="27.763" style="fill:none;stroke:rgb(5,109,166);stroke-width:3.75px;"/>
            </g>
            <path d="M206.024,315.364L276.266,154.713" style="fill:none;stroke:rgb(5,109,166);stroke-width:3.75px;"/>
            <path d="M220.583,91.532L264.844,116.884" style="fill:none;stroke:rgb(5,109,166);stroke-width:3.75px;"/>
            <path d="M220.583,91.532L264.844,116.884" style="fill:none;stroke:rgb(5,109,166);stroke-width:3.75px;"/>
            <g transform="matrix(1,0,0,1,94.2817,53.1129)">
                <path d="M220.583,91.532L264.844,116.884L347.69,248.278" style="fill:none;stroke:rgb(5,109,166);stroke-width:3.75px;"/>
            </g>
            <path d="M220.583,339.515L391.223,410.364" style="fill:none;stroke:rgb(5,109,166);stroke-width:3.75px;"/>
            <g transform="matrix(1,0,0,1,-5.72417,15.0302)">
                <path d="M220.583,339.515L391.223,410.364" style="fill:none;stroke:rgb(5,109,166);stroke-width:3.75px;"/>
            </g>
            <g transform="matrix(1,0,0,1,-219.707,-90.8956)">
                <path d="M365.287,399.673L391.223,410.364" style="fill:none;stroke:rgb(5,109,166);stroke-width:3.75px;"/>
            </g>
            <g transform="matrix(1,0,0,1,-225.431,-75.8653)">
                <path d="M365.111,399.291L391.223,410.364" style="fill:none;stroke:rgb(5,109,166);stroke-width:3.75px;"/>
            </g>
            <path d="M346.698,429.408L419.233,265.689L406.435,294.575L431.667,284.044" style="fill:none;stroke:rgb(5,109,166);stroke-width:3.75px;stroke-linejoin:miter;"/>
        </g>
        <g id="nodes2" serif:id="nodes" transform="matrix(1,0,0,1,831.283,0)">
            <g transform="matrix(1.82532,0,0,1.82532,-170.036,-260.277)">
                <circle cx="206.024" cy="315.364" r="3.612" style="fill:rgb(228,228,228);stroke:black;stroke-width:1.83px;stroke-linejoin:miter;"/>
            </g>
            <g transform="matrix(1.82532,0,0,1.82532,-100.837,-419.854)">
                <circle cx="206.024" cy="315.364" r="3.612" style="fill:rgb(228,228,228);stroke:black;stroke-width:1.83px;stroke-linejoin:miter;"/>
            </g>
            <g transform="matrix(1.82532,0,0,1.82532,-62.5626,-431.996)">
                <circle cx="206.024" cy="315.364" r="3.612" style="fill:rgb(228,228,228);stroke:black;stroke-width:1.83px;stroke-linejoin:miter;"/>
            </g>
            <g transform="matrix(1.82532,0,0,1.82532,42.4247,-309.391)">
                <circle cx="206.024" cy="315.364" r="3.612" style="fill:rgb(228,228,228);stroke:black;stroke-width:1.83px;stroke-linejoin:miter;"/>
            </g>
            <g transform="matrix(1.82532,0,0,1.82532,54.6075,-290.598)">
                <circle cx="206.024" cy="315.364" r="3.612" style="fill:rgb(228,228,228);stroke:black;stroke-width:1.83px;stroke-linejoin:miter;"/>
            </g>
            <g transform="matrix(1.82532,0,0,1.82532,30.1342,-280.843)">
                <circle cx="206.024" cy="315.364" r="3.612" style="fill:rgb(228,228,228);stroke:black;stroke-width:1.83px;stroke-linejoin:miter;"/>
            </g>
            <g transform="matrix(1.82532,0,0,1.82532,-111.215,-458.756)">
                <circle cx="206.024" cy="315.364" r="3.612" style="fill:rgb(228,228,228);stroke:black;stroke-width:1.83px;stroke-linejoin:miter;"/>
            </g>
            <g transform="matrix(1.82532,0,0,1.82532,-203.412,-255.771)">
                <circle cx="206.024" cy="315.364" r="3.612" style="fill:rgb(228,228,228);stroke:black;stroke-width:1.83px;stroke-linejoin:miter;"/>
            </g>
            <g transform="matrix(1.82532,0,0,1.82532,-211.136,-241.142)">
                <circle cx="206.024" cy="315.364" r="3.612" style="fill:rgb(228,228,228);stroke:black;stroke-width:1.83px;stroke-linejoin:miter;"/>
            </g>
            <g transform="matrix(1.82532,0,0,1.82532,-155.476,-236.125)">
                <circle cx="206.024" cy="315.364" r="3.612" style="fill:rgb(228,228,228);stroke:black;stroke-width:1.83px;stroke-linejoin:miter;"/>
            </g>
            <g transform="matrix(1.82532,0,0,1.82532,-160.308,-219.926)">
                <circle cx="206.024" cy="315.364" r="3.612" style="fill:rgb(228,228,228);stroke:black;stroke-width:1.83px;stroke-linejoin:miter;"/>
            </g>
            <g transform="matrix(1.82532,0,0,1.82532,-15.0966,-178.358)">
                <circle cx="206.024" cy="315.364" r="3.612" style="fill:rgb(228,228,228);stroke:black;stroke-width:1.83px;stroke-linejoin:miter;"/>
            </g>
            <g transform="matrix(1.82532,0,0,1.82532,-21.7682,-163.171)">
                <circle cx="206.024" cy="315.364" r="3.612" style="fill:rgb(228,228,228);stroke:black;stroke-width:1.83px;stroke-linejoin:miter;"/>
            </g>
        </g>
    </g>
    <g id="Artboard5" transform="matrix(1,0,0,1,-80.905,0)">
        <rect x="1353.9" y="0" width="418.694" height="466.16" style="fill:none;"/>
        <g id="artifacts1" serif:id="artifacts" transform="matrix(1,0,0,1,436.092,0)">
            <path d="M1215.87,424.956L1046.04,355.715L1052.63,341.731L1221.51,410.364L1215.87,424.956Z" style="fill:rgb(190,231,35);"/>
            <path d="M969.967,323.218L975.866,308.778L1004.05,319.469L996.079,334.499L969.967,323.218Z" style="fill:rgb(190,231,35);"/>
            <g transform="matrix(1,0,0,1,830.286,0)">
                <circle cx="192.82" cy="339.515" r="27.763" style="fill:rgb(190,231,35);"/>
            </g>
            <g transform="matrix(1,0,0,1,926.539,-208.753)">
                <circle cx="192.82" cy="339.515" r="27.763" style="fill:rgb(231,118,35);"/>
            </g>
            <path d="M1237.45,294.632L1248.85,265.689L1261.95,285.686L1237.45,294.632Z" style="fill:rgb(35,199,231);"/>
        </g>
        <g id="lines3" serif:id="lines" transform="matrix(1,0,0,1,1266.38,0)">
            <circle cx="192.82" cy="339.515" r="27.763" style="fill:none;stroke:rgb(5,109,166);stroke-width:3.75px;"/>
            <g transform="matrix(1,0,0,1,96.253,-208.753)">
                <circle cx="192.82" cy="339.515" r="27.763" style="fill:none;stroke:rgb(5,109,166);stroke-width:3.75px;"/>
            </g>
            <path d="M206.024,315.364L276.266,154.713" style="fill:none;stroke:rgb(5,109,166);stroke-width:3.75px;"/>
            <path d="M220.583,91.532L264.844,116.884" style="fill:none;stroke:rgb(5,109,166);stroke-width:3.75px;"/>
            <path d="M220.583,91.532L264.844,116.884" style="fill:none;stroke:rgb(5,109,166);stroke-width:3.75px;"/>
            <g transform="matrix(1,0,0,1,94.2817,53.1129)">
                <path d="M220.583,91.532L264.844,116.884L347.69,248.278" style="fill:none;stroke:rgb(5,109,166);stroke-width:3.75px;"/>
            </g>
            <path d="M220.583,339.515L391.223,410.364" style="fill:none;stroke:rgb(5,109,166);stroke-width:3.75px;"/>
            <g transform="matrix(1,0,0,1,-5.72417,15.0302)">
                <path d="M220.583,339.515L391.223,410.364" style="fill:none;stroke:rgb(5,109,166);stroke-width:3.75px;"/>
            </g>
            <g transform="matrix(1,0,0,1,-219.707,-90.8956)">
                <path d="M365.287,399.673L391.223,410.364" style="fill:none;stroke:rgb(5,109,166);stroke-width:3.75px;"/>
            </g>
            <g transform="matrix(1,0,0,1,-225.431,-75.8653)">
                <path d="M365.111,399.291L391.223,410.364" style="fill:none;stroke:rgb(5,109,166);stroke-width:3.75px;"/>
            </g>
            <path d="M346.698,429.408L419.233,265.689L406.435,294.575L431.667,284.044" style="fill:none;stroke:rgb(5,109,166);stroke-width:3.75px;stroke-linejoin:miter;"/>
        </g>
        <g id="nodes3" serif:id="nodes" transform="matrix(1,0,0,1,1266.38,0)">
            <g transform="matrix(1.82532,0,0,1.82532,-170.036,-260.277)">
                <circle cx="206.024" cy="315.364" r="3.612" style="fill:rgb(228,228,228);stroke:black;stroke-width:1.83px;stroke-linejoin:miter;"/>
            </g>
            <g transform="matrix(1.82532,0,0,1.82532,-100.837,-419.854)">
                <circle cx="206.024" cy="315.364" r="3.612" style="fill:rgb(228,228,228);stroke:black;stroke-width:1.83px;stroke-linejoin:miter;"/>
            </g>
            <g transform="matrix(1.82532,0,0,1.82532,-62.5626,-431.996)">
                <circle cx="206.024" cy="315.364" r="3.612" style="fill:rgb(228,228,228);stroke:black;stroke-width:1.83px;stroke-linejoin:miter;"/>
            </g>
            <g transform="matrix(1.82532,0,0,1.82532,42.4247,-309.391)">
                <circle cx="206.024" cy="315.364" r="3.612" style="fill:rgb(228,228,228);stroke:black;stroke-width:1.83px;stroke-linejoin:miter;"/>
            </g>
            <g transform="matrix(1.82532,0,0,1.82532,54.6075,-290.598)">
                <circle cx="206.024" cy="315.364" r="3.612" style="fill:rgb(228,228,228);stroke:black;stroke-width:1.83px;stroke-linejoin:miter;"/>
            </g>
            <g transform="matrix(1.82532,0,0,1.82532,30.1342,-280.843)">
                <circle cx="206.024" cy="315.364" r="3.612" style="fill:rgb(228,228,228);stroke:black;stroke-width:1.83px;stroke-linejoin:miter;"/>
            </g>
            <g transform="matrix(1.82532,0,0,1.82532,-111.215,-458.756)">
                <circle cx="206.024" cy="315.364" r="3.612" style="fill:rgb(228,228,228);stroke:black;stroke-width:1.83px;stroke-linejoin:miter;"/>
            </g>
            <g transform="matrix(1.82532,0,0,1.82532,-203.412,-255.771)">
                <circle cx="206.024" cy="315.364" r="3.612" style="fill:rgb(228,228,228);stroke:black;stroke-width:1.83px;stroke-linejoin:miter;"/>
            </g>
            <g transform="matrix(1.82532,0,0,1.82532,-211.136,-241.142)">
                <circle cx="206.024" cy="315.364" r="3.612" style="fill:rgb(228,228,228);stroke:black;stroke-width:1.83px;stroke-linejoin:miter;"/>
            </g>
            <g transform="matrix(1.82532,0,0,1.82532,-155.476,-236.125)">
                <circle cx="206.024" cy="315.364" r="3.612" style="fill:rgb(228,228,228);stroke:black;stroke-width:1.83px;stroke-linejoin:miter;"/>
            </g>
            <g transform="matrix(1.82532,0,0,1.82532,-160.308,-219.926)">
                <circle cx="206.024" cy="315.364" r="3.612" style="fill:rgb(228,228,228);stroke:black;stroke-width:1.83px;stroke-linejoin:miter;"/>
            </g>
            <g transform="matrix(1.82532,0,0,1.82532,-15.0966,-178.358)">
                <circle cx="206.024" cy="315.364" r="3.612" style="fill:rgb(228,228,228);stroke:black;stroke-width:1.83px;stroke-linejoin:miter;"/>
            </g>
            <g transform="matrix(1.82532,0,0,1.82532,-21.7682,-163.171)">
                <circle cx="206.024" cy="315.364" r="3.612" style="fill:rgb(228,228,228);stroke:black;stroke-width:1.83px;stroke-linejoin:miter;"/>
            </g>
        </g>
    </g>
    <g id="Artboard6" transform="matrix(1,0,0,1,-80.6941,0)">
        <rect x="1771.69" y="0" width="391.057" height="466.16" style="fill:none;"/>
        <g id="lines4" serif:id="lines" transform="matrix(1,0,0,1,1650.95,0)">
            <path d="M192.402,338.943L288.051,131.318" style="fill:none;stroke:rgb(5,109,166);stroke-width:3.75px;"/>
            <path d="M220.583,91.532L288.051,131.318" style="fill:none;stroke:rgb(5,109,166);stroke-width:3.75px;"/>
            <g transform="matrix(1,0,0,1,94.2817,53.1129)">
                <path d="M193.77,78.205L264.844,116.884L347.69,248.278" style="fill:none;stroke:rgb(5,109,166);stroke-width:3.75px;"/>
            </g>
            <path d="M346.698,429.408L419.233,265.689L406.435,294.575" style="fill:none;stroke:rgb(5,109,166);stroke-width:3.75px;stroke-linejoin:miter;"/>
            <g transform="matrix(1,0,0,1,-1222.44,0)">
                <path d="M1365.63,316.251L1415.55,338.109L1579.69,405.238L1610.71,417.833" style="fill:none;stroke:rgb(5,109,166);stroke-width:3.75px;stroke-linejoin:miter;"/>
            </g>
        </g>
        <g id="nodes4" serif:id="nodes" transform="matrix(1,0,0,1,1650.95,0)">
            <g transform="matrix(1.82532,0,0,1.82532,-182.954,-237.531)">
                <circle cx="206.024" cy="315.364" r="3.612" style="fill:rgb(228,228,228);stroke:black;stroke-width:1.83px;stroke-linejoin:miter;"/>
            </g>
            <g transform="matrix(1.82532,0,0,1.82532,-88.0078,-444.323)">
                <circle cx="206.024" cy="315.364" r="3.612" style="fill:rgb(228,228,228);stroke:black;stroke-width:1.83px;stroke-linejoin:miter;"/>
            </g>
            <g transform="matrix(1.82532,0,0,1.82532,42.4247,-309.391)">
                <circle cx="206.024" cy="315.364" r="3.612" style="fill:rgb(228,228,228);stroke:black;stroke-width:1.83px;stroke-linejoin:miter;"/>
            </g>
            <g transform="matrix(1.82532,0,0,1.82532,-18.8097,-170.403)">
                <circle cx="206.024" cy="315.364" r="3.612" style="fill:rgb(228,228,228);stroke:black;stroke-width:1.83px;stroke-linejoin:miter;"/>
            </g>
        </g>
    </g>
</svg>
